%TF.GenerationSoftware,KiCad,Pcbnew,9.0.7*%
%TF.CreationDate,2026-05-03T10:40:03-05:00*%
%TF.ProjectId,LightningBlinkyBoard,4c696768-746e-4696-9e67-426c696e6b79,rev?*%
%TF.SameCoordinates,Original*%
%TF.FileFunction,Soldermask,Bot*%
%TF.FilePolarity,Negative*%
%FSLAX46Y46*%
G04 Gerber Fmt 4.6, Leading zero omitted, Abs format (unit mm)*
G04 Created by KiCad (PCBNEW 9.0.7) date 2026-05-03 10:40:03*
%MOMM*%
%LPD*%
G01*
G04 APERTURE LIST*
G04 Aperture macros list*
%AMRoundRect*
0 Rectangle with rounded corners*
0 $1 Rounding radius*
0 $2 $3 $4 $5 $6 $7 $8 $9 X,Y pos of 4 corners*
0 Add a 4 corners polygon primitive as box body*
4,1,4,$2,$3,$4,$5,$6,$7,$8,$9,$2,$3,0*
0 Add four circle primitives for the rounded corners*
1,1,$1+$1,$2,$3*
1,1,$1+$1,$4,$5*
1,1,$1+$1,$6,$7*
1,1,$1+$1,$8,$9*
0 Add four rect primitives between the rounded corners*
20,1,$1+$1,$2,$3,$4,$5,0*
20,1,$1+$1,$4,$5,$6,$7,0*
20,1,$1+$1,$6,$7,$8,$9,0*
20,1,$1+$1,$8,$9,$2,$3,0*%
G04 Aperture macros list end*
%ADD10R,1.800000X1.800000*%
%ADD11C,1.800000*%
%ADD12R,1.700000X1.700000*%
%ADD13C,1.700000*%
%ADD14RoundRect,0.412500X-0.412500X-0.412500X0.412500X-0.412500X0.412500X0.412500X-0.412500X0.412500X0*%
%ADD15C,1.650000*%
%ADD16C,2.000000*%
%ADD17R,1.295400X1.295400*%
%ADD18C,1.295400*%
%ADD19C,1.600000*%
%ADD20RoundRect,0.250000X-0.550000X-0.550000X0.550000X-0.550000X0.550000X0.550000X-0.550000X0.550000X0*%
%ADD21RoundRect,0.250000X-0.550000X0.550000X-0.550000X-0.550000X0.550000X-0.550000X0.550000X0.550000X0*%
G04 APERTURE END LIST*
D10*
%TO.C,D7*%
X185325171Y-92758479D03*
D11*
X187865171Y-92758479D03*
%TD*%
D10*
%TO.C,D8*%
X191192726Y-83347124D03*
D11*
X193732726Y-83347124D03*
%TD*%
D10*
%TO.C,D5*%
X164282459Y-94251453D03*
D11*
X166822459Y-94251453D03*
%TD*%
D12*
%TO.C,J2*%
X227300000Y-103825000D03*
D13*
X227300000Y-106365000D03*
%TD*%
D10*
%TO.C,D1*%
X172506363Y-61123562D03*
D11*
X175046363Y-61123562D03*
%TD*%
D14*
%TO.C,RV1*%
X215660000Y-96500000D03*
D15*
X218200000Y-96500000D03*
X220740000Y-96500000D03*
%TD*%
D16*
%TO.C,C1*%
X205000000Y-88900000D03*
X205000000Y-83900000D03*
%TD*%
D10*
%TO.C,D10*%
X183270267Y-63795671D03*
D11*
X185810267Y-63795671D03*
%TD*%
D17*
%TO.C,U2*%
X225080000Y-69500000D03*
D18*
X222540000Y-69500000D03*
X220000000Y-69500000D03*
X217460000Y-69500000D03*
X214920000Y-69500000D03*
X212380000Y-69500000D03*
X209840000Y-69500000D03*
X207300000Y-69500000D03*
X207300000Y-77120000D03*
X209840000Y-77120000D03*
X212380000Y-77120000D03*
X214920000Y-77120000D03*
X217460000Y-77120000D03*
X220000000Y-77120000D03*
X222540000Y-77120000D03*
X225080000Y-77120000D03*
%TD*%
D10*
%TO.C,D4*%
X157144903Y-85762808D03*
D11*
X159684903Y-85762808D03*
%TD*%
D19*
%TO.C,R2*%
X202900000Y-100010000D03*
X202900000Y-92390000D03*
%TD*%
D10*
%TO.C,D9*%
X190407823Y-72284316D03*
D11*
X192947823Y-72284316D03*
%TD*%
D10*
%TO.C,D6*%
X175046363Y-96923562D03*
D11*
X177586363Y-96923562D03*
%TD*%
D19*
%TO.C,R1*%
X207100000Y-100010000D03*
X207100000Y-92390000D03*
%TD*%
D20*
%TO.C,C2*%
X224800000Y-85400000D03*
D19*
X226800000Y-85400000D03*
%TD*%
D21*
%TO.C,U1*%
X220000000Y-83100000D03*
D19*
X217460000Y-83100000D03*
X214920000Y-83100000D03*
X212380000Y-83100000D03*
X212380000Y-90720000D03*
X214920000Y-90720000D03*
X217460000Y-90720000D03*
X220000000Y-90720000D03*
%TD*%
D10*
%TO.C,D2*%
X162227555Y-65288645D03*
D11*
X164767555Y-65288645D03*
%TD*%
D10*
%TO.C,D3*%
X156360000Y-74700000D03*
D11*
X158900000Y-74700000D03*
%TD*%
M02*
