M48
; DRILL file {KiCad 9.0.7} date 2026-05-03T10:40:06-0500
; FORMAT={-:-/ absolute / metric / decimal}
; #@! TF.CreationDate,2026-05-03T10:40:06-05:00
; #@! TF.GenerationSoftware,Kicad,Pcbnew,9.0.7
; #@! TF.FileFunction,Plated,1,2,PTH
FMAT,2
METRIC
; #@! TA.AperFunction,Plated,PTH,ViaDrill
T1C0.300
; #@! TA.AperFunction,Plated,PTH,ComponentDrill
T2C0.787
; #@! TA.AperFunction,Plated,PTH,ComponentDrill
T3C0.800
; #@! TA.AperFunction,Plated,PTH,ComponentDrill
T4C0.850
; #@! TA.AperFunction,Plated,PTH,ComponentDrill
T5C0.900
; #@! TA.AperFunction,Plated,PTH,ComponentDrill
T6C1.000
%
G90
G05
T1
X198.5Y-76.0
X198.5Y-79.8
X199.8Y-76.6
X199.8Y-93.2
X201.4Y-76.9
X204.3Y-81.3
X204.4Y-72.3
X205.7Y-72.3
X205.7Y-81.3
X208.9Y-64.9
X210.5Y-65.0
X218.2Y-61.9
X220.3Y-61.9
X223.9Y-103.0
X223.9Y-104.5
T2
X207.3Y-69.5
X207.3Y-77.12
X209.84Y-69.5
X209.84Y-77.12
X212.38Y-69.5
X212.38Y-77.12
X214.92Y-69.5
X214.92Y-77.12
X217.46Y-69.5
X217.46Y-77.12
X220.0Y-69.5
X220.0Y-77.12
X222.54Y-69.5
X222.54Y-77.12
X225.08Y-69.5
X225.08Y-77.12
T3
X202.9Y-92.39
X202.9Y-100.01
X207.1Y-92.39
X207.1Y-100.01
X212.38Y-83.1
X212.38Y-90.72
X214.92Y-83.1
X214.92Y-90.72
X217.46Y-83.1
X217.46Y-90.72
X220.0Y-83.1
X220.0Y-90.72
X224.8Y-85.4
X226.8Y-85.4
T4
X215.66Y-96.5
X218.2Y-96.5
X220.74Y-96.5
T5
X156.36Y-74.7
X157.145Y-85.763
X158.9Y-74.7
X159.685Y-85.763
X162.228Y-65.289
X164.282Y-94.251
X164.768Y-65.289
X166.822Y-94.251
X172.506Y-61.124
X175.046Y-61.124
X175.046Y-96.924
X177.586Y-96.924
X183.27Y-63.796
X185.325Y-92.758
X185.81Y-63.796
X187.865Y-92.758
X190.408Y-72.284
X191.193Y-83.347
X192.948Y-72.284
X193.733Y-83.347
T6
X205.0Y-83.9
X205.0Y-88.9
X227.3Y-103.825
X227.3Y-106.365
M30
