%TF.GenerationSoftware,KiCad,Pcbnew,9.0.7*%
%TF.CreationDate,2026-05-03T10:40:02-05:00*%
%TF.ProjectId,LightningBlinkyBoard,4c696768-746e-4696-9e67-426c696e6b79,rev?*%
%TF.SameCoordinates,Original*%
%TF.FileFunction,Legend,Top*%
%TF.FilePolarity,Positive*%
%FSLAX46Y46*%
G04 Gerber Fmt 4.6, Leading zero omitted, Abs format (unit mm)*
G04 Created by KiCad (PCBNEW 9.0.7) date 2026-05-03 10:40:02*
%MOMM*%
%LPD*%
G01*
G04 APERTURE LIST*
%ADD10C,20.025000*%
%ADD11C,0.187500*%
%ADD12C,0.150000*%
%ADD13C,0.120000*%
%ADD14C,0.152400*%
G04 APERTURE END LIST*
D10*
X185012500Y-79000000D02*
G75*
G02*
X164987500Y-79000000I-10012500J0D01*
G01*
X164987500Y-79000000D02*
G75*
G02*
X185012500Y-79000000I10012500J0D01*
G01*
D11*
X224280497Y-106456188D02*
X225423355Y-106456188D01*
X224851926Y-107027616D02*
X224851926Y-105884759D01*
X224280497Y-103916188D02*
X225423355Y-103916188D01*
D12*
X226966666Y-100899819D02*
X226966666Y-101614104D01*
X226966666Y-101614104D02*
X226919047Y-101756961D01*
X226919047Y-101756961D02*
X226823809Y-101852200D01*
X226823809Y-101852200D02*
X226680952Y-101899819D01*
X226680952Y-101899819D02*
X226585714Y-101899819D01*
X227395238Y-100995057D02*
X227442857Y-100947438D01*
X227442857Y-100947438D02*
X227538095Y-100899819D01*
X227538095Y-100899819D02*
X227776190Y-100899819D01*
X227776190Y-100899819D02*
X227871428Y-100947438D01*
X227871428Y-100947438D02*
X227919047Y-100995057D01*
X227919047Y-100995057D02*
X227966666Y-101090295D01*
X227966666Y-101090295D02*
X227966666Y-101185533D01*
X227966666Y-101185533D02*
X227919047Y-101328390D01*
X227919047Y-101328390D02*
X227347619Y-101899819D01*
X227347619Y-101899819D02*
X227966666Y-101899819D01*
X217604761Y-93454819D02*
X217271428Y-92978628D01*
X217033333Y-93454819D02*
X217033333Y-92454819D01*
X217033333Y-92454819D02*
X217414285Y-92454819D01*
X217414285Y-92454819D02*
X217509523Y-92502438D01*
X217509523Y-92502438D02*
X217557142Y-92550057D01*
X217557142Y-92550057D02*
X217604761Y-92645295D01*
X217604761Y-92645295D02*
X217604761Y-92788152D01*
X217604761Y-92788152D02*
X217557142Y-92883390D01*
X217557142Y-92883390D02*
X217509523Y-92931009D01*
X217509523Y-92931009D02*
X217414285Y-92978628D01*
X217414285Y-92978628D02*
X217033333Y-92978628D01*
X217890476Y-92454819D02*
X218223809Y-93454819D01*
X218223809Y-93454819D02*
X218557142Y-92454819D01*
X219414285Y-93454819D02*
X218842857Y-93454819D01*
X219128571Y-93454819D02*
X219128571Y-92454819D01*
X219128571Y-92454819D02*
X219033333Y-92597676D01*
X219033333Y-92597676D02*
X218938095Y-92692914D01*
X218938095Y-92692914D02*
X218842857Y-92740533D01*
X202859580Y-86566666D02*
X202907200Y-86614285D01*
X202907200Y-86614285D02*
X202954819Y-86757142D01*
X202954819Y-86757142D02*
X202954819Y-86852380D01*
X202954819Y-86852380D02*
X202907200Y-86995237D01*
X202907200Y-86995237D02*
X202811961Y-87090475D01*
X202811961Y-87090475D02*
X202716723Y-87138094D01*
X202716723Y-87138094D02*
X202526247Y-87185713D01*
X202526247Y-87185713D02*
X202383390Y-87185713D01*
X202383390Y-87185713D02*
X202192914Y-87138094D01*
X202192914Y-87138094D02*
X202097676Y-87090475D01*
X202097676Y-87090475D02*
X202002438Y-86995237D01*
X202002438Y-86995237D02*
X201954819Y-86852380D01*
X201954819Y-86852380D02*
X201954819Y-86757142D01*
X201954819Y-86757142D02*
X202002438Y-86614285D01*
X202002438Y-86614285D02*
X202050057Y-86566666D01*
X202954819Y-85614285D02*
X202954819Y-86185713D01*
X202954819Y-85899999D02*
X201954819Y-85899999D01*
X201954819Y-85899999D02*
X202097676Y-85995237D01*
X202097676Y-85995237D02*
X202192914Y-86090475D01*
X202192914Y-86090475D02*
X202240533Y-86185713D01*
X216735180Y-72548095D02*
X215925657Y-72548095D01*
X215925657Y-72548095D02*
X215830419Y-72595714D01*
X215830419Y-72595714D02*
X215782800Y-72643333D01*
X215782800Y-72643333D02*
X215735180Y-72738571D01*
X215735180Y-72738571D02*
X215735180Y-72929047D01*
X215735180Y-72929047D02*
X215782800Y-73024285D01*
X215782800Y-73024285D02*
X215830419Y-73071904D01*
X215830419Y-73071904D02*
X215925657Y-73119523D01*
X215925657Y-73119523D02*
X216735180Y-73119523D01*
X216639942Y-73548095D02*
X216687561Y-73595714D01*
X216687561Y-73595714D02*
X216735180Y-73690952D01*
X216735180Y-73690952D02*
X216735180Y-73929047D01*
X216735180Y-73929047D02*
X216687561Y-74024285D01*
X216687561Y-74024285D02*
X216639942Y-74071904D01*
X216639942Y-74071904D02*
X216544704Y-74119523D01*
X216544704Y-74119523D02*
X216449466Y-74119523D01*
X216449466Y-74119523D02*
X216306609Y-74071904D01*
X216306609Y-74071904D02*
X215735180Y-73500476D01*
X215735180Y-73500476D02*
X215735180Y-74119523D01*
X227034880Y-69500000D02*
X226796785Y-69500000D01*
X226892023Y-69261905D02*
X226796785Y-69500000D01*
X226796785Y-69500000D02*
X226892023Y-69738095D01*
X226606309Y-69357143D02*
X226796785Y-69500000D01*
X226796785Y-69500000D02*
X226606309Y-69642857D01*
X225944519Y-69499999D02*
X226182614Y-69499999D01*
X226087376Y-69738094D02*
X226182614Y-69499999D01*
X226182614Y-69499999D02*
X226087376Y-69261904D01*
X226373090Y-69642856D02*
X226182614Y-69499999D01*
X226182614Y-69499999D02*
X226373090Y-69357142D01*
X200984819Y-96366666D02*
X200508628Y-96699999D01*
X200984819Y-96938094D02*
X199984819Y-96938094D01*
X199984819Y-96938094D02*
X199984819Y-96557142D01*
X199984819Y-96557142D02*
X200032438Y-96461904D01*
X200032438Y-96461904D02*
X200080057Y-96414285D01*
X200080057Y-96414285D02*
X200175295Y-96366666D01*
X200175295Y-96366666D02*
X200318152Y-96366666D01*
X200318152Y-96366666D02*
X200413390Y-96414285D01*
X200413390Y-96414285D02*
X200461009Y-96461904D01*
X200461009Y-96461904D02*
X200508628Y-96557142D01*
X200508628Y-96557142D02*
X200508628Y-96938094D01*
X200080057Y-95985713D02*
X200032438Y-95938094D01*
X200032438Y-95938094D02*
X199984819Y-95842856D01*
X199984819Y-95842856D02*
X199984819Y-95604761D01*
X199984819Y-95604761D02*
X200032438Y-95509523D01*
X200032438Y-95509523D02*
X200080057Y-95461904D01*
X200080057Y-95461904D02*
X200175295Y-95414285D01*
X200175295Y-95414285D02*
X200270533Y-95414285D01*
X200270533Y-95414285D02*
X200413390Y-95461904D01*
X200413390Y-95461904D02*
X200984819Y-96033332D01*
X200984819Y-96033332D02*
X200984819Y-95414285D01*
X205454819Y-96366666D02*
X204978628Y-96699999D01*
X205454819Y-96938094D02*
X204454819Y-96938094D01*
X204454819Y-96938094D02*
X204454819Y-96557142D01*
X204454819Y-96557142D02*
X204502438Y-96461904D01*
X204502438Y-96461904D02*
X204550057Y-96414285D01*
X204550057Y-96414285D02*
X204645295Y-96366666D01*
X204645295Y-96366666D02*
X204788152Y-96366666D01*
X204788152Y-96366666D02*
X204883390Y-96414285D01*
X204883390Y-96414285D02*
X204931009Y-96461904D01*
X204931009Y-96461904D02*
X204978628Y-96557142D01*
X204978628Y-96557142D02*
X204978628Y-96938094D01*
X205454819Y-95414285D02*
X205454819Y-95985713D01*
X205454819Y-95699999D02*
X204454819Y-95699999D01*
X204454819Y-95699999D02*
X204597676Y-95795237D01*
X204597676Y-95795237D02*
X204692914Y-95890475D01*
X204692914Y-95890475D02*
X204740533Y-95985713D01*
X225633333Y-82009580D02*
X225585714Y-82057200D01*
X225585714Y-82057200D02*
X225442857Y-82104819D01*
X225442857Y-82104819D02*
X225347619Y-82104819D01*
X225347619Y-82104819D02*
X225204762Y-82057200D01*
X225204762Y-82057200D02*
X225109524Y-81961961D01*
X225109524Y-81961961D02*
X225061905Y-81866723D01*
X225061905Y-81866723D02*
X225014286Y-81676247D01*
X225014286Y-81676247D02*
X225014286Y-81533390D01*
X225014286Y-81533390D02*
X225061905Y-81342914D01*
X225061905Y-81342914D02*
X225109524Y-81247676D01*
X225109524Y-81247676D02*
X225204762Y-81152438D01*
X225204762Y-81152438D02*
X225347619Y-81104819D01*
X225347619Y-81104819D02*
X225442857Y-81104819D01*
X225442857Y-81104819D02*
X225585714Y-81152438D01*
X225585714Y-81152438D02*
X225633333Y-81200057D01*
X226014286Y-81200057D02*
X226061905Y-81152438D01*
X226061905Y-81152438D02*
X226157143Y-81104819D01*
X226157143Y-81104819D02*
X226395238Y-81104819D01*
X226395238Y-81104819D02*
X226490476Y-81152438D01*
X226490476Y-81152438D02*
X226538095Y-81200057D01*
X226538095Y-81200057D02*
X226585714Y-81295295D01*
X226585714Y-81295295D02*
X226585714Y-81390533D01*
X226585714Y-81390533D02*
X226538095Y-81533390D01*
X226538095Y-81533390D02*
X225966667Y-82104819D01*
X225966667Y-82104819D02*
X226585714Y-82104819D01*
X221784819Y-87671904D02*
X222594342Y-87671904D01*
X222594342Y-87671904D02*
X222689580Y-87624285D01*
X222689580Y-87624285D02*
X222737200Y-87576666D01*
X222737200Y-87576666D02*
X222784819Y-87481428D01*
X222784819Y-87481428D02*
X222784819Y-87290952D01*
X222784819Y-87290952D02*
X222737200Y-87195714D01*
X222737200Y-87195714D02*
X222689580Y-87148095D01*
X222689580Y-87148095D02*
X222594342Y-87100476D01*
X222594342Y-87100476D02*
X221784819Y-87100476D01*
X222784819Y-86100476D02*
X222784819Y-86671904D01*
X222784819Y-86386190D02*
X221784819Y-86386190D01*
X221784819Y-86386190D02*
X221927676Y-86481428D01*
X221927676Y-86481428D02*
X222022914Y-86576666D01*
X222022914Y-86576666D02*
X222070533Y-86671904D01*
D13*
%TO.C,D7*%
X185035171Y-91522479D02*
X185035171Y-91678479D01*
X185035171Y-93838479D02*
X185035171Y-93994479D01*
X185035171Y-91522963D02*
G75*
G02*
X188266608Y-91678479I1560000J-1235516D01*
G01*
X185554210Y-91678479D02*
G75*
G02*
X187636132Y-91678479I1040961J-1080000D01*
G01*
X187636132Y-93838479D02*
G75*
G02*
X185554210Y-93838479I-1040961J1080000D01*
G01*
X188266608Y-93838479D02*
G75*
G02*
X185035171Y-93993995I-1671437J1080000D01*
G01*
%TO.C,D8*%
X190902726Y-82111124D02*
X190902726Y-82267124D01*
X190902726Y-84427124D02*
X190902726Y-84583124D01*
X190902726Y-82111608D02*
G75*
G02*
X194134163Y-82267124I1560000J-1235516D01*
G01*
X191421765Y-82267124D02*
G75*
G02*
X193503687Y-82267124I1040961J-1080000D01*
G01*
X193503687Y-84427124D02*
G75*
G02*
X191421765Y-84427124I-1040961J1080000D01*
G01*
X194134163Y-84427124D02*
G75*
G02*
X190902726Y-84582640I-1671437J1080000D01*
G01*
%TO.C,D5*%
X163992459Y-93015453D02*
X163992459Y-93171453D01*
X163992459Y-95331453D02*
X163992459Y-95487453D01*
X163992459Y-93015937D02*
G75*
G02*
X167223896Y-93171453I1560000J-1235516D01*
G01*
X164511498Y-93171453D02*
G75*
G02*
X166593420Y-93171453I1040961J-1080000D01*
G01*
X166593420Y-95331453D02*
G75*
G02*
X164511498Y-95331453I-1040961J1080000D01*
G01*
X167223896Y-95331453D02*
G75*
G02*
X163992459Y-95486969I-1671437J1080000D01*
G01*
%TO.C,J2*%
X225920000Y-102445000D02*
X227300000Y-102445000D01*
X225920000Y-103825000D02*
X225920000Y-102445000D01*
X225920000Y-105095000D02*
X225920000Y-107745000D01*
X225920000Y-105095000D02*
X228680000Y-105095000D01*
X225920000Y-107745000D02*
X228680000Y-107745000D01*
X228680000Y-105095000D02*
X228680000Y-107745000D01*
%TO.C,D1*%
X172216363Y-59887562D02*
X172216363Y-60043562D01*
X172216363Y-62203562D02*
X172216363Y-62359562D01*
X172216363Y-59888046D02*
G75*
G02*
X175447800Y-60043562I1560000J-1235516D01*
G01*
X172735402Y-60043562D02*
G75*
G02*
X174817324Y-60043562I1040961J-1080000D01*
G01*
X174817324Y-62203562D02*
G75*
G02*
X172735402Y-62203562I-1040961J1080000D01*
G01*
X175447800Y-62203562D02*
G75*
G02*
X172216363Y-62359078I-1671437J1080000D01*
G01*
%TO.C,RV1*%
X213240000Y-93890000D02*
X213240000Y-99110000D01*
X213240000Y-93890000D02*
X215360000Y-93890000D01*
X213240000Y-99110000D02*
X223160000Y-99110000D01*
X216060000Y-93890000D02*
X223160000Y-93890000D01*
X223160000Y-93890000D02*
X223160000Y-99110000D01*
X215660000Y-93890000D02*
X215420000Y-93560000D01*
X215900000Y-93560000D01*
X215660000Y-93890000D01*
G36*
X215660000Y-93890000D02*
G01*
X215420000Y-93560000D01*
X215900000Y-93560000D01*
X215660000Y-93890000D01*
G37*
%TO.C,C1*%
X203630000Y-82530000D02*
X206370000Y-82530000D01*
X203630000Y-90270000D02*
X203630000Y-82530000D01*
X206370000Y-82530000D02*
X206370000Y-90270000D01*
X206370000Y-90270000D02*
X203630000Y-90270000D01*
%TO.C,D10*%
X182980267Y-62559671D02*
X182980267Y-62715671D01*
X182980267Y-64875671D02*
X182980267Y-65031671D01*
X182980267Y-62560155D02*
G75*
G02*
X186211704Y-62715671I1560000J-1235516D01*
G01*
X183499306Y-62715671D02*
G75*
G02*
X185581228Y-62715671I1040961J-1080000D01*
G01*
X185581228Y-64875671D02*
G75*
G02*
X183499306Y-64875671I-1040961J1080000D01*
G01*
X186211704Y-64875671D02*
G75*
G02*
X182980267Y-65031187I-1671437J1080000D01*
G01*
D14*
%TO.C,U2*%
X206347500Y-70008000D02*
X206347500Y-76612000D01*
X208138569Y-76612000D02*
X209001431Y-76612000D01*
X209001431Y-70008000D02*
X208138569Y-70008000D01*
X210678569Y-76612000D02*
X211541431Y-76612000D01*
X211541431Y-70008000D02*
X210678569Y-70008000D01*
X213218569Y-76612000D02*
X214081431Y-76612000D01*
X214081431Y-70008000D02*
X213218569Y-70008000D01*
X215758569Y-76612000D02*
X216621431Y-76612000D01*
X216621431Y-70008000D02*
X215758569Y-70008000D01*
X218298569Y-76612000D02*
X219161431Y-76612000D01*
X219161431Y-70008000D02*
X218298569Y-70008000D01*
X220838569Y-76612000D02*
X221701431Y-76612000D01*
X221701431Y-70008000D02*
X220838569Y-70008000D01*
X223378569Y-76612000D02*
X224241431Y-76612000D01*
X224099560Y-70008000D02*
X223378569Y-70008000D01*
X226032500Y-76612000D02*
X226032500Y-70281165D01*
X226032500Y-73614800D02*
G75*
G02*
X226032500Y-73005200I0J304800D01*
G01*
D13*
%TO.C,D4*%
X156854903Y-84526808D02*
X156854903Y-84682808D01*
X156854903Y-86842808D02*
X156854903Y-86998808D01*
X156854903Y-84527292D02*
G75*
G02*
X160086340Y-84682808I1560000J-1235516D01*
G01*
X157373942Y-84682808D02*
G75*
G02*
X159455864Y-84682808I1040961J-1080000D01*
G01*
X159455864Y-86842808D02*
G75*
G02*
X157373942Y-86842808I-1040961J1080000D01*
G01*
X160086340Y-86842808D02*
G75*
G02*
X156854903Y-86998324I-1671437J1080000D01*
G01*
%TO.C,R2*%
X201530000Y-92930000D02*
X201860000Y-92930000D01*
X201530000Y-99470000D02*
X201530000Y-92930000D01*
X201860000Y-99470000D02*
X201530000Y-99470000D01*
X203940000Y-99470000D02*
X204270000Y-99470000D01*
X204270000Y-92930000D02*
X203940000Y-92930000D01*
X204270000Y-99470000D02*
X204270000Y-92930000D01*
%TO.C,D9*%
X190117823Y-71048316D02*
X190117823Y-71204316D01*
X190117823Y-73364316D02*
X190117823Y-73520316D01*
X190117823Y-71048800D02*
G75*
G02*
X193349260Y-71204316I1560000J-1235516D01*
G01*
X190636862Y-71204316D02*
G75*
G02*
X192718784Y-71204316I1040961J-1080000D01*
G01*
X192718784Y-73364316D02*
G75*
G02*
X190636862Y-73364316I-1040961J1080000D01*
G01*
X193349260Y-73364316D02*
G75*
G02*
X190117823Y-73519832I-1671437J1080000D01*
G01*
%TO.C,D6*%
X174756363Y-95687562D02*
X174756363Y-95843562D01*
X174756363Y-98003562D02*
X174756363Y-98159562D01*
X174756363Y-95688046D02*
G75*
G02*
X177987800Y-95843562I1560000J-1235516D01*
G01*
X175275402Y-95843562D02*
G75*
G02*
X177357324Y-95843562I1040961J-1080000D01*
G01*
X177357324Y-98003562D02*
G75*
G02*
X175275402Y-98003562I-1040961J1080000D01*
G01*
X177987800Y-98003562D02*
G75*
G02*
X174756363Y-98159078I-1671437J1080000D01*
G01*
%TO.C,R1*%
X205730000Y-92930000D02*
X206060000Y-92930000D01*
X205730000Y-99470000D02*
X205730000Y-92930000D01*
X206060000Y-99470000D02*
X205730000Y-99470000D01*
X208140000Y-99470000D02*
X208470000Y-99470000D01*
X208470000Y-92930000D02*
X208140000Y-92930000D01*
X208470000Y-99470000D02*
X208470000Y-92930000D01*
%TO.C,C2*%
X222995225Y-83925000D02*
X223495225Y-83925000D01*
X223245225Y-83675000D02*
X223245225Y-84175000D01*
X225800000Y-82820000D02*
X225800000Y-84360000D01*
X225800000Y-86440000D02*
X225800000Y-87980000D01*
X225840000Y-82820000D02*
X225840000Y-84360000D01*
X225840000Y-86440000D02*
X225840000Y-87980000D01*
X225880000Y-82821000D02*
X225880000Y-84360000D01*
X225880000Y-86440000D02*
X225880000Y-87979000D01*
X225920000Y-82823000D02*
X225920000Y-84360000D01*
X225920000Y-86440000D02*
X225920000Y-87977000D01*
X225960000Y-82825000D02*
X225960000Y-84360000D01*
X225960000Y-86440000D02*
X225960000Y-87975000D01*
X226000000Y-82828000D02*
X226000000Y-84360000D01*
X226000000Y-86440000D02*
X226000000Y-87972000D01*
X226040000Y-82831000D02*
X226040000Y-84360000D01*
X226040000Y-86440000D02*
X226040000Y-87969000D01*
X226080000Y-82835000D02*
X226080000Y-84360000D01*
X226080000Y-86440000D02*
X226080000Y-87965000D01*
X226120000Y-82840000D02*
X226120000Y-84360000D01*
X226120000Y-86440000D02*
X226120000Y-87960000D01*
X226160000Y-82845000D02*
X226160000Y-84360000D01*
X226160000Y-86440000D02*
X226160000Y-87955000D01*
X226200000Y-82851000D02*
X226200000Y-84360000D01*
X226200000Y-86440000D02*
X226200000Y-87949000D01*
X226240000Y-82857000D02*
X226240000Y-84360000D01*
X226240000Y-86440000D02*
X226240000Y-87943000D01*
X226280000Y-82864000D02*
X226280000Y-84360000D01*
X226280000Y-86440000D02*
X226280000Y-87936000D01*
X226320000Y-82872000D02*
X226320000Y-84360000D01*
X226320000Y-86440000D02*
X226320000Y-87928000D01*
X226360000Y-82881000D02*
X226360000Y-84360000D01*
X226360000Y-86440000D02*
X226360000Y-87919000D01*
X226400000Y-82890000D02*
X226400000Y-84360000D01*
X226400000Y-86440000D02*
X226400000Y-87910000D01*
X226440000Y-82899000D02*
X226440000Y-84360000D01*
X226440000Y-86440000D02*
X226440000Y-87901000D01*
X226480000Y-82910000D02*
X226480000Y-84360000D01*
X226480000Y-86440000D02*
X226480000Y-87890000D01*
X226520000Y-82921000D02*
X226520000Y-84360000D01*
X226520000Y-86440000D02*
X226520000Y-87879000D01*
X226560000Y-82933000D02*
X226560000Y-84360000D01*
X226560000Y-86440000D02*
X226560000Y-87867000D01*
X226600000Y-82945000D02*
X226600000Y-84360000D01*
X226600000Y-86440000D02*
X226600000Y-87855000D01*
X226640000Y-82958000D02*
X226640000Y-84360000D01*
X226640000Y-86440000D02*
X226640000Y-87842000D01*
X226680000Y-82972000D02*
X226680000Y-84360000D01*
X226680000Y-86440000D02*
X226680000Y-87828000D01*
X226720000Y-82987000D02*
X226720000Y-84360000D01*
X226720000Y-86440000D02*
X226720000Y-87813000D01*
X226760000Y-83002000D02*
X226760000Y-84360000D01*
X226760000Y-86440000D02*
X226760000Y-87798000D01*
X226800000Y-83018000D02*
X226800000Y-84360000D01*
X226800000Y-86440000D02*
X226800000Y-87782000D01*
X226840000Y-83035000D02*
X226840000Y-84360000D01*
X226840000Y-86440000D02*
X226840000Y-87765000D01*
X226880000Y-83053000D02*
X226880000Y-84360000D01*
X226880000Y-86440000D02*
X226880000Y-87747000D01*
X226920000Y-83071000D02*
X226920000Y-84360000D01*
X226920000Y-86440000D02*
X226920000Y-87729000D01*
X226960000Y-83091000D02*
X226960000Y-84360000D01*
X226960000Y-86440000D02*
X226960000Y-87709000D01*
X227000000Y-83111000D02*
X227000000Y-84360000D01*
X227000000Y-86440000D02*
X227000000Y-87689000D01*
X227040000Y-83132000D02*
X227040000Y-84360000D01*
X227040000Y-86440000D02*
X227040000Y-87668000D01*
X227080000Y-83154000D02*
X227080000Y-84360000D01*
X227080000Y-86440000D02*
X227080000Y-87646000D01*
X227120000Y-83177000D02*
X227120000Y-84360000D01*
X227120000Y-86440000D02*
X227120000Y-87623000D01*
X227160000Y-83201000D02*
X227160000Y-84360000D01*
X227160000Y-86440000D02*
X227160000Y-87599000D01*
X227200000Y-83225000D02*
X227200000Y-84360000D01*
X227200000Y-86440000D02*
X227200000Y-87575000D01*
X227240000Y-83251000D02*
X227240000Y-84360000D01*
X227240000Y-86440000D02*
X227240000Y-87549000D01*
X227280000Y-83278000D02*
X227280000Y-84360000D01*
X227280000Y-86440000D02*
X227280000Y-87522000D01*
X227320000Y-83306000D02*
X227320000Y-84360000D01*
X227320000Y-86440000D02*
X227320000Y-87494000D01*
X227360000Y-83335000D02*
X227360000Y-84360000D01*
X227360000Y-86440000D02*
X227360000Y-87465000D01*
X227400000Y-83365000D02*
X227400000Y-84360000D01*
X227400000Y-86440000D02*
X227400000Y-87435000D01*
X227440000Y-83397000D02*
X227440000Y-84360000D01*
X227440000Y-86440000D02*
X227440000Y-87403000D01*
X227480000Y-83430000D02*
X227480000Y-84360000D01*
X227480000Y-86440000D02*
X227480000Y-87370000D01*
X227520000Y-83464000D02*
X227520000Y-84360000D01*
X227520000Y-86440000D02*
X227520000Y-87336000D01*
X227560000Y-83499000D02*
X227560000Y-84360000D01*
X227560000Y-86440000D02*
X227560000Y-87301000D01*
X227600000Y-83536000D02*
X227600000Y-84360000D01*
X227600000Y-86440000D02*
X227600000Y-87264000D01*
X227640000Y-83575000D02*
X227640000Y-84360000D01*
X227640000Y-86440000D02*
X227640000Y-87225000D01*
X227680000Y-83615000D02*
X227680000Y-84360000D01*
X227680000Y-86440000D02*
X227680000Y-87185000D01*
X227720000Y-83657000D02*
X227720000Y-84360000D01*
X227720000Y-86440000D02*
X227720000Y-87143000D01*
X227760000Y-83701000D02*
X227760000Y-84360000D01*
X227760000Y-86440000D02*
X227760000Y-87099000D01*
X227800000Y-83748000D02*
X227800000Y-84360000D01*
X227800000Y-86440000D02*
X227800000Y-87052000D01*
X227840000Y-83796000D02*
X227840000Y-87004000D01*
X227880000Y-83847000D02*
X227880000Y-86953000D01*
X227920000Y-83901000D02*
X227920000Y-86899000D01*
X227960000Y-83957000D02*
X227960000Y-86843000D01*
X228000000Y-84017000D02*
X228000000Y-86783000D01*
X228040000Y-84081000D02*
X228040000Y-86719000D01*
X228080000Y-84149000D02*
X228080000Y-86651000D01*
X228120000Y-84223000D02*
X228120000Y-86577000D01*
X228160000Y-84302000D02*
X228160000Y-86498000D01*
X228200000Y-84389000D02*
X228200000Y-86411000D01*
X228240000Y-84486000D02*
X228240000Y-86314000D01*
X228280000Y-84595000D02*
X228280000Y-86205000D01*
X228320000Y-84723000D02*
X228320000Y-86077000D01*
X228360000Y-84883000D02*
X228360000Y-85917000D01*
X228400000Y-85117000D02*
X228400000Y-85683000D01*
X228420000Y-85400000D02*
G75*
G02*
X223180000Y-85400000I-2620000J0D01*
G01*
X223180000Y-85400000D02*
G75*
G02*
X228420000Y-85400000I2620000J0D01*
G01*
%TO.C,U1*%
X211050000Y-84260000D02*
X211050000Y-89560000D01*
X211050000Y-89560000D02*
X221330000Y-89560000D01*
X221330000Y-84260000D02*
X211050000Y-84260000D01*
X221330000Y-85910000D02*
X221330000Y-84260000D01*
X221330000Y-89560000D02*
X221330000Y-87910000D01*
X221330000Y-87910000D02*
G75*
G02*
X221330000Y-85910000I0J1000000D01*
G01*
%TO.C,D2*%
X161937555Y-64052645D02*
X161937555Y-64208645D01*
X161937555Y-66368645D02*
X161937555Y-66524645D01*
X161937555Y-64053129D02*
G75*
G02*
X165168992Y-64208645I1560000J-1235516D01*
G01*
X162456594Y-64208645D02*
G75*
G02*
X164538516Y-64208645I1040961J-1080000D01*
G01*
X164538516Y-66368645D02*
G75*
G02*
X162456594Y-66368645I-1040961J1080000D01*
G01*
X165168992Y-66368645D02*
G75*
G02*
X161937555Y-66524161I-1671437J1080000D01*
G01*
%TO.C,D3*%
X156070000Y-73464000D02*
X156070000Y-73620000D01*
X156070000Y-75780000D02*
X156070000Y-75936000D01*
X156070000Y-73464484D02*
G75*
G02*
X159301437Y-73620000I1560000J-1235516D01*
G01*
X156589039Y-73620000D02*
G75*
G02*
X158670961Y-73620000I1040961J-1080000D01*
G01*
X158670961Y-75780000D02*
G75*
G02*
X156589039Y-75780000I-1040961J1080000D01*
G01*
X159301437Y-75780000D02*
G75*
G02*
X156070000Y-75935516I-1671437J1080000D01*
G01*
%TD*%
M02*
