%TF.GenerationSoftware,KiCad,Pcbnew,9.0.7*%
%TF.CreationDate,2026-05-03T10:40:02-05:00*%
%TF.ProjectId,LightningBlinkyBoard,4c696768-746e-4696-9e67-426c696e6b79,rev?*%
%TF.SameCoordinates,Original*%
%TF.FileFunction,Legend,Bot*%
%TF.FilePolarity,Positive*%
%FSLAX46Y46*%
G04 Gerber Fmt 4.6, Leading zero omitted, Abs format (unit mm)*
G04 Created by KiCad (PCBNEW 9.0.7) date 2026-05-03 10:40:02*
%MOMM*%
%LPD*%
G01*
G04 APERTURE LIST*
%ADD10C,0.250000*%
G04 APERTURE END LIST*
D10*
X201761906Y-78115981D02*
X201476192Y-78211219D01*
X201476192Y-78211219D02*
X201380954Y-78306457D01*
X201380954Y-78306457D02*
X201285716Y-78496933D01*
X201285716Y-78496933D02*
X201285716Y-78782647D01*
X201285716Y-78782647D02*
X201380954Y-78973123D01*
X201380954Y-78973123D02*
X201476192Y-79068362D01*
X201476192Y-79068362D02*
X201666668Y-79163600D01*
X201666668Y-79163600D02*
X202428573Y-79163600D01*
X202428573Y-79163600D02*
X202428573Y-77163600D01*
X202428573Y-77163600D02*
X201761906Y-77163600D01*
X201761906Y-77163600D02*
X201571430Y-77258838D01*
X201571430Y-77258838D02*
X201476192Y-77354076D01*
X201476192Y-77354076D02*
X201380954Y-77544552D01*
X201380954Y-77544552D02*
X201380954Y-77735028D01*
X201380954Y-77735028D02*
X201476192Y-77925504D01*
X201476192Y-77925504D02*
X201571430Y-78020742D01*
X201571430Y-78020742D02*
X201761906Y-78115981D01*
X201761906Y-78115981D02*
X202428573Y-78115981D01*
X199571430Y-79163600D02*
X199571430Y-78115981D01*
X199571430Y-78115981D02*
X199666668Y-77925504D01*
X199666668Y-77925504D02*
X199857144Y-77830266D01*
X199857144Y-77830266D02*
X200238097Y-77830266D01*
X200238097Y-77830266D02*
X200428573Y-77925504D01*
X199571430Y-79068362D02*
X199761906Y-79163600D01*
X199761906Y-79163600D02*
X200238097Y-79163600D01*
X200238097Y-79163600D02*
X200428573Y-79068362D01*
X200428573Y-79068362D02*
X200523811Y-78877885D01*
X200523811Y-78877885D02*
X200523811Y-78687409D01*
X200523811Y-78687409D02*
X200428573Y-78496933D01*
X200428573Y-78496933D02*
X200238097Y-78401695D01*
X200238097Y-78401695D02*
X199761906Y-78401695D01*
X199761906Y-78401695D02*
X199571430Y-78306457D01*
X198619049Y-77830266D02*
X198619049Y-79163600D01*
X198619049Y-78020742D02*
X198523811Y-77925504D01*
X198523811Y-77925504D02*
X198333335Y-77830266D01*
X198333335Y-77830266D02*
X198047620Y-77830266D01*
X198047620Y-77830266D02*
X197857144Y-77925504D01*
X197857144Y-77925504D02*
X197761906Y-78115981D01*
X197761906Y-78115981D02*
X197761906Y-79163600D01*
X195952382Y-77830266D02*
X195952382Y-79449314D01*
X195952382Y-79449314D02*
X196047620Y-79639790D01*
X196047620Y-79639790D02*
X196142858Y-79735028D01*
X196142858Y-79735028D02*
X196333335Y-79830266D01*
X196333335Y-79830266D02*
X196619049Y-79830266D01*
X196619049Y-79830266D02*
X196809525Y-79735028D01*
X195952382Y-79068362D02*
X196142858Y-79163600D01*
X196142858Y-79163600D02*
X196523811Y-79163600D01*
X196523811Y-79163600D02*
X196714287Y-79068362D01*
X196714287Y-79068362D02*
X196809525Y-78973123D01*
X196809525Y-78973123D02*
X196904763Y-78782647D01*
X196904763Y-78782647D02*
X196904763Y-78211219D01*
X196904763Y-78211219D02*
X196809525Y-78020742D01*
X196809525Y-78020742D02*
X196714287Y-77925504D01*
X196714287Y-77925504D02*
X196523811Y-77830266D01*
X196523811Y-77830266D02*
X196142858Y-77830266D01*
X196142858Y-77830266D02*
X195952382Y-77925504D01*
X194714287Y-79163600D02*
X194904763Y-79068362D01*
X194904763Y-79068362D02*
X195000001Y-78877885D01*
X195000001Y-78877885D02*
X195000001Y-77163600D01*
X193095239Y-79163600D02*
X193095239Y-78115981D01*
X193095239Y-78115981D02*
X193190477Y-77925504D01*
X193190477Y-77925504D02*
X193380953Y-77830266D01*
X193380953Y-77830266D02*
X193761906Y-77830266D01*
X193761906Y-77830266D02*
X193952382Y-77925504D01*
X193095239Y-79068362D02*
X193285715Y-79163600D01*
X193285715Y-79163600D02*
X193761906Y-79163600D01*
X193761906Y-79163600D02*
X193952382Y-79068362D01*
X193952382Y-79068362D02*
X194047620Y-78877885D01*
X194047620Y-78877885D02*
X194047620Y-78687409D01*
X194047620Y-78687409D02*
X193952382Y-78496933D01*
X193952382Y-78496933D02*
X193761906Y-78401695D01*
X193761906Y-78401695D02*
X193285715Y-78401695D01*
X193285715Y-78401695D02*
X193095239Y-78306457D01*
X191285715Y-79163600D02*
X191285715Y-77163600D01*
X191285715Y-79068362D02*
X191476191Y-79163600D01*
X191476191Y-79163600D02*
X191857144Y-79163600D01*
X191857144Y-79163600D02*
X192047620Y-79068362D01*
X192047620Y-79068362D02*
X192142858Y-78973123D01*
X192142858Y-78973123D02*
X192238096Y-78782647D01*
X192238096Y-78782647D02*
X192238096Y-78211219D01*
X192238096Y-78211219D02*
X192142858Y-78020742D01*
X192142858Y-78020742D02*
X192047620Y-77925504D01*
X192047620Y-77925504D02*
X191857144Y-77830266D01*
X191857144Y-77830266D02*
X191476191Y-77830266D01*
X191476191Y-77830266D02*
X191285715Y-77925504D01*
X189571429Y-79068362D02*
X189761905Y-79163600D01*
X189761905Y-79163600D02*
X190142858Y-79163600D01*
X190142858Y-79163600D02*
X190333334Y-79068362D01*
X190333334Y-79068362D02*
X190428572Y-78877885D01*
X190428572Y-78877885D02*
X190428572Y-78115981D01*
X190428572Y-78115981D02*
X190333334Y-77925504D01*
X190333334Y-77925504D02*
X190142858Y-77830266D01*
X190142858Y-77830266D02*
X189761905Y-77830266D01*
X189761905Y-77830266D02*
X189571429Y-77925504D01*
X189571429Y-77925504D02*
X189476191Y-78115981D01*
X189476191Y-78115981D02*
X189476191Y-78306457D01*
X189476191Y-78306457D02*
X190428572Y-78496933D01*
X188714286Y-79068362D02*
X188523810Y-79163600D01*
X188523810Y-79163600D02*
X188142858Y-79163600D01*
X188142858Y-79163600D02*
X187952381Y-79068362D01*
X187952381Y-79068362D02*
X187857143Y-78877885D01*
X187857143Y-78877885D02*
X187857143Y-78782647D01*
X187857143Y-78782647D02*
X187952381Y-78592171D01*
X187952381Y-78592171D02*
X188142858Y-78496933D01*
X188142858Y-78496933D02*
X188428572Y-78496933D01*
X188428572Y-78496933D02*
X188619048Y-78401695D01*
X188619048Y-78401695D02*
X188714286Y-78211219D01*
X188714286Y-78211219D02*
X188714286Y-78115981D01*
X188714286Y-78115981D02*
X188619048Y-77925504D01*
X188619048Y-77925504D02*
X188428572Y-77830266D01*
X188428572Y-77830266D02*
X188142858Y-77830266D01*
X188142858Y-77830266D02*
X187952381Y-77925504D01*
X187000000Y-79163600D02*
X187000000Y-77163600D01*
X186142857Y-79163600D02*
X186142857Y-78115981D01*
X186142857Y-78115981D02*
X186238095Y-77925504D01*
X186238095Y-77925504D02*
X186428571Y-77830266D01*
X186428571Y-77830266D02*
X186714286Y-77830266D01*
X186714286Y-77830266D02*
X186904762Y-77925504D01*
X186904762Y-77925504D02*
X187000000Y-78020742D01*
X182999999Y-78115981D02*
X183666666Y-78115981D01*
X183666666Y-79163600D02*
X183666666Y-77163600D01*
X183666666Y-77163600D02*
X182714285Y-77163600D01*
X181666666Y-79163600D02*
X181857142Y-79068362D01*
X181857142Y-79068362D02*
X181952380Y-78877885D01*
X181952380Y-78877885D02*
X181952380Y-77163600D01*
X180047618Y-79163600D02*
X180047618Y-78115981D01*
X180047618Y-78115981D02*
X180142856Y-77925504D01*
X180142856Y-77925504D02*
X180333332Y-77830266D01*
X180333332Y-77830266D02*
X180714285Y-77830266D01*
X180714285Y-77830266D02*
X180904761Y-77925504D01*
X180047618Y-79068362D02*
X180238094Y-79163600D01*
X180238094Y-79163600D02*
X180714285Y-79163600D01*
X180714285Y-79163600D02*
X180904761Y-79068362D01*
X180904761Y-79068362D02*
X180999999Y-78877885D01*
X180999999Y-78877885D02*
X180999999Y-78687409D01*
X180999999Y-78687409D02*
X180904761Y-78496933D01*
X180904761Y-78496933D02*
X180714285Y-78401695D01*
X180714285Y-78401695D02*
X180238094Y-78401695D01*
X180238094Y-78401695D02*
X180047618Y-78306457D01*
X178238094Y-77830266D02*
X178238094Y-79449314D01*
X178238094Y-79449314D02*
X178333332Y-79639790D01*
X178333332Y-79639790D02*
X178428570Y-79735028D01*
X178428570Y-79735028D02*
X178619047Y-79830266D01*
X178619047Y-79830266D02*
X178904761Y-79830266D01*
X178904761Y-79830266D02*
X179095237Y-79735028D01*
X178238094Y-79068362D02*
X178428570Y-79163600D01*
X178428570Y-79163600D02*
X178809523Y-79163600D01*
X178809523Y-79163600D02*
X178999999Y-79068362D01*
X178999999Y-79068362D02*
X179095237Y-78973123D01*
X179095237Y-78973123D02*
X179190475Y-78782647D01*
X179190475Y-78782647D02*
X179190475Y-78211219D01*
X179190475Y-78211219D02*
X179095237Y-78020742D01*
X179095237Y-78020742D02*
X178999999Y-77925504D01*
X178999999Y-77925504D02*
X178809523Y-77830266D01*
X178809523Y-77830266D02*
X178428570Y-77830266D01*
X178428570Y-77830266D02*
X178238094Y-77925504D01*
X175095236Y-78115981D02*
X174809522Y-78211219D01*
X174809522Y-78211219D02*
X174714284Y-78306457D01*
X174714284Y-78306457D02*
X174619046Y-78496933D01*
X174619046Y-78496933D02*
X174619046Y-78782647D01*
X174619046Y-78782647D02*
X174714284Y-78973123D01*
X174714284Y-78973123D02*
X174809522Y-79068362D01*
X174809522Y-79068362D02*
X174999998Y-79163600D01*
X174999998Y-79163600D02*
X175761903Y-79163600D01*
X175761903Y-79163600D02*
X175761903Y-77163600D01*
X175761903Y-77163600D02*
X175095236Y-77163600D01*
X175095236Y-77163600D02*
X174904760Y-77258838D01*
X174904760Y-77258838D02*
X174809522Y-77354076D01*
X174809522Y-77354076D02*
X174714284Y-77544552D01*
X174714284Y-77544552D02*
X174714284Y-77735028D01*
X174714284Y-77735028D02*
X174809522Y-77925504D01*
X174809522Y-77925504D02*
X174904760Y-78020742D01*
X174904760Y-78020742D02*
X175095236Y-78115981D01*
X175095236Y-78115981D02*
X175761903Y-78115981D01*
X173476189Y-79163600D02*
X173666665Y-79068362D01*
X173666665Y-79068362D02*
X173761903Y-78877885D01*
X173761903Y-78877885D02*
X173761903Y-77163600D01*
X172714284Y-79163600D02*
X172714284Y-77830266D01*
X172714284Y-77163600D02*
X172809522Y-77258838D01*
X172809522Y-77258838D02*
X172714284Y-77354076D01*
X172714284Y-77354076D02*
X172619046Y-77258838D01*
X172619046Y-77258838D02*
X172714284Y-77163600D01*
X172714284Y-77163600D02*
X172714284Y-77354076D01*
X171761903Y-77830266D02*
X171761903Y-79163600D01*
X171761903Y-78020742D02*
X171666665Y-77925504D01*
X171666665Y-77925504D02*
X171476189Y-77830266D01*
X171476189Y-77830266D02*
X171190474Y-77830266D01*
X171190474Y-77830266D02*
X170999998Y-77925504D01*
X170999998Y-77925504D02*
X170904760Y-78115981D01*
X170904760Y-78115981D02*
X170904760Y-79163600D01*
X169952379Y-79163600D02*
X169952379Y-77163600D01*
X169761903Y-78401695D02*
X169190474Y-79163600D01*
X169190474Y-77830266D02*
X169952379Y-78592171D01*
X168523807Y-77830266D02*
X168047617Y-79163600D01*
X167571426Y-77830266D02*
X168047617Y-79163600D01*
X168047617Y-79163600D02*
X168238093Y-79639790D01*
X168238093Y-79639790D02*
X168333331Y-79735028D01*
X168333331Y-79735028D02*
X168523807Y-79830266D01*
X164619044Y-78115981D02*
X164333330Y-78211219D01*
X164333330Y-78211219D02*
X164238092Y-78306457D01*
X164238092Y-78306457D02*
X164142854Y-78496933D01*
X164142854Y-78496933D02*
X164142854Y-78782647D01*
X164142854Y-78782647D02*
X164238092Y-78973123D01*
X164238092Y-78973123D02*
X164333330Y-79068362D01*
X164333330Y-79068362D02*
X164523806Y-79163600D01*
X164523806Y-79163600D02*
X165285711Y-79163600D01*
X165285711Y-79163600D02*
X165285711Y-77163600D01*
X165285711Y-77163600D02*
X164619044Y-77163600D01*
X164619044Y-77163600D02*
X164428568Y-77258838D01*
X164428568Y-77258838D02*
X164333330Y-77354076D01*
X164333330Y-77354076D02*
X164238092Y-77544552D01*
X164238092Y-77544552D02*
X164238092Y-77735028D01*
X164238092Y-77735028D02*
X164333330Y-77925504D01*
X164333330Y-77925504D02*
X164428568Y-78020742D01*
X164428568Y-78020742D02*
X164619044Y-78115981D01*
X164619044Y-78115981D02*
X165285711Y-78115981D01*
X162999997Y-79163600D02*
X163190473Y-79068362D01*
X163190473Y-79068362D02*
X163285711Y-78973123D01*
X163285711Y-78973123D02*
X163380949Y-78782647D01*
X163380949Y-78782647D02*
X163380949Y-78211219D01*
X163380949Y-78211219D02*
X163285711Y-78020742D01*
X163285711Y-78020742D02*
X163190473Y-77925504D01*
X163190473Y-77925504D02*
X162999997Y-77830266D01*
X162999997Y-77830266D02*
X162714282Y-77830266D01*
X162714282Y-77830266D02*
X162523806Y-77925504D01*
X162523806Y-77925504D02*
X162428568Y-78020742D01*
X162428568Y-78020742D02*
X162333330Y-78211219D01*
X162333330Y-78211219D02*
X162333330Y-78782647D01*
X162333330Y-78782647D02*
X162428568Y-78973123D01*
X162428568Y-78973123D02*
X162523806Y-79068362D01*
X162523806Y-79068362D02*
X162714282Y-79163600D01*
X162714282Y-79163600D02*
X162999997Y-79163600D01*
X160619044Y-79163600D02*
X160619044Y-78115981D01*
X160619044Y-78115981D02*
X160714282Y-77925504D01*
X160714282Y-77925504D02*
X160904758Y-77830266D01*
X160904758Y-77830266D02*
X161285711Y-77830266D01*
X161285711Y-77830266D02*
X161476187Y-77925504D01*
X160619044Y-79068362D02*
X160809520Y-79163600D01*
X160809520Y-79163600D02*
X161285711Y-79163600D01*
X161285711Y-79163600D02*
X161476187Y-79068362D01*
X161476187Y-79068362D02*
X161571425Y-78877885D01*
X161571425Y-78877885D02*
X161571425Y-78687409D01*
X161571425Y-78687409D02*
X161476187Y-78496933D01*
X161476187Y-78496933D02*
X161285711Y-78401695D01*
X161285711Y-78401695D02*
X160809520Y-78401695D01*
X160809520Y-78401695D02*
X160619044Y-78306457D01*
X159666663Y-79163600D02*
X159666663Y-77830266D01*
X159666663Y-78211219D02*
X159571425Y-78020742D01*
X159571425Y-78020742D02*
X159476187Y-77925504D01*
X159476187Y-77925504D02*
X159285711Y-77830266D01*
X159285711Y-77830266D02*
X159095234Y-77830266D01*
X157571425Y-79163600D02*
X157571425Y-77163600D01*
X157571425Y-79068362D02*
X157761901Y-79163600D01*
X157761901Y-79163600D02*
X158142854Y-79163600D01*
X158142854Y-79163600D02*
X158333330Y-79068362D01*
X158333330Y-79068362D02*
X158428568Y-78973123D01*
X158428568Y-78973123D02*
X158523806Y-78782647D01*
X158523806Y-78782647D02*
X158523806Y-78211219D01*
X158523806Y-78211219D02*
X158428568Y-78020742D01*
X158428568Y-78020742D02*
X158333330Y-77925504D01*
X158333330Y-77925504D02*
X158142854Y-77830266D01*
X158142854Y-77830266D02*
X157761901Y-77830266D01*
X157761901Y-77830266D02*
X157571425Y-77925504D01*
X189142857Y-81812059D02*
X188190476Y-81812059D01*
X189333333Y-82383488D02*
X188666667Y-80383488D01*
X188666667Y-80383488D02*
X188000000Y-82383488D01*
X187333333Y-82383488D02*
X187333333Y-81050154D01*
X187333333Y-81431107D02*
X187238095Y-81240630D01*
X187238095Y-81240630D02*
X187142857Y-81145392D01*
X187142857Y-81145392D02*
X186952381Y-81050154D01*
X186952381Y-81050154D02*
X186761904Y-81050154D01*
X186095238Y-81050154D02*
X186095238Y-82383488D01*
X186095238Y-81240630D02*
X186000000Y-81145392D01*
X186000000Y-81145392D02*
X185809524Y-81050154D01*
X185809524Y-81050154D02*
X185523809Y-81050154D01*
X185523809Y-81050154D02*
X185333333Y-81145392D01*
X185333333Y-81145392D02*
X185238095Y-81335869D01*
X185238095Y-81335869D02*
X185238095Y-82383488D01*
X183428571Y-82383488D02*
X183428571Y-81335869D01*
X183428571Y-81335869D02*
X183523809Y-81145392D01*
X183523809Y-81145392D02*
X183714285Y-81050154D01*
X183714285Y-81050154D02*
X184095238Y-81050154D01*
X184095238Y-81050154D02*
X184285714Y-81145392D01*
X183428571Y-82288250D02*
X183619047Y-82383488D01*
X183619047Y-82383488D02*
X184095238Y-82383488D01*
X184095238Y-82383488D02*
X184285714Y-82288250D01*
X184285714Y-82288250D02*
X184380952Y-82097773D01*
X184380952Y-82097773D02*
X184380952Y-81907297D01*
X184380952Y-81907297D02*
X184285714Y-81716821D01*
X184285714Y-81716821D02*
X184095238Y-81621583D01*
X184095238Y-81621583D02*
X183619047Y-81621583D01*
X183619047Y-81621583D02*
X183428571Y-81526345D01*
X181619047Y-82383488D02*
X181619047Y-81335869D01*
X181619047Y-81335869D02*
X181714285Y-81145392D01*
X181714285Y-81145392D02*
X181904761Y-81050154D01*
X181904761Y-81050154D02*
X182285714Y-81050154D01*
X182285714Y-81050154D02*
X182476190Y-81145392D01*
X181619047Y-82288250D02*
X181809523Y-82383488D01*
X181809523Y-82383488D02*
X182285714Y-82383488D01*
X182285714Y-82383488D02*
X182476190Y-82288250D01*
X182476190Y-82288250D02*
X182571428Y-82097773D01*
X182571428Y-82097773D02*
X182571428Y-81907297D01*
X182571428Y-81907297D02*
X182476190Y-81716821D01*
X182476190Y-81716821D02*
X182285714Y-81621583D01*
X182285714Y-81621583D02*
X181809523Y-81621583D01*
X181809523Y-81621583D02*
X181619047Y-81526345D01*
X180666666Y-81050154D02*
X180666666Y-82383488D01*
X180666666Y-81240630D02*
X180571428Y-81145392D01*
X180571428Y-81145392D02*
X180380952Y-81050154D01*
X180380952Y-81050154D02*
X180095237Y-81050154D01*
X180095237Y-81050154D02*
X179904761Y-81145392D01*
X179904761Y-81145392D02*
X179809523Y-81335869D01*
X179809523Y-81335869D02*
X179809523Y-82383488D01*
X177428570Y-82288250D02*
X177142856Y-82383488D01*
X177142856Y-82383488D02*
X176666665Y-82383488D01*
X176666665Y-82383488D02*
X176476189Y-82288250D01*
X176476189Y-82288250D02*
X176380951Y-82193011D01*
X176380951Y-82193011D02*
X176285713Y-82002535D01*
X176285713Y-82002535D02*
X176285713Y-81812059D01*
X176285713Y-81812059D02*
X176380951Y-81621583D01*
X176380951Y-81621583D02*
X176476189Y-81526345D01*
X176476189Y-81526345D02*
X176666665Y-81431107D01*
X176666665Y-81431107D02*
X177047618Y-81335869D01*
X177047618Y-81335869D02*
X177238094Y-81240630D01*
X177238094Y-81240630D02*
X177333332Y-81145392D01*
X177333332Y-81145392D02*
X177428570Y-80954916D01*
X177428570Y-80954916D02*
X177428570Y-80764440D01*
X177428570Y-80764440D02*
X177333332Y-80573964D01*
X177333332Y-80573964D02*
X177238094Y-80478726D01*
X177238094Y-80478726D02*
X177047618Y-80383488D01*
X177047618Y-80383488D02*
X176571427Y-80383488D01*
X176571427Y-80383488D02*
X176285713Y-80478726D01*
X175428570Y-82383488D02*
X175428570Y-80383488D01*
X174571427Y-82383488D02*
X174571427Y-81335869D01*
X174571427Y-81335869D02*
X174666665Y-81145392D01*
X174666665Y-81145392D02*
X174857141Y-81050154D01*
X174857141Y-81050154D02*
X175142856Y-81050154D01*
X175142856Y-81050154D02*
X175333332Y-81145392D01*
X175333332Y-81145392D02*
X175428570Y-81240630D01*
X172761903Y-82383488D02*
X172761903Y-81335869D01*
X172761903Y-81335869D02*
X172857141Y-81145392D01*
X172857141Y-81145392D02*
X173047617Y-81050154D01*
X173047617Y-81050154D02*
X173428570Y-81050154D01*
X173428570Y-81050154D02*
X173619046Y-81145392D01*
X172761903Y-82288250D02*
X172952379Y-82383488D01*
X172952379Y-82383488D02*
X173428570Y-82383488D01*
X173428570Y-82383488D02*
X173619046Y-82288250D01*
X173619046Y-82288250D02*
X173714284Y-82097773D01*
X173714284Y-82097773D02*
X173714284Y-81907297D01*
X173714284Y-81907297D02*
X173619046Y-81716821D01*
X173619046Y-81716821D02*
X173428570Y-81621583D01*
X173428570Y-81621583D02*
X172952379Y-81621583D01*
X172952379Y-81621583D02*
X172761903Y-81526345D01*
X171809522Y-82383488D02*
X171809522Y-80383488D01*
X170952379Y-82383488D02*
X170952379Y-81335869D01*
X170952379Y-81335869D02*
X171047617Y-81145392D01*
X171047617Y-81145392D02*
X171238093Y-81050154D01*
X171238093Y-81050154D02*
X171523808Y-81050154D01*
X171523808Y-81050154D02*
X171714284Y-81145392D01*
X171714284Y-81145392D02*
X171809522Y-81240630D01*
X184476190Y-83603376D02*
X185428571Y-83603376D01*
X185428571Y-83603376D02*
X185523809Y-84555757D01*
X185523809Y-84555757D02*
X185428571Y-84460518D01*
X185428571Y-84460518D02*
X185238095Y-84365280D01*
X185238095Y-84365280D02*
X184761904Y-84365280D01*
X184761904Y-84365280D02*
X184571428Y-84460518D01*
X184571428Y-84460518D02*
X184476190Y-84555757D01*
X184476190Y-84555757D02*
X184380952Y-84746233D01*
X184380952Y-84746233D02*
X184380952Y-85222423D01*
X184380952Y-85222423D02*
X184476190Y-85412899D01*
X184476190Y-85412899D02*
X184571428Y-85508138D01*
X184571428Y-85508138D02*
X184761904Y-85603376D01*
X184761904Y-85603376D02*
X185238095Y-85603376D01*
X185238095Y-85603376D02*
X185428571Y-85508138D01*
X185428571Y-85508138D02*
X185523809Y-85412899D01*
X182095238Y-83508138D02*
X183809523Y-86079566D01*
X180380952Y-85603376D02*
X181523809Y-85603376D01*
X180952381Y-85603376D02*
X180952381Y-83603376D01*
X180952381Y-83603376D02*
X181142857Y-83889090D01*
X181142857Y-83889090D02*
X181333333Y-84079566D01*
X181333333Y-84079566D02*
X181523809Y-84174804D01*
X178095238Y-83508138D02*
X179809523Y-86079566D01*
X177523809Y-83793852D02*
X177428571Y-83698614D01*
X177428571Y-83698614D02*
X177238095Y-83603376D01*
X177238095Y-83603376D02*
X176761904Y-83603376D01*
X176761904Y-83603376D02*
X176571428Y-83698614D01*
X176571428Y-83698614D02*
X176476190Y-83793852D01*
X176476190Y-83793852D02*
X176380952Y-83984328D01*
X176380952Y-83984328D02*
X176380952Y-84174804D01*
X176380952Y-84174804D02*
X176476190Y-84460518D01*
X176476190Y-84460518D02*
X177619047Y-85603376D01*
X177619047Y-85603376D02*
X176380952Y-85603376D01*
X174666666Y-83603376D02*
X175047619Y-83603376D01*
X175047619Y-83603376D02*
X175238095Y-83698614D01*
X175238095Y-83698614D02*
X175333333Y-83793852D01*
X175333333Y-83793852D02*
X175523809Y-84079566D01*
X175523809Y-84079566D02*
X175619047Y-84460518D01*
X175619047Y-84460518D02*
X175619047Y-85222423D01*
X175619047Y-85222423D02*
X175523809Y-85412899D01*
X175523809Y-85412899D02*
X175428571Y-85508138D01*
X175428571Y-85508138D02*
X175238095Y-85603376D01*
X175238095Y-85603376D02*
X174857142Y-85603376D01*
X174857142Y-85603376D02*
X174666666Y-85508138D01*
X174666666Y-85508138D02*
X174571428Y-85412899D01*
X174571428Y-85412899D02*
X174476190Y-85222423D01*
X174476190Y-85222423D02*
X174476190Y-84746233D01*
X174476190Y-84746233D02*
X174571428Y-84555757D01*
X174571428Y-84555757D02*
X174666666Y-84460518D01*
X174666666Y-84460518D02*
X174857142Y-84365280D01*
X174857142Y-84365280D02*
X175238095Y-84365280D01*
X175238095Y-84365280D02*
X175428571Y-84460518D01*
X175428571Y-84460518D02*
X175523809Y-84555757D01*
X175523809Y-84555757D02*
X175619047Y-84746233D01*
M02*
