%TF.GenerationSoftware,KiCad,Pcbnew,9.0.7*%
%TF.CreationDate,2026-05-03T10:40:02-05:00*%
%TF.ProjectId,LightningBlinkyBoard,4c696768-746e-4696-9e67-426c696e6b79,rev?*%
%TF.SameCoordinates,Original*%
%TF.FileFunction,Copper,L1,Top*%
%TF.FilePolarity,Positive*%
%FSLAX46Y46*%
G04 Gerber Fmt 4.6, Leading zero omitted, Abs format (unit mm)*
G04 Created by KiCad (PCBNEW 9.0.7) date 2026-05-03 10:40:02*
%MOMM*%
%LPD*%
G01*
G04 APERTURE LIST*
G04 Aperture macros list*
%AMRoundRect*
0 Rectangle with rounded corners*
0 $1 Rounding radius*
0 $2 $3 $4 $5 $6 $7 $8 $9 X,Y pos of 4 corners*
0 Add a 4 corners polygon primitive as box body*
4,1,4,$2,$3,$4,$5,$6,$7,$8,$9,$2,$3,0*
0 Add four circle primitives for the rounded corners*
1,1,$1+$1,$2,$3*
1,1,$1+$1,$4,$5*
1,1,$1+$1,$6,$7*
1,1,$1+$1,$8,$9*
0 Add four rect primitives between the rounded corners*
20,1,$1+$1,$2,$3,$4,$5,0*
20,1,$1+$1,$4,$5,$6,$7,0*
20,1,$1+$1,$6,$7,$8,$9,0*
20,1,$1+$1,$8,$9,$2,$3,0*%
G04 Aperture macros list end*
%TA.AperFunction,ComponentPad*%
%ADD10R,1.800000X1.800000*%
%TD*%
%TA.AperFunction,ComponentPad*%
%ADD11C,1.800000*%
%TD*%
%TA.AperFunction,ComponentPad*%
%ADD12R,1.700000X1.700000*%
%TD*%
%TA.AperFunction,ComponentPad*%
%ADD13C,1.700000*%
%TD*%
%TA.AperFunction,ComponentPad*%
%ADD14RoundRect,0.412500X-0.412500X-0.412500X0.412500X-0.412500X0.412500X0.412500X-0.412500X0.412500X0*%
%TD*%
%TA.AperFunction,ComponentPad*%
%ADD15C,1.650000*%
%TD*%
%TA.AperFunction,ComponentPad*%
%ADD16C,2.000000*%
%TD*%
%TA.AperFunction,ComponentPad*%
%ADD17R,1.295400X1.295400*%
%TD*%
%TA.AperFunction,ComponentPad*%
%ADD18C,1.295400*%
%TD*%
%TA.AperFunction,ComponentPad*%
%ADD19C,1.600000*%
%TD*%
%TA.AperFunction,ComponentPad*%
%ADD20RoundRect,0.250000X-0.550000X-0.550000X0.550000X-0.550000X0.550000X0.550000X-0.550000X0.550000X0*%
%TD*%
%TA.AperFunction,ComponentPad*%
%ADD21RoundRect,0.250000X-0.550000X0.550000X-0.550000X-0.550000X0.550000X-0.550000X0.550000X0.550000X0*%
%TD*%
%TA.AperFunction,ViaPad*%
%ADD22C,0.600000*%
%TD*%
%TA.AperFunction,Conductor*%
%ADD23C,0.200000*%
%TD*%
G04 APERTURE END LIST*
D10*
%TO.P,D7,1,K*%
%TO.N,Net-(D1-K)*%
X185325171Y-92758479D03*
D11*
%TO.P,D7,2,A*%
%TO.N,Net-(D7-A)*%
X187865171Y-92758479D03*
%TD*%
D10*
%TO.P,D8,1,K*%
%TO.N,Net-(D1-K)*%
X191192726Y-83347124D03*
D11*
%TO.P,D8,2,A*%
%TO.N,Net-(D8-A)*%
X193732726Y-83347124D03*
%TD*%
D10*
%TO.P,D5,1,K*%
%TO.N,Net-(D1-K)*%
X164282459Y-94251453D03*
D11*
%TO.P,D5,2,A*%
%TO.N,Net-(D5-A)*%
X166822459Y-94251453D03*
%TD*%
D12*
%TO.P,J2,1,Pin_1*%
%TO.N,GND*%
X227300000Y-103825000D03*
D13*
%TO.P,J2,2,Pin_2*%
%TO.N,+5V*%
X227300000Y-106365000D03*
%TD*%
D10*
%TO.P,D1,1,K*%
%TO.N,Net-(D1-K)*%
X172506363Y-61123562D03*
D11*
%TO.P,D1,2,A*%
%TO.N,Net-(D1-A)*%
X175046363Y-61123562D03*
%TD*%
D14*
%TO.P,RV1,1,1*%
%TO.N,Net-(U1-DISCH)*%
X215660000Y-96500000D03*
D15*
%TO.P,RV1,2,2*%
X218200000Y-96500000D03*
%TO.P,RV1,3,3*%
%TO.N,TR*%
X220740000Y-96500000D03*
%TD*%
D16*
%TO.P,C1,1*%
%TO.N,Net-(U1-CONT)*%
X205000000Y-88900000D03*
%TO.P,C1,2*%
%TO.N,GND*%
X205000000Y-83900000D03*
%TD*%
D10*
%TO.P,D10,1,K*%
%TO.N,Net-(D1-K)*%
X183270267Y-63795671D03*
D11*
%TO.P,D10,2,A*%
%TO.N,Net-(D10-A)*%
X185810267Y-63795671D03*
%TD*%
D17*
%TO.P,U2,1,Q5*%
%TO.N,Net-(D6-A)*%
X225080000Y-69500000D03*
D18*
%TO.P,U2,2,Q1*%
%TO.N,Net-(D2-A)*%
X222540000Y-69500000D03*
%TO.P,U2,3,Q0*%
%TO.N,Net-(D1-A)*%
X220000000Y-69500000D03*
%TO.P,U2,4,Q2*%
%TO.N,Net-(D3-A)*%
X217460000Y-69500000D03*
%TO.P,U2,5,Q6*%
%TO.N,Net-(D7-A)*%
X214920000Y-69500000D03*
%TO.P,U2,6,Q7*%
%TO.N,Net-(D8-A)*%
X212380000Y-69500000D03*
%TO.P,U2,7,Q3*%
%TO.N,Net-(D4-A)*%
X209840000Y-69500000D03*
%TO.P,U2,8,VSS*%
%TO.N,GND*%
X207300000Y-69500000D03*
%TO.P,U2,9,Q8*%
%TO.N,Net-(D9-A)*%
X207300000Y-77120000D03*
%TO.P,U2,10,Q4*%
%TO.N,Net-(D5-A)*%
X209840000Y-77120000D03*
%TO.P,U2,11,Q9*%
%TO.N,Net-(D10-A)*%
X212380000Y-77120000D03*
%TO.P,U2,12,Cout*%
%TO.N,unconnected-(U2-Cout-Pad12)*%
X214920000Y-77120000D03*
%TO.P,U2,13,CKEN*%
%TO.N,GND*%
X217460000Y-77120000D03*
%TO.P,U2,14,CLK*%
%TO.N,OUT*%
X220000000Y-77120000D03*
%TO.P,U2,15,Reset*%
%TO.N,GND*%
X222540000Y-77120000D03*
%TO.P,U2,16,VDD*%
%TO.N,+5V*%
X225080000Y-77120000D03*
%TD*%
D10*
%TO.P,D4,1,K*%
%TO.N,Net-(D1-K)*%
X157144903Y-85762808D03*
D11*
%TO.P,D4,2,A*%
%TO.N,Net-(D4-A)*%
X159684903Y-85762808D03*
%TD*%
D19*
%TO.P,R2,1*%
%TO.N,GND*%
X202900000Y-100010000D03*
%TO.P,R2,2*%
%TO.N,Net-(D1-K)*%
X202900000Y-92390000D03*
%TD*%
D10*
%TO.P,D9,1,K*%
%TO.N,Net-(D1-K)*%
X190407823Y-72284316D03*
D11*
%TO.P,D9,2,A*%
%TO.N,Net-(D9-A)*%
X192947823Y-72284316D03*
%TD*%
D10*
%TO.P,D6,1,K*%
%TO.N,Net-(D1-K)*%
X175046363Y-96923562D03*
D11*
%TO.P,D6,2,A*%
%TO.N,Net-(D6-A)*%
X177586363Y-96923562D03*
%TD*%
D19*
%TO.P,R1,1*%
%TO.N,Net-(U1-DISCH)*%
X207100000Y-100010000D03*
%TO.P,R1,2*%
%TO.N,+5V*%
X207100000Y-92390000D03*
%TD*%
D20*
%TO.P,C2,1*%
%TO.N,TR*%
X224800000Y-85400000D03*
D19*
%TO.P,C2,2*%
%TO.N,GND*%
X226800000Y-85400000D03*
%TD*%
D21*
%TO.P,U1,1,GND*%
%TO.N,GND*%
X220000000Y-83100000D03*
D19*
%TO.P,U1,2,TRIG*%
%TO.N,TR*%
X217460000Y-83100000D03*
%TO.P,U1,3,OUT*%
%TO.N,OUT*%
X214920000Y-83100000D03*
%TO.P,U1,4,~{RST}*%
%TO.N,+5V*%
X212380000Y-83100000D03*
%TO.P,U1,5,CONT*%
%TO.N,Net-(U1-CONT)*%
X212380000Y-90720000D03*
%TO.P,U1,6,THRES*%
%TO.N,TR*%
X214920000Y-90720000D03*
%TO.P,U1,7,DISCH*%
%TO.N,Net-(U1-DISCH)*%
X217460000Y-90720000D03*
%TO.P,U1,8,VCC*%
%TO.N,+5V*%
X220000000Y-90720000D03*
%TD*%
D10*
%TO.P,D2,1,K*%
%TO.N,Net-(D1-K)*%
X162227555Y-65288645D03*
D11*
%TO.P,D2,2,A*%
%TO.N,Net-(D2-A)*%
X164767555Y-65288645D03*
%TD*%
D10*
%TO.P,D3,1,K*%
%TO.N,Net-(D1-K)*%
X156360000Y-74700000D03*
D11*
%TO.P,D3,2,A*%
%TO.N,Net-(D3-A)*%
X158900000Y-74700000D03*
%TD*%
D22*
%TO.N,Net-(D2-A)*%
X218200000Y-61900000D03*
X220300000Y-61900000D03*
%TO.N,Net-(D5-A)*%
X199800000Y-93200000D03*
X205700000Y-81300000D03*
X204300000Y-81300000D03*
%TO.N,Net-(D6-A)*%
X198500000Y-76000000D03*
X198500000Y-79800000D03*
%TO.N,Net-(D7-A)*%
X208900000Y-64900000D03*
X210500000Y-65000000D03*
%TO.N,Net-(D9-A)*%
X204400000Y-72300000D03*
X205700000Y-72300000D03*
%TO.N,Net-(D10-A)*%
X201400000Y-76900000D03*
X199800000Y-76600000D03*
%TO.N,+5V*%
X223900000Y-103000000D03*
X223900000Y-104500000D03*
%TD*%
D23*
%TO.N,GND*%
X227225000Y-103900000D02*
X227300000Y-103825000D01*
X205000000Y-83900000D02*
X206950000Y-81950000D01*
X226300000Y-83100000D02*
X226800000Y-83600000D01*
X206950000Y-81950000D02*
X219950000Y-81950000D01*
X219950000Y-81950000D02*
X220000000Y-82000000D01*
X205000000Y-70000000D02*
X205000000Y-83900000D01*
X205000000Y-70000000D02*
X205500000Y-69500000D01*
X220000000Y-83100000D02*
X220000000Y-82000000D01*
X203800000Y-103900000D02*
X227225000Y-103900000D01*
X222540000Y-79460000D02*
X222540000Y-77120000D01*
X226800000Y-103325000D02*
X227300000Y-103825000D01*
X217460000Y-77120000D02*
X217460000Y-79460000D01*
X202900000Y-103000000D02*
X203800000Y-103900000D01*
X220000000Y-82000000D02*
X222540000Y-79460000D01*
X202900000Y-100010000D02*
X202900000Y-103000000D01*
X205500000Y-69500000D02*
X207300000Y-69500000D01*
X217460000Y-79460000D02*
X219950000Y-81950000D01*
X220000000Y-83100000D02*
X226300000Y-83100000D01*
X226800000Y-85400000D02*
X226800000Y-103325000D01*
X226800000Y-83600000D02*
X226800000Y-85400000D01*
%TO.N,Net-(U1-CONT)*%
X205100000Y-89000000D02*
X205100000Y-94700000D01*
X212380000Y-93420000D02*
X212380000Y-90720000D01*
X211100000Y-94700000D02*
X212380000Y-93420000D01*
X205000000Y-88900000D02*
X205100000Y-89000000D01*
X205100000Y-94700000D02*
X211100000Y-94700000D01*
%TO.N,TR*%
X214920000Y-90720000D02*
X217460000Y-88180000D01*
X214920000Y-90720000D02*
X214960000Y-90720000D01*
X217460000Y-84900000D02*
X217460000Y-83100000D01*
X217460000Y-84900000D02*
X218800000Y-84900000D01*
X218800000Y-84900000D02*
X224300000Y-84900000D01*
X224300000Y-84900000D02*
X224800000Y-85400000D01*
X217460000Y-88180000D02*
X217460000Y-84900000D01*
X218800000Y-94560000D02*
X218800000Y-84900000D01*
X220740000Y-96500000D02*
X218800000Y-94560000D01*
%TO.N,Net-(D1-A)*%
X175046363Y-61123562D02*
X218423562Y-61123562D01*
X218423562Y-61123562D02*
X220000000Y-62700000D01*
X219900000Y-69400000D02*
X220000000Y-69500000D01*
X220000000Y-62700000D02*
X220000000Y-69500000D01*
%TO.N,Net-(D1-K)*%
X192100000Y-92400000D02*
X202890000Y-92400000D01*
X191192726Y-91492726D02*
X192100000Y-92400000D01*
X202890000Y-92400000D02*
X202900000Y-92390000D01*
X191192726Y-83347124D02*
X191192726Y-91492726D01*
%TO.N,Net-(D2-A)*%
X222200000Y-61900000D02*
X222600000Y-62300000D01*
X188600000Y-64200000D02*
X188600000Y-62700000D01*
X220300000Y-61900000D02*
X222200000Y-61900000D01*
X187511355Y-65288645D02*
X188600000Y-64200000D01*
X222600000Y-69440000D02*
X222540000Y-69500000D01*
X164767555Y-65288645D02*
X187511355Y-65288645D01*
X188600000Y-62700000D02*
X189400000Y-61900000D01*
X189400000Y-61900000D02*
X218200000Y-61900000D01*
X222600000Y-62300000D02*
X222600000Y-69440000D01*
%TO.N,Net-(D3-A)*%
X216400000Y-62400000D02*
X189500000Y-62400000D01*
X159800000Y-67600000D02*
X158900000Y-68500000D01*
X189500000Y-62400000D02*
X189300000Y-62600000D01*
X186000000Y-67600000D02*
X159800000Y-67600000D01*
X189300000Y-64300000D02*
X186000000Y-67600000D01*
X158900000Y-68500000D02*
X158900000Y-74700000D01*
X217460000Y-69500000D02*
X217460000Y-63460000D01*
X217460000Y-63460000D02*
X216400000Y-62400000D01*
X189300000Y-62600000D02*
X189300000Y-64300000D01*
%TO.N,Net-(D4-A)*%
X209800000Y-69460000D02*
X209840000Y-69500000D01*
X160500000Y-68800000D02*
X161200000Y-68100000D01*
X161200000Y-68100000D02*
X186900000Y-68100000D01*
X160500000Y-84947711D02*
X160500000Y-68800000D01*
X209200000Y-64300000D02*
X209800000Y-64900000D01*
X209800000Y-64900000D02*
X209800000Y-69460000D01*
X190700000Y-64300000D02*
X209200000Y-64300000D01*
X159684903Y-85762808D02*
X160500000Y-84947711D01*
X186900000Y-68100000D02*
X190700000Y-64300000D01*
%TO.N,Net-(D5-A)*%
X198500000Y-100500000D02*
X199800000Y-99200000D01*
X166822459Y-94251453D02*
X166822459Y-99222459D01*
X209900000Y-77180000D02*
X209840000Y-77120000D01*
X209900000Y-80600000D02*
X209900000Y-77180000D01*
X209200000Y-81300000D02*
X209900000Y-80600000D01*
X166822459Y-94251453D02*
X166800000Y-94273912D01*
X166822459Y-99222459D02*
X168100000Y-100500000D01*
X205700000Y-81300000D02*
X209200000Y-81300000D01*
X168100000Y-100500000D02*
X198500000Y-100500000D01*
X199800000Y-99200000D02*
X199800000Y-93200000D01*
%TO.N,Net-(D6-A)*%
X198500000Y-76000000D02*
X198500000Y-79800000D01*
%TO.N,Net-(D7-A)*%
X214600000Y-69180000D02*
X214920000Y-69500000D01*
X191000000Y-64900000D02*
X208900000Y-64900000D01*
X214100000Y-65000000D02*
X214600000Y-65500000D01*
X214600000Y-65500000D02*
X214600000Y-69180000D01*
X210500000Y-65000000D02*
X214100000Y-65000000D01*
X187865171Y-68034829D02*
X189100000Y-66800000D01*
X187865171Y-92758479D02*
X187865171Y-68034829D01*
X189100000Y-66800000D02*
X191000000Y-64900000D01*
%TO.N,Net-(D9-A)*%
X204384316Y-72284316D02*
X204400000Y-72300000D01*
X192947823Y-72284316D02*
X204384316Y-72284316D01*
X205700000Y-72300000D02*
X205700000Y-75520000D01*
X205700000Y-75520000D02*
X207300000Y-77120000D01*
%TO.N,Net-(D10-A)*%
X201100000Y-76600000D02*
X201400000Y-76900000D01*
X199800000Y-76600000D02*
X201100000Y-76600000D01*
%TO.N,+5V*%
X227165000Y-106500000D02*
X227300000Y-106365000D01*
X224100000Y-106500000D02*
X227165000Y-106500000D01*
X207100000Y-84500000D02*
X208300000Y-83300000D01*
X223900000Y-106300000D02*
X224100000Y-106500000D01*
X228935000Y-106365000D02*
X227300000Y-106365000D01*
X220020000Y-90700000D02*
X220000000Y-90720000D01*
X223900000Y-103000000D02*
X223900000Y-91500000D01*
X208300000Y-83300000D02*
X212180000Y-83300000D01*
X229300000Y-81340000D02*
X229300000Y-106000000D01*
X223100000Y-90700000D02*
X220020000Y-90700000D01*
X223900000Y-91500000D02*
X223100000Y-90700000D01*
X223900000Y-104500000D02*
X223900000Y-106300000D01*
X225080000Y-77120000D02*
X229300000Y-81340000D01*
X212180000Y-83300000D02*
X212380000Y-83100000D01*
X207100000Y-92390000D02*
X207100000Y-84500000D01*
X229300000Y-106000000D02*
X228935000Y-106365000D01*
%TO.N,Net-(U1-DISCH)*%
X218200000Y-91460000D02*
X217460000Y-90720000D01*
X215660000Y-96500000D02*
X218200000Y-96500000D01*
X207100000Y-100010000D02*
X210890000Y-100010000D01*
X215560000Y-96600000D02*
X215660000Y-96500000D01*
X212000000Y-96600000D02*
X215560000Y-96600000D01*
X211500000Y-97100000D02*
X212000000Y-96600000D01*
X210890000Y-100010000D02*
X211500000Y-99400000D01*
X211500000Y-99400000D02*
X211500000Y-97100000D01*
X218200000Y-96500000D02*
X218200000Y-91460000D01*
%TO.N,OUT*%
X214900000Y-83080000D02*
X214920000Y-83100000D01*
%TD*%
%TA.AperFunction,NonConductor*%
G36*
X208001436Y-82570185D02*
G01*
X208047191Y-82622989D01*
X208057135Y-82692147D01*
X208028110Y-82755703D01*
X207996397Y-82781887D01*
X207931287Y-82819477D01*
X207931282Y-82819481D01*
X206712181Y-84038583D01*
X206650858Y-84072068D01*
X206581166Y-84067084D01*
X206525233Y-84025212D01*
X206500816Y-83959748D01*
X206500500Y-83950902D01*
X206500500Y-83781902D01*
X206463553Y-83548635D01*
X206463553Y-83548632D01*
X206422547Y-83422433D01*
X206420553Y-83352593D01*
X206452796Y-83296437D01*
X207162416Y-82586819D01*
X207223739Y-82553334D01*
X207250097Y-82550500D01*
X207934397Y-82550500D01*
X208001436Y-82570185D01*
G37*
%TD.AperFunction*%
%TA.AperFunction,NonConductor*%
G36*
X218706758Y-83837507D02*
G01*
X218738044Y-83887427D01*
X218757856Y-83947215D01*
X218765186Y-83969333D01*
X218765189Y-83969340D01*
X218852198Y-84110404D01*
X218870638Y-84177796D01*
X218849715Y-84244459D01*
X218796073Y-84289229D01*
X218746659Y-84299500D01*
X218399047Y-84299500D01*
X218332008Y-84279815D01*
X218286253Y-84227011D01*
X218276309Y-84157853D01*
X218305334Y-84094297D01*
X218311366Y-84087819D01*
X218381093Y-84018092D01*
X218451966Y-83947219D01*
X218520021Y-83853547D01*
X218575349Y-83810882D01*
X218644963Y-83804902D01*
X218706758Y-83837507D01*
G37*
%TD.AperFunction*%
%TA.AperFunction,NonConductor*%
G36*
X226066942Y-83720185D02*
G01*
X226087584Y-83736819D01*
X226163181Y-83812416D01*
X226196666Y-83873739D01*
X226199500Y-83900097D01*
X226199500Y-84170397D01*
X226197391Y-84177578D01*
X226198642Y-84184958D01*
X226187682Y-84210643D01*
X226179815Y-84237436D01*
X226173476Y-84243935D01*
X226171221Y-84249222D01*
X226157850Y-84259959D01*
X226145136Y-84272997D01*
X226138704Y-84277362D01*
X226118390Y-84287713D01*
X226046505Y-84339939D01*
X226044838Y-84341071D01*
X226013385Y-84351170D01*
X225982279Y-84362269D01*
X225980273Y-84361802D01*
X225978314Y-84362432D01*
X225946393Y-84353923D01*
X225914225Y-84346442D01*
X225912007Y-84344757D01*
X225910802Y-84344436D01*
X225909039Y-84342502D01*
X225887521Y-84326153D01*
X225856362Y-84294994D01*
X225818656Y-84257288D01*
X225689425Y-84177578D01*
X225669336Y-84165187D01*
X225669331Y-84165185D01*
X225657939Y-84161410D01*
X225502797Y-84110001D01*
X225502795Y-84110000D01*
X225400010Y-84099500D01*
X224199998Y-84099500D01*
X224199981Y-84099501D01*
X224097203Y-84110000D01*
X224097200Y-84110001D01*
X223930668Y-84165185D01*
X223930663Y-84165187D01*
X223781342Y-84257289D01*
X223775451Y-84263181D01*
X223714128Y-84296666D01*
X223687770Y-84299500D01*
X221253341Y-84299500D01*
X221186302Y-84279815D01*
X221140547Y-84227011D01*
X221130603Y-84157853D01*
X221147802Y-84110404D01*
X221234810Y-83969340D01*
X221234814Y-83969334D01*
X221289999Y-83802797D01*
X221289999Y-83802793D01*
X221290912Y-83798533D01*
X221324199Y-83737102D01*
X221385414Y-83703419D01*
X221412163Y-83700500D01*
X225999903Y-83700500D01*
X226066942Y-83720185D01*
G37*
%TD.AperFunction*%
%TA.AperFunction,NonConductor*%
G36*
X218152151Y-88465452D02*
G01*
X218192680Y-88522365D01*
X218199500Y-88562923D01*
X218199500Y-89434859D01*
X218179815Y-89501898D01*
X218127011Y-89547653D01*
X218057853Y-89557597D01*
X218019206Y-89545344D01*
X217959226Y-89514782D01*
X217764534Y-89451522D01*
X217589995Y-89423878D01*
X217562352Y-89419500D01*
X217369096Y-89419500D01*
X217302057Y-89399815D01*
X217256302Y-89347011D01*
X217246358Y-89277853D01*
X217275383Y-89214297D01*
X217281415Y-89207819D01*
X217471142Y-89018092D01*
X217818506Y-88670728D01*
X217818511Y-88670724D01*
X217828714Y-88660520D01*
X217828716Y-88660520D01*
X217940520Y-88548716D01*
X217968113Y-88500923D01*
X218018679Y-88452708D01*
X218087286Y-88439484D01*
X218152151Y-88465452D01*
G37*
%TD.AperFunction*%
%TA.AperFunction,NonConductor*%
G36*
X206461920Y-89681627D02*
G01*
X206496278Y-89742466D01*
X206499500Y-89770551D01*
X206499500Y-91160397D01*
X206479815Y-91227436D01*
X206431800Y-91270879D01*
X206418389Y-91277712D01*
X206252786Y-91398028D01*
X206108028Y-91542786D01*
X205987715Y-91708386D01*
X205934985Y-91811874D01*
X205887010Y-91862670D01*
X205819189Y-91879465D01*
X205753054Y-91856927D01*
X205709603Y-91802212D01*
X205700500Y-91755579D01*
X205700500Y-90303115D01*
X205720185Y-90236076D01*
X205768205Y-90192630D01*
X205786433Y-90183343D01*
X205977510Y-90044517D01*
X206144517Y-89877510D01*
X206275183Y-89697664D01*
X206330512Y-89655000D01*
X206400126Y-89649021D01*
X206461920Y-89681627D01*
G37*
%TD.AperFunction*%
%TA.AperFunction,NonConductor*%
G36*
X216261445Y-83643865D02*
G01*
X216300483Y-83688917D01*
X216324891Y-83736819D01*
X216347715Y-83781614D01*
X216468028Y-83947213D01*
X216468034Y-83947219D01*
X216612781Y-84091966D01*
X216778390Y-84212287D01*
X216791793Y-84219116D01*
X216842589Y-84267088D01*
X216859500Y-84329601D01*
X216859500Y-87879902D01*
X216839815Y-87946941D01*
X216823181Y-87967583D01*
X215364842Y-89425921D01*
X215303519Y-89459406D01*
X215238848Y-89456173D01*
X215224534Y-89451522D01*
X215049995Y-89423878D01*
X215022352Y-89419500D01*
X214817648Y-89419500D01*
X214793329Y-89423351D01*
X214615465Y-89451522D01*
X214420776Y-89514781D01*
X214238386Y-89607715D01*
X214072786Y-89728028D01*
X213928028Y-89872786D01*
X213807715Y-90038386D01*
X213760485Y-90131080D01*
X213712510Y-90181876D01*
X213644689Y-90198671D01*
X213578554Y-90176134D01*
X213539515Y-90131080D01*
X213523424Y-90099500D01*
X213492287Y-90038390D01*
X213484556Y-90027749D01*
X213371971Y-89872786D01*
X213227213Y-89728028D01*
X213061613Y-89607715D01*
X213061612Y-89607714D01*
X213061610Y-89607713D01*
X213004653Y-89578691D01*
X212879223Y-89514781D01*
X212684534Y-89451522D01*
X212509995Y-89423878D01*
X212482352Y-89419500D01*
X212277648Y-89419500D01*
X212253329Y-89423351D01*
X212075465Y-89451522D01*
X211880776Y-89514781D01*
X211698386Y-89607715D01*
X211532786Y-89728028D01*
X211388028Y-89872786D01*
X211267715Y-90038386D01*
X211174781Y-90220776D01*
X211111522Y-90415465D01*
X211079500Y-90617648D01*
X211079500Y-90822351D01*
X211111522Y-91024534D01*
X211174781Y-91219223D01*
X211224810Y-91317409D01*
X211248747Y-91364388D01*
X211267715Y-91401613D01*
X211388028Y-91567213D01*
X211388034Y-91567219D01*
X211532781Y-91711966D01*
X211698390Y-91832287D01*
X211711793Y-91839116D01*
X211762589Y-91887088D01*
X211779500Y-91949601D01*
X211779500Y-93119903D01*
X211759815Y-93186942D01*
X211743181Y-93207584D01*
X210887584Y-94063181D01*
X210826261Y-94096666D01*
X210799903Y-94099500D01*
X205824500Y-94099500D01*
X205757461Y-94079815D01*
X205711706Y-94027011D01*
X205700500Y-93975500D01*
X205700500Y-93024420D01*
X205720185Y-92957381D01*
X205772989Y-92911626D01*
X205842147Y-92901682D01*
X205905703Y-92930707D01*
X205934984Y-92968123D01*
X205978556Y-93053638D01*
X205987715Y-93071614D01*
X206108028Y-93237213D01*
X206252786Y-93381971D01*
X206404921Y-93492501D01*
X206418390Y-93502287D01*
X206534607Y-93561503D01*
X206600776Y-93595218D01*
X206600778Y-93595218D01*
X206600781Y-93595220D01*
X206705137Y-93629127D01*
X206795465Y-93658477D01*
X206873534Y-93670842D01*
X206997648Y-93690500D01*
X206997649Y-93690500D01*
X207202351Y-93690500D01*
X207202352Y-93690500D01*
X207404534Y-93658477D01*
X207599219Y-93595220D01*
X207781610Y-93502287D01*
X207876303Y-93433489D01*
X207947213Y-93381971D01*
X207947215Y-93381968D01*
X207947219Y-93381966D01*
X208091966Y-93237219D01*
X208091968Y-93237215D01*
X208091971Y-93237213D01*
X208173860Y-93124500D01*
X208212287Y-93071610D01*
X208305220Y-92889219D01*
X208368477Y-92694534D01*
X208400500Y-92492352D01*
X208400500Y-92287648D01*
X208368477Y-92085466D01*
X208361277Y-92063308D01*
X208332015Y-91973247D01*
X208305220Y-91890781D01*
X208305218Y-91890778D01*
X208305218Y-91890776D01*
X208258710Y-91799500D01*
X208212287Y-91708390D01*
X208199094Y-91690231D01*
X208091971Y-91542786D01*
X207947213Y-91398028D01*
X207781610Y-91277712D01*
X207768200Y-91270879D01*
X207717406Y-91222903D01*
X207700500Y-91160397D01*
X207700500Y-84800097D01*
X207720185Y-84733058D01*
X207736819Y-84712416D01*
X208512416Y-83936819D01*
X208573739Y-83903334D01*
X208600097Y-83900500D01*
X211290967Y-83900500D01*
X211358006Y-83920185D01*
X211385252Y-83943962D01*
X211388035Y-83947220D01*
X211532786Y-84091971D01*
X211670240Y-84191835D01*
X211698390Y-84212287D01*
X211798275Y-84263181D01*
X211880776Y-84305218D01*
X211880778Y-84305218D01*
X211880781Y-84305220D01*
X211955818Y-84329601D01*
X212075465Y-84368477D01*
X212140888Y-84378839D01*
X212277648Y-84400500D01*
X212277649Y-84400500D01*
X212482351Y-84400500D01*
X212482352Y-84400500D01*
X212684534Y-84368477D01*
X212879219Y-84305220D01*
X213061610Y-84212287D01*
X213173102Y-84131284D01*
X213227213Y-84091971D01*
X213227215Y-84091968D01*
X213227219Y-84091966D01*
X213371966Y-83947219D01*
X213371968Y-83947215D01*
X213371971Y-83947213D01*
X213492284Y-83781614D01*
X213492283Y-83781614D01*
X213492287Y-83781610D01*
X213539516Y-83688917D01*
X213587489Y-83638123D01*
X213655310Y-83621328D01*
X213721445Y-83643865D01*
X213760483Y-83688917D01*
X213784891Y-83736819D01*
X213807715Y-83781614D01*
X213928028Y-83947213D01*
X214072786Y-84091971D01*
X214210240Y-84191835D01*
X214238390Y-84212287D01*
X214338275Y-84263181D01*
X214420776Y-84305218D01*
X214420778Y-84305218D01*
X214420781Y-84305220D01*
X214495818Y-84329601D01*
X214615465Y-84368477D01*
X214680888Y-84378839D01*
X214817648Y-84400500D01*
X214817649Y-84400500D01*
X215022351Y-84400500D01*
X215022352Y-84400500D01*
X215224534Y-84368477D01*
X215419219Y-84305220D01*
X215601610Y-84212287D01*
X215713102Y-84131284D01*
X215767213Y-84091971D01*
X215767215Y-84091968D01*
X215767219Y-84091966D01*
X215911966Y-83947219D01*
X215911968Y-83947215D01*
X215911971Y-83947213D01*
X216032284Y-83781614D01*
X216032283Y-83781614D01*
X216032287Y-83781610D01*
X216079516Y-83688917D01*
X216127489Y-83638123D01*
X216195310Y-83621328D01*
X216261445Y-83643865D01*
G37*
%TD.AperFunction*%
%TA.AperFunction,NonConductor*%
G36*
X223442540Y-85520185D02*
G01*
X223488295Y-85572989D01*
X223499501Y-85624500D01*
X223499501Y-86000018D01*
X223510000Y-86102796D01*
X223510001Y-86102799D01*
X223557856Y-86247213D01*
X223565186Y-86269334D01*
X223657288Y-86418656D01*
X223781344Y-86542712D01*
X223930666Y-86634814D01*
X224097203Y-86689999D01*
X224199991Y-86700500D01*
X225400008Y-86700499D01*
X225502797Y-86689999D01*
X225669334Y-86634814D01*
X225818656Y-86542712D01*
X225887524Y-86473843D01*
X225915773Y-86458418D01*
X225943264Y-86441711D01*
X225946234Y-86441785D01*
X225948843Y-86440361D01*
X225980943Y-86442656D01*
X226013112Y-86443464D01*
X226016537Y-86445202D01*
X226018535Y-86445345D01*
X226044838Y-86458927D01*
X226046473Y-86460036D01*
X226118390Y-86512287D01*
X226138714Y-86522642D01*
X226145136Y-86527001D01*
X226162607Y-86548217D01*
X226182589Y-86567088D01*
X226184761Y-86575120D01*
X226189552Y-86580937D01*
X226192049Y-86602059D01*
X226199500Y-86629601D01*
X226199500Y-102475249D01*
X226179815Y-102542288D01*
X226149812Y-102574515D01*
X226092457Y-102617451D01*
X226092451Y-102617457D01*
X226006206Y-102732664D01*
X226006202Y-102732671D01*
X225955908Y-102867517D01*
X225949501Y-102927116D01*
X225949500Y-102927132D01*
X225949500Y-103175500D01*
X225929815Y-103242539D01*
X225877011Y-103288294D01*
X225825500Y-103299500D01*
X224807703Y-103299500D01*
X224740664Y-103279815D01*
X224694909Y-103227011D01*
X224684965Y-103157853D01*
X224686086Y-103151309D01*
X224700499Y-103078846D01*
X224700500Y-103078844D01*
X224700500Y-102921155D01*
X224700499Y-102921153D01*
X224669738Y-102766510D01*
X224669737Y-102766503D01*
X224663425Y-102751265D01*
X224609397Y-102620827D01*
X224609390Y-102620814D01*
X224521398Y-102489125D01*
X224500520Y-102422447D01*
X224500500Y-102420234D01*
X224500500Y-91589059D01*
X224500501Y-91589046D01*
X224500501Y-91420945D01*
X224500501Y-91420943D01*
X224459577Y-91268215D01*
X224431155Y-91218987D01*
X224420492Y-91200518D01*
X224420491Y-91200517D01*
X224380521Y-91131286D01*
X224380520Y-91131284D01*
X224268716Y-91019480D01*
X224268715Y-91019479D01*
X224264385Y-91015149D01*
X224264374Y-91015139D01*
X223587590Y-90338355D01*
X223587588Y-90338352D01*
X223468717Y-90219481D01*
X223468716Y-90219480D01*
X223381904Y-90169360D01*
X223381904Y-90169359D01*
X223381900Y-90169358D01*
X223331785Y-90140423D01*
X223179057Y-90099499D01*
X223020943Y-90099499D01*
X223013347Y-90099499D01*
X223013331Y-90099500D01*
X221219179Y-90099500D01*
X221152140Y-90079815D01*
X221115325Y-90042204D01*
X221115151Y-90042331D01*
X221114293Y-90041150D01*
X221113452Y-90040291D01*
X221112283Y-90038383D01*
X220991971Y-89872786D01*
X220847213Y-89728028D01*
X220681613Y-89607715D01*
X220681612Y-89607714D01*
X220681610Y-89607713D01*
X220624653Y-89578691D01*
X220499223Y-89514781D01*
X220304534Y-89451522D01*
X220129995Y-89423878D01*
X220102352Y-89419500D01*
X219897648Y-89419500D01*
X219857108Y-89425921D01*
X219695464Y-89451523D01*
X219695461Y-89451523D01*
X219562818Y-89494622D01*
X219492977Y-89496617D01*
X219433144Y-89460537D01*
X219402316Y-89397836D01*
X219400500Y-89376691D01*
X219400500Y-85624500D01*
X219420185Y-85557461D01*
X219472989Y-85511706D01*
X219524500Y-85500500D01*
X223375501Y-85500500D01*
X223442540Y-85520185D01*
G37*
%TD.AperFunction*%
%TA.AperFunction,NonConductor*%
G36*
X228634926Y-105027738D02*
G01*
X228684332Y-105077143D01*
X228699500Y-105136571D01*
X228699500Y-105620444D01*
X228679815Y-105687483D01*
X228627011Y-105733238D01*
X228557853Y-105743182D01*
X228494297Y-105714157D01*
X228465016Y-105676740D01*
X228455050Y-105657182D01*
X228330109Y-105485213D01*
X228216569Y-105371673D01*
X228183084Y-105310350D01*
X228188068Y-105240658D01*
X228229940Y-105184725D01*
X228260915Y-105167810D01*
X228392331Y-105118796D01*
X228501189Y-105037305D01*
X228566653Y-105012887D01*
X228634926Y-105027738D01*
G37*
%TD.AperFunction*%
%TA.AperFunction,NonConductor*%
G36*
X225892540Y-104520185D02*
G01*
X225938295Y-104572989D01*
X225949501Y-104624500D01*
X225949501Y-104722876D01*
X225955908Y-104782483D01*
X226006202Y-104917328D01*
X226006206Y-104917335D01*
X226092452Y-105032544D01*
X226092455Y-105032547D01*
X226207664Y-105118793D01*
X226207671Y-105118797D01*
X226339082Y-105167810D01*
X226395016Y-105209681D01*
X226419433Y-105275145D01*
X226404582Y-105343418D01*
X226383431Y-105371673D01*
X226269889Y-105485215D01*
X226144951Y-105657180D01*
X226055980Y-105831795D01*
X226008005Y-105882591D01*
X225945495Y-105899500D01*
X224624500Y-105899500D01*
X224557461Y-105879815D01*
X224511706Y-105827011D01*
X224500500Y-105775500D01*
X224500500Y-105079765D01*
X224520185Y-105012726D01*
X224521398Y-105010874D01*
X224609390Y-104879185D01*
X224609390Y-104879184D01*
X224609394Y-104879179D01*
X224669737Y-104733497D01*
X224674505Y-104709524D01*
X224696231Y-104600308D01*
X224728616Y-104538397D01*
X224789332Y-104503823D01*
X224817848Y-104500500D01*
X225825501Y-104500500D01*
X225892540Y-104520185D01*
G37*
%TD.AperFunction*%
%TA.AperFunction,NonConductor*%
G36*
X229442539Y-49520185D02*
G01*
X229488294Y-49572989D01*
X229499500Y-49624500D01*
X229499500Y-80390903D01*
X229479815Y-80457942D01*
X229427011Y-80503697D01*
X229357853Y-80513641D01*
X229294297Y-80484616D01*
X229287819Y-80478584D01*
X226244353Y-77435118D01*
X226210868Y-77373795D01*
X226209561Y-77328044D01*
X226228200Y-77210365D01*
X226228200Y-77029635D01*
X226199927Y-76851129D01*
X226144078Y-76679244D01*
X226062028Y-76518212D01*
X226050292Y-76502058D01*
X225955803Y-76372003D01*
X225827996Y-76244196D01*
X225681791Y-76137974D01*
X225681790Y-76137973D01*
X225681788Y-76137972D01*
X225520756Y-76055922D01*
X225348871Y-76000073D01*
X225348869Y-76000072D01*
X225348867Y-76000072D01*
X225210842Y-75978211D01*
X225170365Y-75971800D01*
X224989635Y-75971800D01*
X224949158Y-75978211D01*
X224811132Y-76000072D01*
X224639241Y-76055923D01*
X224478208Y-76137974D01*
X224332003Y-76244196D01*
X224204196Y-76372003D01*
X224097974Y-76518208D01*
X224015923Y-76679241D01*
X223960072Y-76851132D01*
X223939844Y-76978846D01*
X223931800Y-77029635D01*
X223931800Y-77210365D01*
X223934000Y-77224254D01*
X223957042Y-77369738D01*
X223960073Y-77388871D01*
X224015922Y-77560756D01*
X224087125Y-77700500D01*
X224097974Y-77721791D01*
X224204196Y-77867996D01*
X224332003Y-77995803D01*
X224468817Y-78095202D01*
X224478212Y-78102028D01*
X224639244Y-78184078D01*
X224811129Y-78239927D01*
X224989635Y-78268200D01*
X224989636Y-78268200D01*
X225170363Y-78268200D01*
X225170365Y-78268200D01*
X225288041Y-78249561D01*
X225357332Y-78258515D01*
X225395118Y-78284353D01*
X228663181Y-81552416D01*
X228696666Y-81613739D01*
X228699500Y-81640097D01*
X228699500Y-102513428D01*
X228679815Y-102580467D01*
X228627011Y-102626222D01*
X228557853Y-102636166D01*
X228501189Y-102612695D01*
X228450187Y-102574515D01*
X228392331Y-102531204D01*
X228392329Y-102531203D01*
X228392328Y-102531202D01*
X228257482Y-102480908D01*
X228257483Y-102480908D01*
X228197883Y-102474501D01*
X228197881Y-102474500D01*
X228197873Y-102474500D01*
X228197865Y-102474500D01*
X227524500Y-102474500D01*
X227457461Y-102454815D01*
X227411706Y-102402011D01*
X227400500Y-102350500D01*
X227400500Y-86629601D01*
X227420185Y-86562562D01*
X227468206Y-86519116D01*
X227481610Y-86512287D01*
X227647219Y-86391966D01*
X227791966Y-86247219D01*
X227791968Y-86247215D01*
X227791971Y-86247213D01*
X227896892Y-86102799D01*
X227912287Y-86081610D01*
X228005220Y-85899219D01*
X228068477Y-85704534D01*
X228100500Y-85502352D01*
X228100500Y-85297648D01*
X228090299Y-85233244D01*
X228068477Y-85095465D01*
X228005218Y-84900776D01*
X227964540Y-84820943D01*
X227912287Y-84718390D01*
X227889069Y-84686433D01*
X227791971Y-84552786D01*
X227647213Y-84408028D01*
X227481610Y-84287712D01*
X227468200Y-84280879D01*
X227417406Y-84232903D01*
X227400500Y-84170397D01*
X227400500Y-83689060D01*
X227400501Y-83689047D01*
X227400501Y-83520944D01*
X227400501Y-83520943D01*
X227359577Y-83368216D01*
X227283764Y-83236902D01*
X227280524Y-83231290D01*
X227280518Y-83231282D01*
X226668717Y-82619481D01*
X226668709Y-82619475D01*
X226549241Y-82550501D01*
X226549238Y-82550500D01*
X226531785Y-82540423D01*
X226379057Y-82499499D01*
X226220943Y-82499499D01*
X226213347Y-82499499D01*
X226213331Y-82499500D01*
X221412163Y-82499500D01*
X221345124Y-82479815D01*
X221299369Y-82427011D01*
X221290911Y-82401459D01*
X221290000Y-82397207D01*
X221289999Y-82397203D01*
X221234814Y-82230666D01*
X221142712Y-82081344D01*
X221042982Y-81981614D01*
X221009497Y-81920291D01*
X221014481Y-81850599D01*
X221042982Y-81806252D01*
X221928420Y-80920814D01*
X222898506Y-79950728D01*
X222898511Y-79950724D01*
X222908714Y-79940520D01*
X222908716Y-79940520D01*
X223020520Y-79828716D01*
X223099577Y-79691784D01*
X223140500Y-79539057D01*
X223140500Y-78166145D01*
X223160185Y-78099106D01*
X223191612Y-78065828D01*
X223288002Y-77995798D01*
X223415798Y-77868002D01*
X223415800Y-77867998D01*
X223415803Y-77867996D01*
X223462385Y-77803879D01*
X223522028Y-77721788D01*
X223604078Y-77560756D01*
X223659927Y-77388871D01*
X223688200Y-77210365D01*
X223688200Y-77029635D01*
X223659927Y-76851129D01*
X223604078Y-76679244D01*
X223522028Y-76518212D01*
X223510292Y-76502058D01*
X223415803Y-76372003D01*
X223287996Y-76244196D01*
X223141791Y-76137974D01*
X223141790Y-76137973D01*
X223141788Y-76137972D01*
X222980756Y-76055922D01*
X222808871Y-76000073D01*
X222808869Y-76000072D01*
X222808867Y-76000072D01*
X222670842Y-75978211D01*
X222630365Y-75971800D01*
X222449635Y-75971800D01*
X222409158Y-75978211D01*
X222271132Y-76000072D01*
X222099241Y-76055923D01*
X221938208Y-76137974D01*
X221792003Y-76244196D01*
X221664196Y-76372003D01*
X221557974Y-76518208D01*
X221475923Y-76679241D01*
X221420072Y-76851132D01*
X221399844Y-76978846D01*
X221391800Y-77029635D01*
X221391800Y-77210365D01*
X221394000Y-77224254D01*
X221417042Y-77369738D01*
X221420073Y-77388871D01*
X221475922Y-77560756D01*
X221547125Y-77700500D01*
X221557974Y-77721791D01*
X221664196Y-77867996D01*
X221664202Y-77868002D01*
X221791998Y-77995798D01*
X221888386Y-78065827D01*
X221931051Y-78121156D01*
X221939500Y-78166145D01*
X221939500Y-79159902D01*
X221919815Y-79226941D01*
X221903181Y-79247583D01*
X220087681Y-81063083D01*
X220026358Y-81096568D01*
X219956666Y-81091584D01*
X219912319Y-81063083D01*
X218096819Y-79247583D01*
X218063334Y-79186260D01*
X218060500Y-79159902D01*
X218060500Y-78166145D01*
X218080185Y-78099106D01*
X218111612Y-78065828D01*
X218208002Y-77995798D01*
X218335798Y-77868002D01*
X218335800Y-77867998D01*
X218335803Y-77867996D01*
X218382385Y-77803879D01*
X218442028Y-77721788D01*
X218524078Y-77560756D01*
X218579927Y-77388871D01*
X218608200Y-77210365D01*
X218608200Y-77029635D01*
X218851800Y-77029635D01*
X218851800Y-77210365D01*
X218854000Y-77224254D01*
X218877042Y-77369738D01*
X218880073Y-77388871D01*
X218935922Y-77560756D01*
X219007125Y-77700500D01*
X219017974Y-77721791D01*
X219124196Y-77867996D01*
X219252003Y-77995803D01*
X219388817Y-78095202D01*
X219398212Y-78102028D01*
X219559244Y-78184078D01*
X219731129Y-78239927D01*
X219909635Y-78268200D01*
X219909636Y-78268200D01*
X220090364Y-78268200D01*
X220090365Y-78268200D01*
X220268871Y-78239927D01*
X220440756Y-78184078D01*
X220601788Y-78102028D01*
X220711617Y-78022233D01*
X220747996Y-77995803D01*
X220747998Y-77995800D01*
X220748002Y-77995798D01*
X220875798Y-77868002D01*
X220875800Y-77867998D01*
X220875803Y-77867996D01*
X220922385Y-77803879D01*
X220982028Y-77721788D01*
X221064078Y-77560756D01*
X221119927Y-77388871D01*
X221148200Y-77210365D01*
X221148200Y-77029635D01*
X221119927Y-76851129D01*
X221064078Y-76679244D01*
X220982028Y-76518212D01*
X220970292Y-76502058D01*
X220875803Y-76372003D01*
X220747996Y-76244196D01*
X220601791Y-76137974D01*
X220601790Y-76137973D01*
X220601788Y-76137972D01*
X220440756Y-76055922D01*
X220268871Y-76000073D01*
X220268869Y-76000072D01*
X220268867Y-76000072D01*
X220130842Y-75978211D01*
X220090365Y-75971800D01*
X219909635Y-75971800D01*
X219869158Y-75978211D01*
X219731132Y-76000072D01*
X219559241Y-76055923D01*
X219398208Y-76137974D01*
X219252003Y-76244196D01*
X219124196Y-76372003D01*
X219017974Y-76518208D01*
X218935923Y-76679241D01*
X218880072Y-76851132D01*
X218859844Y-76978846D01*
X218851800Y-77029635D01*
X218608200Y-77029635D01*
X218579927Y-76851129D01*
X218524078Y-76679244D01*
X218442028Y-76518212D01*
X218430292Y-76502058D01*
X218335803Y-76372003D01*
X218207996Y-76244196D01*
X218061791Y-76137974D01*
X218061790Y-76137973D01*
X218061788Y-76137972D01*
X217900756Y-76055922D01*
X217728871Y-76000073D01*
X217728869Y-76000072D01*
X217728867Y-76000072D01*
X217590842Y-75978211D01*
X217550365Y-75971800D01*
X217369635Y-75971800D01*
X217329158Y-75978211D01*
X217191132Y-76000072D01*
X217019241Y-76055923D01*
X216858208Y-76137974D01*
X216712003Y-76244196D01*
X216584196Y-76372003D01*
X216477974Y-76518208D01*
X216395923Y-76679241D01*
X216340072Y-76851132D01*
X216319844Y-76978846D01*
X216311800Y-77029635D01*
X216311800Y-77210365D01*
X216314000Y-77224254D01*
X216337042Y-77369738D01*
X216340073Y-77388871D01*
X216395922Y-77560756D01*
X216467125Y-77700500D01*
X216477974Y-77721791D01*
X216584196Y-77867996D01*
X216584202Y-77868002D01*
X216711998Y-77995798D01*
X216808386Y-78065827D01*
X216851051Y-78121156D01*
X216859500Y-78166145D01*
X216859500Y-79373330D01*
X216859499Y-79373348D01*
X216859499Y-79539054D01*
X216859498Y-79539054D01*
X216859499Y-79539056D01*
X216859499Y-79539057D01*
X216900423Y-79691785D01*
X216917381Y-79721157D01*
X216917382Y-79721159D01*
X216917383Y-79721159D01*
X216979479Y-79828714D01*
X216979481Y-79828717D01*
X217098349Y-79947585D01*
X217098355Y-79947590D01*
X218288583Y-81137819D01*
X218322068Y-81199142D01*
X218317084Y-81268834D01*
X218275212Y-81324767D01*
X218209748Y-81349184D01*
X218200902Y-81349500D01*
X210299096Y-81349500D01*
X210277850Y-81343261D01*
X210255764Y-81341682D01*
X210244980Y-81333609D01*
X210232057Y-81329815D01*
X210217556Y-81313080D01*
X210199830Y-81299811D01*
X210195122Y-81287190D01*
X210186302Y-81277011D01*
X210183150Y-81255094D01*
X210175412Y-81234347D01*
X210178274Y-81221185D01*
X210176358Y-81207853D01*
X210185556Y-81187711D01*
X210190263Y-81166074D01*
X210203533Y-81148347D01*
X210205383Y-81144297D01*
X210211414Y-81137820D01*
X210211415Y-81137819D01*
X210258505Y-81090728D01*
X210258510Y-81090725D01*
X210268714Y-81080520D01*
X210268716Y-81080520D01*
X210380520Y-80968716D01*
X210459577Y-80831784D01*
X210500500Y-80679057D01*
X210500500Y-78122552D01*
X210520185Y-78055513D01*
X210551614Y-78022234D01*
X210588002Y-77995798D01*
X210715798Y-77868002D01*
X210715800Y-77867998D01*
X210715803Y-77867996D01*
X210762385Y-77803879D01*
X210822028Y-77721788D01*
X210904078Y-77560756D01*
X210959927Y-77388871D01*
X210988200Y-77210365D01*
X210988200Y-77029635D01*
X211231800Y-77029635D01*
X211231800Y-77210365D01*
X211234000Y-77224254D01*
X211257042Y-77369738D01*
X211260073Y-77388871D01*
X211315922Y-77560756D01*
X211387125Y-77700500D01*
X211397974Y-77721791D01*
X211504196Y-77867996D01*
X211632003Y-77995803D01*
X211768817Y-78095202D01*
X211778212Y-78102028D01*
X211939244Y-78184078D01*
X212111129Y-78239927D01*
X212289635Y-78268200D01*
X212289636Y-78268200D01*
X212470364Y-78268200D01*
X212470365Y-78268200D01*
X212648871Y-78239927D01*
X212820756Y-78184078D01*
X212981788Y-78102028D01*
X213091617Y-78022233D01*
X213127996Y-77995803D01*
X213127998Y-77995800D01*
X213128002Y-77995798D01*
X213255798Y-77868002D01*
X213255800Y-77867998D01*
X213255803Y-77867996D01*
X213302385Y-77803879D01*
X213362028Y-77721788D01*
X213444078Y-77560756D01*
X213499927Y-77388871D01*
X213528200Y-77210365D01*
X213528200Y-77029635D01*
X213771800Y-77029635D01*
X213771800Y-77210365D01*
X213774000Y-77224254D01*
X213797042Y-77369738D01*
X213800073Y-77388871D01*
X213855922Y-77560756D01*
X213927125Y-77700500D01*
X213937974Y-77721791D01*
X214044196Y-77867996D01*
X214172003Y-77995803D01*
X214308817Y-78095202D01*
X214318212Y-78102028D01*
X214479244Y-78184078D01*
X214651129Y-78239927D01*
X214829635Y-78268200D01*
X214829636Y-78268200D01*
X215010364Y-78268200D01*
X215010365Y-78268200D01*
X215188871Y-78239927D01*
X215360756Y-78184078D01*
X215521788Y-78102028D01*
X215631617Y-78022233D01*
X215667996Y-77995803D01*
X215667998Y-77995800D01*
X215668002Y-77995798D01*
X215795798Y-77868002D01*
X215795800Y-77867998D01*
X215795803Y-77867996D01*
X215842385Y-77803879D01*
X215902028Y-77721788D01*
X215984078Y-77560756D01*
X216039927Y-77388871D01*
X216068200Y-77210365D01*
X216068200Y-77029635D01*
X216039927Y-76851129D01*
X215984078Y-76679244D01*
X215902028Y-76518212D01*
X215890292Y-76502058D01*
X215795803Y-76372003D01*
X215667996Y-76244196D01*
X215521791Y-76137974D01*
X215521790Y-76137973D01*
X215521788Y-76137972D01*
X215360756Y-76055922D01*
X215188871Y-76000073D01*
X215188869Y-76000072D01*
X215188867Y-76000072D01*
X215050842Y-75978211D01*
X215010365Y-75971800D01*
X214829635Y-75971800D01*
X214789158Y-75978211D01*
X214651132Y-76000072D01*
X214479241Y-76055923D01*
X214318208Y-76137974D01*
X214172003Y-76244196D01*
X214044196Y-76372003D01*
X213937974Y-76518208D01*
X213855923Y-76679241D01*
X213800072Y-76851132D01*
X213779844Y-76978846D01*
X213771800Y-77029635D01*
X213528200Y-77029635D01*
X213499927Y-76851129D01*
X213444078Y-76679244D01*
X213362028Y-76518212D01*
X213350292Y-76502058D01*
X213255803Y-76372003D01*
X213127996Y-76244196D01*
X212981791Y-76137974D01*
X212981790Y-76137973D01*
X212981788Y-76137972D01*
X212820756Y-76055922D01*
X212648871Y-76000073D01*
X212648869Y-76000072D01*
X212648867Y-76000072D01*
X212510842Y-75978211D01*
X212470365Y-75971800D01*
X212289635Y-75971800D01*
X212249158Y-75978211D01*
X212111132Y-76000072D01*
X211939241Y-76055923D01*
X211778208Y-76137974D01*
X211632003Y-76244196D01*
X211504196Y-76372003D01*
X211397974Y-76518208D01*
X211315923Y-76679241D01*
X211260072Y-76851132D01*
X211239844Y-76978846D01*
X211231800Y-77029635D01*
X210988200Y-77029635D01*
X210959927Y-76851129D01*
X210904078Y-76679244D01*
X210822028Y-76518212D01*
X210810292Y-76502058D01*
X210715803Y-76372003D01*
X210587996Y-76244196D01*
X210441791Y-76137974D01*
X210441790Y-76137973D01*
X210441788Y-76137972D01*
X210280756Y-76055922D01*
X210108871Y-76000073D01*
X210108869Y-76000072D01*
X210108867Y-76000072D01*
X209970842Y-75978211D01*
X209930365Y-75971800D01*
X209749635Y-75971800D01*
X209709158Y-75978211D01*
X209571132Y-76000072D01*
X209399241Y-76055923D01*
X209238208Y-76137974D01*
X209092003Y-76244196D01*
X208964196Y-76372003D01*
X208857974Y-76518208D01*
X208775923Y-76679241D01*
X208720072Y-76851132D01*
X208699844Y-76978846D01*
X208691800Y-77029635D01*
X208691800Y-77210365D01*
X208694000Y-77224254D01*
X208717042Y-77369738D01*
X208720073Y-77388871D01*
X208775922Y-77560756D01*
X208847125Y-77700500D01*
X208857974Y-77721791D01*
X208964196Y-77867996D01*
X208964202Y-77868002D01*
X209091998Y-77995798D01*
X209238212Y-78102028D01*
X209238216Y-78102030D01*
X209240298Y-78103306D01*
X209240922Y-78103996D01*
X209242154Y-78104891D01*
X209241965Y-78105149D01*
X209287169Y-78155122D01*
X209299500Y-78209029D01*
X209299500Y-80299903D01*
X209279815Y-80366942D01*
X209263181Y-80387584D01*
X208987584Y-80663181D01*
X208926261Y-80696666D01*
X208899903Y-80699500D01*
X206279766Y-80699500D01*
X206212727Y-80679815D01*
X206210875Y-80678602D01*
X206079185Y-80590609D01*
X206079172Y-80590602D01*
X205933501Y-80530264D01*
X205933489Y-80530261D01*
X205778845Y-80499500D01*
X205778842Y-80499500D01*
X205724500Y-80499500D01*
X205657461Y-80479815D01*
X205611706Y-80427011D01*
X205600500Y-80375500D01*
X205600500Y-76569097D01*
X205620185Y-76502058D01*
X205672989Y-76456303D01*
X205742147Y-76446359D01*
X205805703Y-76475384D01*
X205812175Y-76481411D01*
X205997262Y-76666498D01*
X206135645Y-76804881D01*
X206169130Y-76866204D01*
X206170438Y-76911959D01*
X206151800Y-77029635D01*
X206151800Y-77210365D01*
X206153999Y-77224248D01*
X206177042Y-77369738D01*
X206180073Y-77388871D01*
X206235922Y-77560756D01*
X206307125Y-77700500D01*
X206317974Y-77721791D01*
X206424196Y-77867996D01*
X206552003Y-77995803D01*
X206688817Y-78095202D01*
X206698212Y-78102028D01*
X206859244Y-78184078D01*
X207031129Y-78239927D01*
X207209635Y-78268200D01*
X207209636Y-78268200D01*
X207390364Y-78268200D01*
X207390365Y-78268200D01*
X207568871Y-78239927D01*
X207740756Y-78184078D01*
X207901788Y-78102028D01*
X208011617Y-78022233D01*
X208047996Y-77995803D01*
X208047998Y-77995800D01*
X208048002Y-77995798D01*
X208175798Y-77868002D01*
X208175800Y-77867998D01*
X208175803Y-77867996D01*
X208222385Y-77803879D01*
X208282028Y-77721788D01*
X208364078Y-77560756D01*
X208419927Y-77388871D01*
X208448200Y-77210365D01*
X208448200Y-77029635D01*
X208419927Y-76851129D01*
X208364078Y-76679244D01*
X208282028Y-76518212D01*
X208270292Y-76502058D01*
X208175803Y-76372003D01*
X208047996Y-76244196D01*
X207901791Y-76137974D01*
X207901790Y-76137973D01*
X207901788Y-76137972D01*
X207740756Y-76055922D01*
X207568871Y-76000073D01*
X207568869Y-76000072D01*
X207568867Y-76000072D01*
X207430842Y-75978211D01*
X207390365Y-75971800D01*
X207209635Y-75971800D01*
X207122219Y-75985645D01*
X207091959Y-75990438D01*
X207022665Y-75981482D01*
X206984881Y-75955645D01*
X206336819Y-75307583D01*
X206303334Y-75246260D01*
X206300500Y-75219902D01*
X206300500Y-72879765D01*
X206320185Y-72812726D01*
X206321398Y-72810874D01*
X206409390Y-72679185D01*
X206409390Y-72679184D01*
X206409394Y-72679179D01*
X206469737Y-72533497D01*
X206500500Y-72378842D01*
X206500500Y-72221158D01*
X206500500Y-72221155D01*
X206500499Y-72221153D01*
X206469738Y-72066510D01*
X206469737Y-72066503D01*
X206469735Y-72066498D01*
X206409397Y-71920827D01*
X206409390Y-71920814D01*
X206321789Y-71789711D01*
X206321786Y-71789707D01*
X206210292Y-71678213D01*
X206210288Y-71678210D01*
X206079185Y-71590609D01*
X206079172Y-71590602D01*
X205933501Y-71530264D01*
X205933489Y-71530261D01*
X205778845Y-71499500D01*
X205778842Y-71499500D01*
X205724500Y-71499500D01*
X205657461Y-71479815D01*
X205611706Y-71427011D01*
X205600500Y-71375500D01*
X205600500Y-70300098D01*
X205609144Y-70270660D01*
X205615668Y-70240670D01*
X205619423Y-70235653D01*
X205620185Y-70233059D01*
X205636819Y-70212416D01*
X205712418Y-70136818D01*
X205773742Y-70103334D01*
X205800099Y-70100500D01*
X206253855Y-70100500D01*
X206320894Y-70120185D01*
X206354171Y-70151612D01*
X206413345Y-70233059D01*
X206424202Y-70248002D01*
X206552003Y-70375803D01*
X206688817Y-70475202D01*
X206698212Y-70482028D01*
X206859244Y-70564078D01*
X207031129Y-70619927D01*
X207209635Y-70648200D01*
X207209636Y-70648200D01*
X207390364Y-70648200D01*
X207390365Y-70648200D01*
X207568871Y-70619927D01*
X207740756Y-70564078D01*
X207901788Y-70482028D01*
X207983879Y-70422385D01*
X208047996Y-70375803D01*
X208047998Y-70375800D01*
X208048002Y-70375798D01*
X208175798Y-70248002D01*
X208175800Y-70247998D01*
X208175803Y-70247996D01*
X208222385Y-70183879D01*
X208282028Y-70101788D01*
X208364078Y-69940756D01*
X208419927Y-69768871D01*
X208448200Y-69590365D01*
X208448200Y-69409635D01*
X208445327Y-69391499D01*
X208419927Y-69231132D01*
X208419927Y-69231131D01*
X208419927Y-69231129D01*
X208364078Y-69059244D01*
X208282028Y-68898212D01*
X208244179Y-68846117D01*
X208175803Y-68752003D01*
X208047996Y-68624196D01*
X207901791Y-68517974D01*
X207901790Y-68517973D01*
X207901788Y-68517972D01*
X207740756Y-68435922D01*
X207568871Y-68380073D01*
X207568869Y-68380072D01*
X207568867Y-68380072D01*
X207430823Y-68358208D01*
X207390365Y-68351800D01*
X207209635Y-68351800D01*
X207169177Y-68358208D01*
X207031132Y-68380072D01*
X206945186Y-68407997D01*
X206905345Y-68420943D01*
X206859241Y-68435923D01*
X206698208Y-68517974D01*
X206552003Y-68624196D01*
X206424202Y-68751997D01*
X206390879Y-68797862D01*
X206354172Y-68848386D01*
X206298844Y-68891051D01*
X206253855Y-68899500D01*
X205586670Y-68899500D01*
X205586654Y-68899499D01*
X205579058Y-68899499D01*
X205420943Y-68899499D01*
X205344579Y-68919961D01*
X205268214Y-68940423D01*
X205268209Y-68940426D01*
X205131290Y-69019475D01*
X205131282Y-69019481D01*
X204624217Y-69526546D01*
X204624214Y-69526548D01*
X204624215Y-69526549D01*
X204519477Y-69631287D01*
X204502602Y-69660518D01*
X204502601Y-69660520D01*
X204440423Y-69768215D01*
X204399499Y-69920943D01*
X204399499Y-69920945D01*
X204399499Y-70089046D01*
X204399500Y-70089059D01*
X204399500Y-71382152D01*
X204379815Y-71449191D01*
X204327011Y-71494946D01*
X204299692Y-71503769D01*
X204166508Y-71530261D01*
X204166498Y-71530264D01*
X204020827Y-71590602D01*
X204020814Y-71590609D01*
X203912598Y-71662918D01*
X203845921Y-71683796D01*
X203843707Y-71683816D01*
X194289659Y-71683816D01*
X194222620Y-71664131D01*
X194179175Y-71616112D01*
X194145637Y-71550292D01*
X194016070Y-71371957D01*
X194016066Y-71371952D01*
X193860186Y-71216072D01*
X193860181Y-71216068D01*
X193681848Y-71086503D01*
X193681847Y-71086502D01*
X193681845Y-71086501D01*
X193564614Y-71026768D01*
X193485429Y-70986420D01*
X193485426Y-70986419D01*
X193275775Y-70918301D01*
X193166909Y-70901058D01*
X193058045Y-70883816D01*
X192837601Y-70883816D01*
X192765024Y-70895311D01*
X192619870Y-70918301D01*
X192410219Y-70986419D01*
X192410216Y-70986420D01*
X192213797Y-71086503D01*
X192035464Y-71216068D01*
X192035459Y-71216072D01*
X191985286Y-71266245D01*
X191923963Y-71299729D01*
X191854271Y-71294744D01*
X191798338Y-71252873D01*
X191781424Y-71221896D01*
X191751620Y-71141987D01*
X191751616Y-71141980D01*
X191665370Y-71026771D01*
X191665367Y-71026768D01*
X191550158Y-70940522D01*
X191550151Y-70940518D01*
X191415305Y-70890224D01*
X191415306Y-70890224D01*
X191355706Y-70883817D01*
X191355704Y-70883816D01*
X191355696Y-70883816D01*
X191355687Y-70883816D01*
X189459952Y-70883816D01*
X189459946Y-70883817D01*
X189400339Y-70890224D01*
X189265494Y-70940518D01*
X189265487Y-70940522D01*
X189150278Y-71026768D01*
X189150275Y-71026771D01*
X189064029Y-71141980D01*
X189064025Y-71141987D01*
X189013731Y-71276833D01*
X189007324Y-71336432D01*
X189007323Y-71336451D01*
X189007323Y-73232186D01*
X189007324Y-73232192D01*
X189013731Y-73291799D01*
X189064025Y-73426644D01*
X189064029Y-73426651D01*
X189150275Y-73541860D01*
X189150278Y-73541863D01*
X189265487Y-73628109D01*
X189265494Y-73628113D01*
X189400340Y-73678407D01*
X189400339Y-73678407D01*
X189407267Y-73679151D01*
X189459950Y-73684816D01*
X191355695Y-73684815D01*
X191415306Y-73678407D01*
X191550154Y-73628112D01*
X191665369Y-73541862D01*
X191751619Y-73426647D01*
X191753847Y-73420674D01*
X191781424Y-73346736D01*
X191823294Y-73290802D01*
X191888759Y-73266384D01*
X191957032Y-73281235D01*
X191985287Y-73302387D01*
X192035459Y-73352559D01*
X192035464Y-73352563D01*
X192121840Y-73415318D01*
X192213801Y-73482131D01*
X192340215Y-73546543D01*
X192410216Y-73582211D01*
X192410219Y-73582212D01*
X192515044Y-73616271D01*
X192619872Y-73650331D01*
X192837601Y-73684816D01*
X192837602Y-73684816D01*
X193058044Y-73684816D01*
X193058045Y-73684816D01*
X193275774Y-73650331D01*
X193485429Y-73582211D01*
X193681845Y-73482131D01*
X193860188Y-73352558D01*
X194016065Y-73196681D01*
X194145638Y-73018338D01*
X194179175Y-72952520D01*
X194227149Y-72901725D01*
X194289659Y-72884816D01*
X203801375Y-72884816D01*
X203868414Y-72904501D01*
X203889056Y-72921135D01*
X203889707Y-72921786D01*
X203889711Y-72921789D01*
X204020814Y-73009390D01*
X204020827Y-73009397D01*
X204166498Y-73069735D01*
X204166503Y-73069737D01*
X204276987Y-73091713D01*
X204299691Y-73096230D01*
X204361602Y-73128615D01*
X204396176Y-73189330D01*
X204399500Y-73217847D01*
X204399500Y-80375500D01*
X204379815Y-80442539D01*
X204327011Y-80488294D01*
X204275500Y-80499500D01*
X204221155Y-80499500D01*
X204066510Y-80530261D01*
X204066498Y-80530264D01*
X203920827Y-80590602D01*
X203920814Y-80590609D01*
X203789711Y-80678210D01*
X203789707Y-80678213D01*
X203678213Y-80789707D01*
X203678210Y-80789711D01*
X203590609Y-80920814D01*
X203590602Y-80920827D01*
X203530264Y-81066498D01*
X203530261Y-81066510D01*
X203499500Y-81221153D01*
X203499500Y-81378846D01*
X203530261Y-81533489D01*
X203530264Y-81533501D01*
X203590602Y-81679172D01*
X203590609Y-81679185D01*
X203678210Y-81810288D01*
X203678213Y-81810292D01*
X203789707Y-81921786D01*
X203789711Y-81921789D01*
X203920814Y-82009390D01*
X203920827Y-82009397D01*
X204066498Y-82069735D01*
X204066503Y-82069737D01*
X204200496Y-82096390D01*
X204221153Y-82100499D01*
X204221156Y-82100500D01*
X204275500Y-82100500D01*
X204284185Y-82103050D01*
X204293147Y-82101762D01*
X204317187Y-82112740D01*
X204342539Y-82120185D01*
X204348466Y-82127025D01*
X204356703Y-82130787D01*
X204370992Y-82153021D01*
X204388294Y-82172989D01*
X204390581Y-82183503D01*
X204394477Y-82189565D01*
X204399500Y-82224500D01*
X204399500Y-82445931D01*
X204379815Y-82512970D01*
X204331796Y-82556415D01*
X204213568Y-82616655D01*
X204090206Y-82706284D01*
X204022490Y-82755483D01*
X204022488Y-82755485D01*
X204022487Y-82755485D01*
X203855485Y-82922487D01*
X203855485Y-82922488D01*
X203855483Y-82922490D01*
X203795862Y-83004550D01*
X203716657Y-83113566D01*
X203609433Y-83324003D01*
X203536446Y-83548631D01*
X203499500Y-83781902D01*
X203499500Y-84018097D01*
X203536446Y-84251368D01*
X203609433Y-84475996D01*
X203700641Y-84655000D01*
X203716657Y-84686433D01*
X203855483Y-84877510D01*
X204022490Y-85044517D01*
X204213567Y-85183343D01*
X204295720Y-85225202D01*
X204424003Y-85290566D01*
X204424005Y-85290566D01*
X204424008Y-85290568D01*
X204544412Y-85329689D01*
X204648631Y-85363553D01*
X204881903Y-85400500D01*
X204881908Y-85400500D01*
X205118097Y-85400500D01*
X205351368Y-85363553D01*
X205575992Y-85290568D01*
X205786433Y-85183343D01*
X205977510Y-85044517D01*
X206144517Y-84877510D01*
X206275183Y-84697664D01*
X206330512Y-84655000D01*
X206400126Y-84649021D01*
X206461920Y-84681627D01*
X206496278Y-84742466D01*
X206499500Y-84770551D01*
X206499500Y-88029448D01*
X206479815Y-88096487D01*
X206427011Y-88142242D01*
X206357853Y-88152186D01*
X206294297Y-88123161D01*
X206275182Y-88102334D01*
X206255295Y-88074962D01*
X206144517Y-87922490D01*
X205977510Y-87755483D01*
X205786433Y-87616657D01*
X205575996Y-87509433D01*
X205351368Y-87436446D01*
X205118097Y-87399500D01*
X205118092Y-87399500D01*
X204881908Y-87399500D01*
X204881903Y-87399500D01*
X204648631Y-87436446D01*
X204424003Y-87509433D01*
X204213566Y-87616657D01*
X204104550Y-87695862D01*
X204022490Y-87755483D01*
X204022488Y-87755485D01*
X204022487Y-87755485D01*
X203855485Y-87922487D01*
X203855485Y-87922488D01*
X203855483Y-87922490D01*
X203822721Y-87967583D01*
X203716657Y-88113566D01*
X203609433Y-88324003D01*
X203536446Y-88548631D01*
X203499500Y-88781902D01*
X203499500Y-89018097D01*
X203536446Y-89251368D01*
X203609433Y-89475996D01*
X203697977Y-89649772D01*
X203716657Y-89686433D01*
X203855483Y-89877510D01*
X204022490Y-90044517D01*
X204213567Y-90183343D01*
X204326796Y-90241036D01*
X204428349Y-90292780D01*
X204427734Y-90293986D01*
X204477350Y-90333962D01*
X204499421Y-90400254D01*
X204499500Y-90404692D01*
X204499500Y-94779056D01*
X204540423Y-94931783D01*
X204540426Y-94931790D01*
X204619475Y-95068709D01*
X204619478Y-95068713D01*
X204619480Y-95068716D01*
X204731284Y-95180520D01*
X204731286Y-95180521D01*
X204731290Y-95180524D01*
X204838355Y-95242337D01*
X204868216Y-95259577D01*
X205020943Y-95300500D01*
X211013331Y-95300500D01*
X211013347Y-95300501D01*
X211020943Y-95300501D01*
X211179054Y-95300501D01*
X211179057Y-95300501D01*
X211331785Y-95259577D01*
X211331787Y-95259575D01*
X211331789Y-95259575D01*
X211331790Y-95259574D01*
X211382240Y-95230447D01*
X211382241Y-95230446D01*
X211468716Y-95180520D01*
X211580520Y-95068716D01*
X211580520Y-95068714D01*
X211590724Y-95058511D01*
X211590728Y-95058506D01*
X212738506Y-93910728D01*
X212738511Y-93910724D01*
X212748714Y-93900520D01*
X212748716Y-93900520D01*
X212860520Y-93788716D01*
X212939577Y-93651784D01*
X212980500Y-93499057D01*
X212980500Y-91949601D01*
X213000185Y-91882562D01*
X213048206Y-91839116D01*
X213061610Y-91832287D01*
X213227219Y-91711966D01*
X213371966Y-91567219D01*
X213371968Y-91567215D01*
X213371971Y-91567213D01*
X213481365Y-91416643D01*
X213492287Y-91401610D01*
X213539516Y-91308917D01*
X213587489Y-91258123D01*
X213655310Y-91241328D01*
X213721445Y-91263865D01*
X213760483Y-91308917D01*
X213790692Y-91368204D01*
X213807715Y-91401614D01*
X213928028Y-91567213D01*
X214072786Y-91711971D01*
X214227749Y-91824556D01*
X214238390Y-91832287D01*
X214319499Y-91873614D01*
X214420776Y-91925218D01*
X214420778Y-91925218D01*
X214420781Y-91925220D01*
X214479177Y-91944194D01*
X214615465Y-91988477D01*
X214716557Y-92004488D01*
X214817648Y-92020500D01*
X214817649Y-92020500D01*
X215022351Y-92020500D01*
X215022352Y-92020500D01*
X215224534Y-91988477D01*
X215419219Y-91925220D01*
X215601610Y-91832287D01*
X215696727Y-91763181D01*
X215767213Y-91711971D01*
X215767215Y-91711968D01*
X215767219Y-91711966D01*
X215911966Y-91567219D01*
X215911968Y-91567215D01*
X215911971Y-91567213D01*
X216021365Y-91416643D01*
X216032287Y-91401610D01*
X216079516Y-91308917D01*
X216127489Y-91258123D01*
X216195310Y-91241328D01*
X216261445Y-91263865D01*
X216300483Y-91308917D01*
X216330692Y-91368204D01*
X216347715Y-91401614D01*
X216468028Y-91567213D01*
X216612786Y-91711971D01*
X216767749Y-91824556D01*
X216778390Y-91832287D01*
X216859499Y-91873614D01*
X216960776Y-91925218D01*
X216960778Y-91925218D01*
X216960781Y-91925220D01*
X217019177Y-91944194D01*
X217155465Y-91988477D01*
X217256557Y-92004488D01*
X217357648Y-92020500D01*
X217357649Y-92020500D01*
X217475500Y-92020500D01*
X217542539Y-92040185D01*
X217588294Y-92092989D01*
X217599500Y-92144500D01*
X217599500Y-95242337D01*
X217579815Y-95309376D01*
X217531798Y-95352820D01*
X217505299Y-95366322D01*
X217505290Y-95366327D01*
X217505286Y-95366330D01*
X217336495Y-95488965D01*
X217336493Y-95488967D01*
X217336492Y-95488967D01*
X217188966Y-95636493D01*
X217118883Y-95732954D01*
X217063552Y-95775619D01*
X216993939Y-95781598D01*
X216932144Y-95748992D01*
X216908080Y-95716363D01*
X216842425Y-95587507D01*
X216721645Y-95438354D01*
X216616017Y-95352820D01*
X216572494Y-95317576D01*
X216401492Y-95230446D01*
X216401491Y-95230445D01*
X216401490Y-95230445D01*
X216216109Y-95180772D01*
X216136409Y-95174500D01*
X216136402Y-95174500D01*
X215183598Y-95174500D01*
X215183590Y-95174500D01*
X215103890Y-95180772D01*
X214918509Y-95230445D01*
X214747507Y-95317575D01*
X214598354Y-95438354D01*
X214477575Y-95587507D01*
X214390445Y-95758509D01*
X214350499Y-95907593D01*
X214314134Y-95967254D01*
X214251287Y-95997783D01*
X214230724Y-95999500D01*
X212086670Y-95999500D01*
X212086654Y-95999499D01*
X212079058Y-95999499D01*
X211920943Y-95999499D01*
X211844579Y-96019961D01*
X211768214Y-96040423D01*
X211768209Y-96040426D01*
X211631290Y-96119475D01*
X211631282Y-96119481D01*
X211124217Y-96626546D01*
X211124214Y-96626548D01*
X211124215Y-96626549D01*
X211019480Y-96731284D01*
X210997152Y-96769958D01*
X210940423Y-96868215D01*
X210899499Y-97020943D01*
X210899499Y-97020945D01*
X210899499Y-97189046D01*
X210899500Y-97189059D01*
X210899500Y-99099903D01*
X210879815Y-99166942D01*
X210863181Y-99187584D01*
X210677584Y-99373181D01*
X210616261Y-99406666D01*
X210589903Y-99409500D01*
X208329602Y-99409500D01*
X208262563Y-99389815D01*
X208219117Y-99341795D01*
X208212284Y-99328385D01*
X208091971Y-99162786D01*
X207947213Y-99018028D01*
X207781613Y-98897715D01*
X207781612Y-98897714D01*
X207781610Y-98897713D01*
X207724653Y-98868691D01*
X207599223Y-98804781D01*
X207404534Y-98741522D01*
X207229995Y-98713878D01*
X207202352Y-98709500D01*
X206997648Y-98709500D01*
X206973329Y-98713351D01*
X206795465Y-98741522D01*
X206600776Y-98804781D01*
X206418386Y-98897715D01*
X206252786Y-99018028D01*
X206108028Y-99162786D01*
X205987715Y-99328386D01*
X205894781Y-99510776D01*
X205831522Y-99705465D01*
X205799500Y-99907648D01*
X205799500Y-100112351D01*
X205831522Y-100314534D01*
X205894781Y-100509223D01*
X205987715Y-100691613D01*
X206108028Y-100857213D01*
X206252786Y-101001971D01*
X206388404Y-101100501D01*
X206418390Y-101122287D01*
X206499499Y-101163614D01*
X206600776Y-101215218D01*
X206600778Y-101215218D01*
X206600781Y-101215220D01*
X206675818Y-101239601D01*
X206795465Y-101278477D01*
X206896557Y-101294488D01*
X206997648Y-101310500D01*
X206997649Y-101310500D01*
X207202351Y-101310500D01*
X207202352Y-101310500D01*
X207404534Y-101278477D01*
X207599219Y-101215220D01*
X207781610Y-101122287D01*
X207907754Y-101030639D01*
X207947213Y-101001971D01*
X207947215Y-101001968D01*
X207947219Y-101001966D01*
X208091966Y-100857219D01*
X208091968Y-100857215D01*
X208091971Y-100857213D01*
X208212284Y-100691614D01*
X208212285Y-100691613D01*
X208212287Y-100691610D01*
X208219117Y-100678204D01*
X208267091Y-100627409D01*
X208329602Y-100610500D01*
X210803331Y-100610500D01*
X210803347Y-100610501D01*
X210810943Y-100610501D01*
X210969054Y-100610501D01*
X210969057Y-100610501D01*
X211121785Y-100569577D01*
X211171904Y-100540639D01*
X211258716Y-100490520D01*
X211370520Y-100378716D01*
X211370520Y-100378714D01*
X211380728Y-100368507D01*
X211380730Y-100368504D01*
X211858506Y-99890728D01*
X211858511Y-99890724D01*
X211868714Y-99880520D01*
X211868716Y-99880520D01*
X211980520Y-99768716D01*
X212031440Y-99680520D01*
X212059577Y-99631785D01*
X212100500Y-99479058D01*
X212100500Y-99320943D01*
X212100500Y-97400098D01*
X212109144Y-97370660D01*
X212115668Y-97340670D01*
X212119423Y-97335653D01*
X212120185Y-97333059D01*
X212136819Y-97312416D01*
X212212418Y-97236818D01*
X212273742Y-97203334D01*
X212300099Y-97200500D01*
X214293572Y-97200500D01*
X214360611Y-97220185D01*
X214404057Y-97268205D01*
X214477574Y-97412492D01*
X214598354Y-97561645D01*
X214672930Y-97622034D01*
X214747506Y-97682424D01*
X214918508Y-97769554D01*
X215103889Y-97819227D01*
X215183598Y-97825500D01*
X215183606Y-97825500D01*
X216136394Y-97825500D01*
X216136402Y-97825500D01*
X216216111Y-97819227D01*
X216401492Y-97769554D01*
X216572494Y-97682424D01*
X216721645Y-97561645D01*
X216842424Y-97412494D01*
X216908080Y-97283636D01*
X216956054Y-97232840D01*
X217023875Y-97216045D01*
X217090010Y-97238582D01*
X217118879Y-97267041D01*
X217188965Y-97363505D01*
X217336495Y-97511035D01*
X217505286Y-97633670D01*
X217593116Y-97678421D01*
X217691179Y-97728387D01*
X217691181Y-97728387D01*
X217691184Y-97728389D01*
X217797545Y-97762948D01*
X217889610Y-97792862D01*
X218095676Y-97825500D01*
X218095681Y-97825500D01*
X218304324Y-97825500D01*
X218510389Y-97792862D01*
X218582123Y-97769554D01*
X218708816Y-97728389D01*
X218894714Y-97633670D01*
X219063505Y-97511035D01*
X219211035Y-97363505D01*
X219333670Y-97194714D01*
X219359515Y-97143990D01*
X219407489Y-97093194D01*
X219475310Y-97076398D01*
X219541445Y-97098935D01*
X219580485Y-97143990D01*
X219606328Y-97194712D01*
X219647597Y-97251513D01*
X219728965Y-97363505D01*
X219876495Y-97511035D01*
X220045286Y-97633670D01*
X220133116Y-97678421D01*
X220231179Y-97728387D01*
X220231181Y-97728387D01*
X220231184Y-97728389D01*
X220337545Y-97762948D01*
X220429610Y-97792862D01*
X220635676Y-97825500D01*
X220635681Y-97825500D01*
X220844324Y-97825500D01*
X221050389Y-97792862D01*
X221122123Y-97769554D01*
X221248816Y-97728389D01*
X221434714Y-97633670D01*
X221603505Y-97511035D01*
X221751035Y-97363505D01*
X221873670Y-97194714D01*
X221968389Y-97008816D01*
X222032862Y-96810389D01*
X222065500Y-96604324D01*
X222065500Y-96395675D01*
X222032862Y-96189610D01*
X222000187Y-96089047D01*
X221968389Y-95991184D01*
X221968387Y-95991181D01*
X221968387Y-95991179D01*
X221873669Y-95805285D01*
X221839683Y-95758508D01*
X221751035Y-95636495D01*
X221603505Y-95488965D01*
X221434714Y-95366330D01*
X221408199Y-95352820D01*
X221248820Y-95271612D01*
X221050389Y-95207137D01*
X220844324Y-95174500D01*
X220844319Y-95174500D01*
X220635681Y-95174500D01*
X220635676Y-95174500D01*
X220429610Y-95207138D01*
X220401313Y-95216332D01*
X220331472Y-95218326D01*
X220275316Y-95186081D01*
X219436819Y-94347584D01*
X219403334Y-94286261D01*
X219400500Y-94259903D01*
X219400500Y-92063308D01*
X219420185Y-91996269D01*
X219472989Y-91950514D01*
X219542147Y-91940570D01*
X219562814Y-91945376D01*
X219633530Y-91968352D01*
X219695465Y-91988477D01*
X219796557Y-92004488D01*
X219897648Y-92020500D01*
X219897649Y-92020500D01*
X220102351Y-92020500D01*
X220102352Y-92020500D01*
X220304534Y-91988477D01*
X220499219Y-91925220D01*
X220681610Y-91832287D01*
X220776727Y-91763181D01*
X220847213Y-91711971D01*
X220847215Y-91711968D01*
X220847219Y-91711966D01*
X220991966Y-91567219D01*
X220991968Y-91567215D01*
X220991971Y-91567213D01*
X221101365Y-91416643D01*
X221112287Y-91401610D01*
X221118599Y-91389220D01*
X221129309Y-91368204D01*
X221177284Y-91317409D01*
X221239793Y-91300500D01*
X222799903Y-91300500D01*
X222866942Y-91320185D01*
X222887584Y-91336819D01*
X223263181Y-91712416D01*
X223296666Y-91773739D01*
X223299500Y-91800097D01*
X223299500Y-102420234D01*
X223279815Y-102487273D01*
X223278602Y-102489125D01*
X223190609Y-102620814D01*
X223190602Y-102620827D01*
X223130264Y-102766498D01*
X223130261Y-102766510D01*
X223099500Y-102921153D01*
X223099500Y-103078846D01*
X223113914Y-103151309D01*
X223107687Y-103220900D01*
X223064824Y-103276078D01*
X222998934Y-103299322D01*
X222992297Y-103299500D01*
X204100097Y-103299500D01*
X204033058Y-103279815D01*
X204012416Y-103263181D01*
X203536819Y-102787584D01*
X203503334Y-102726261D01*
X203500500Y-102699903D01*
X203500500Y-101239601D01*
X203520185Y-101172562D01*
X203568206Y-101129116D01*
X203581610Y-101122287D01*
X203747219Y-101001966D01*
X203891966Y-100857219D01*
X203891968Y-100857215D01*
X203891971Y-100857213D01*
X203944732Y-100784590D01*
X204012287Y-100691610D01*
X204105220Y-100509219D01*
X204168477Y-100314534D01*
X204200500Y-100112352D01*
X204200500Y-99907648D01*
X204168477Y-99705466D01*
X204167669Y-99702980D01*
X204131339Y-99591168D01*
X204105220Y-99510781D01*
X204105218Y-99510778D01*
X204105218Y-99510776D01*
X204064969Y-99431784D01*
X204012287Y-99328390D01*
X203976445Y-99279057D01*
X203891971Y-99162786D01*
X203747213Y-99018028D01*
X203581613Y-98897715D01*
X203581612Y-98897714D01*
X203581610Y-98897713D01*
X203524653Y-98868691D01*
X203399223Y-98804781D01*
X203204534Y-98741522D01*
X203029995Y-98713878D01*
X203002352Y-98709500D01*
X202797648Y-98709500D01*
X202773329Y-98713351D01*
X202595465Y-98741522D01*
X202400776Y-98804781D01*
X202218386Y-98897715D01*
X202052786Y-99018028D01*
X201908028Y-99162786D01*
X201787715Y-99328386D01*
X201694781Y-99510776D01*
X201631522Y-99705465D01*
X201599500Y-99907648D01*
X201599500Y-100112351D01*
X201631522Y-100314534D01*
X201694781Y-100509223D01*
X201787715Y-100691613D01*
X201908028Y-100857213D01*
X201908034Y-100857219D01*
X202052781Y-101001966D01*
X202218390Y-101122287D01*
X202231793Y-101129116D01*
X202282589Y-101177088D01*
X202299500Y-101239601D01*
X202299500Y-102913330D01*
X202299499Y-102913348D01*
X202299499Y-103079054D01*
X202299498Y-103079054D01*
X202340424Y-103231789D01*
X202340425Y-103231790D01*
X202359843Y-103265422D01*
X202359844Y-103265423D01*
X202419477Y-103368712D01*
X202419481Y-103368717D01*
X202538349Y-103487585D01*
X202538355Y-103487590D01*
X203315139Y-104264374D01*
X203315149Y-104264385D01*
X203319479Y-104268715D01*
X203319480Y-104268716D01*
X203431284Y-104380520D01*
X203431286Y-104380521D01*
X203431290Y-104380524D01*
X203501667Y-104421156D01*
X203501671Y-104421157D01*
X203501672Y-104421158D01*
X203534943Y-104440367D01*
X203568212Y-104459576D01*
X203568214Y-104459576D01*
X203568215Y-104459577D01*
X203720942Y-104500500D01*
X203720943Y-104500500D01*
X222982152Y-104500500D01*
X223049191Y-104520185D01*
X223094946Y-104572989D01*
X223103769Y-104600308D01*
X223130261Y-104733491D01*
X223130264Y-104733501D01*
X223190602Y-104879172D01*
X223190609Y-104879185D01*
X223278602Y-105010874D01*
X223299480Y-105077551D01*
X223299500Y-105079765D01*
X223299500Y-106213330D01*
X223299499Y-106213348D01*
X223299499Y-106379054D01*
X223299498Y-106379054D01*
X223299499Y-106379057D01*
X223340423Y-106531785D01*
X223340424Y-106531786D01*
X223356468Y-106559577D01*
X223356469Y-106559578D01*
X223419475Y-106668709D01*
X223419481Y-106668717D01*
X223548720Y-106797956D01*
X223548725Y-106797960D01*
X223731284Y-106980520D01*
X223731286Y-106980521D01*
X223731290Y-106980524D01*
X223822538Y-107033205D01*
X223868216Y-107059577D01*
X224020943Y-107100501D01*
X224020945Y-107100501D01*
X224186654Y-107100501D01*
X224186670Y-107100500D01*
X226101881Y-107100500D01*
X226168920Y-107120185D01*
X226202197Y-107151612D01*
X226269892Y-107244786D01*
X226269896Y-107244792D01*
X226420213Y-107395109D01*
X226592179Y-107520048D01*
X226592181Y-107520049D01*
X226592184Y-107520051D01*
X226781588Y-107616557D01*
X226983757Y-107682246D01*
X227193713Y-107715500D01*
X227193714Y-107715500D01*
X227406286Y-107715500D01*
X227406287Y-107715500D01*
X227616243Y-107682246D01*
X227818412Y-107616557D01*
X228007816Y-107520051D01*
X228029789Y-107504086D01*
X228179786Y-107395109D01*
X228179788Y-107395106D01*
X228179792Y-107395104D01*
X228330104Y-107244792D01*
X228330106Y-107244788D01*
X228330109Y-107244786D01*
X228388661Y-107164193D01*
X228455051Y-107072816D01*
X228461797Y-107059577D01*
X228475235Y-107033205D01*
X228523209Y-106982409D01*
X228585719Y-106965500D01*
X228848331Y-106965500D01*
X228848347Y-106965501D01*
X228855943Y-106965501D01*
X229014054Y-106965501D01*
X229014057Y-106965501D01*
X229166785Y-106924577D01*
X229216904Y-106895639D01*
X229303716Y-106845520D01*
X229304843Y-106844392D01*
X229313068Y-106839600D01*
X229339640Y-106833040D01*
X229365178Y-106823166D01*
X229373076Y-106824785D01*
X229380901Y-106822854D01*
X229406802Y-106831701D01*
X229433624Y-106837202D01*
X229439392Y-106842834D01*
X229447020Y-106845440D01*
X229464028Y-106866888D01*
X229483615Y-106886014D01*
X229485791Y-106894335D01*
X229490431Y-106900186D01*
X229492340Y-106919369D01*
X229499500Y-106946736D01*
X229499500Y-108375500D01*
X229479815Y-108442539D01*
X229427011Y-108488294D01*
X229375500Y-108499500D01*
X130624500Y-108499500D01*
X130557461Y-108479815D01*
X130511706Y-108427011D01*
X130500500Y-108375500D01*
X130500500Y-93303588D01*
X162881959Y-93303588D01*
X162881959Y-95199323D01*
X162881960Y-95199329D01*
X162888367Y-95258936D01*
X162938661Y-95393781D01*
X162938665Y-95393788D01*
X163024911Y-95508997D01*
X163024914Y-95509000D01*
X163140123Y-95595246D01*
X163140130Y-95595250D01*
X163274976Y-95645544D01*
X163274975Y-95645544D01*
X163281903Y-95646288D01*
X163334586Y-95651953D01*
X165230331Y-95651952D01*
X165289942Y-95645544D01*
X165424790Y-95595249D01*
X165540005Y-95508999D01*
X165626255Y-95393784D01*
X165653888Y-95319696D01*
X165656060Y-95313873D01*
X165697930Y-95257939D01*
X165763395Y-95233521D01*
X165831668Y-95248372D01*
X165859923Y-95269524D01*
X165910095Y-95319696D01*
X165910100Y-95319700D01*
X166088435Y-95449267D01*
X166154253Y-95482803D01*
X166205050Y-95530777D01*
X166221959Y-95593288D01*
X166221959Y-99135789D01*
X166221958Y-99135807D01*
X166221958Y-99301513D01*
X166221957Y-99301513D01*
X166262882Y-99454244D01*
X166277208Y-99479057D01*
X166277207Y-99479057D01*
X166277208Y-99479058D01*
X166341934Y-99591168D01*
X166341940Y-99591176D01*
X166460808Y-99710044D01*
X166460814Y-99710049D01*
X167615139Y-100864374D01*
X167615149Y-100864385D01*
X167619479Y-100868715D01*
X167619480Y-100868716D01*
X167731284Y-100980520D01*
X167818095Y-101030639D01*
X167818097Y-101030641D01*
X167856151Y-101052611D01*
X167868215Y-101059577D01*
X168020943Y-101100501D01*
X168020946Y-101100501D01*
X168186654Y-101100501D01*
X168186670Y-101100500D01*
X198413331Y-101100500D01*
X198413347Y-101100501D01*
X198420943Y-101100501D01*
X198579054Y-101100501D01*
X198579057Y-101100501D01*
X198731785Y-101059577D01*
X198781904Y-101030639D01*
X198868716Y-100980520D01*
X198980520Y-100868716D01*
X198980520Y-100868714D01*
X198990728Y-100858507D01*
X198990729Y-100858504D01*
X200280520Y-99568716D01*
X200359577Y-99431784D01*
X200400501Y-99279057D01*
X200400501Y-99120942D01*
X200400501Y-99113347D01*
X200400500Y-99113329D01*
X200400500Y-93779765D01*
X200420185Y-93712726D01*
X200421398Y-93710874D01*
X200460882Y-93651783D01*
X200509394Y-93579179D01*
X200569737Y-93433497D01*
X200600500Y-93278842D01*
X200600500Y-93124500D01*
X200620185Y-93057461D01*
X200672989Y-93011706D01*
X200724500Y-93000500D01*
X201675494Y-93000500D01*
X201742533Y-93020185D01*
X201785979Y-93068207D01*
X201787713Y-93071610D01*
X201871506Y-93186942D01*
X201908034Y-93237219D01*
X202052786Y-93381971D01*
X202204921Y-93492501D01*
X202218390Y-93502287D01*
X202334607Y-93561503D01*
X202400776Y-93595218D01*
X202400778Y-93595218D01*
X202400781Y-93595220D01*
X202505137Y-93629127D01*
X202595465Y-93658477D01*
X202673534Y-93670842D01*
X202797648Y-93690500D01*
X202797649Y-93690500D01*
X203002351Y-93690500D01*
X203002352Y-93690500D01*
X203204534Y-93658477D01*
X203399219Y-93595220D01*
X203581610Y-93502287D01*
X203676303Y-93433489D01*
X203747213Y-93381971D01*
X203747215Y-93381968D01*
X203747219Y-93381966D01*
X203891966Y-93237219D01*
X203891968Y-93237215D01*
X203891971Y-93237213D01*
X203973860Y-93124500D01*
X204012287Y-93071610D01*
X204105220Y-92889219D01*
X204168477Y-92694534D01*
X204200500Y-92492352D01*
X204200500Y-92287648D01*
X204168477Y-92085466D01*
X204161277Y-92063308D01*
X204132015Y-91973247D01*
X204105220Y-91890781D01*
X204105218Y-91890778D01*
X204105218Y-91890776D01*
X204058710Y-91799500D01*
X204012287Y-91708390D01*
X203999094Y-91690231D01*
X203891971Y-91542786D01*
X203747213Y-91398028D01*
X203581613Y-91277715D01*
X203581612Y-91277714D01*
X203581610Y-91277713D01*
X203510201Y-91241328D01*
X203399223Y-91184781D01*
X203204534Y-91121522D01*
X203029995Y-91093878D01*
X203002352Y-91089500D01*
X202797648Y-91089500D01*
X202773329Y-91093351D01*
X202595465Y-91121522D01*
X202400776Y-91184781D01*
X202218386Y-91277715D01*
X202052786Y-91398028D01*
X201908028Y-91542786D01*
X201787713Y-91708388D01*
X201775788Y-91731794D01*
X201727814Y-91782590D01*
X201665303Y-91799500D01*
X192400097Y-91799500D01*
X192333058Y-91779815D01*
X192312416Y-91763181D01*
X191829545Y-91280310D01*
X191796060Y-91218987D01*
X191793226Y-91192629D01*
X191793226Y-84871623D01*
X191812911Y-84804584D01*
X191865715Y-84758829D01*
X191917226Y-84747623D01*
X192140597Y-84747623D01*
X192140598Y-84747623D01*
X192200209Y-84741215D01*
X192335057Y-84690920D01*
X192450272Y-84604670D01*
X192536522Y-84489455D01*
X192541542Y-84475996D01*
X192566327Y-84409544D01*
X192608197Y-84353610D01*
X192673662Y-84329192D01*
X192741935Y-84344043D01*
X192770190Y-84365195D01*
X192820362Y-84415367D01*
X192820367Y-84415371D01*
X192922329Y-84489450D01*
X192998704Y-84544939D01*
X193127101Y-84610361D01*
X193195119Y-84645019D01*
X193195122Y-84645020D01*
X193299947Y-84679079D01*
X193404775Y-84713139D01*
X193622504Y-84747624D01*
X193622505Y-84747624D01*
X193842947Y-84747624D01*
X193842948Y-84747624D01*
X194060677Y-84713139D01*
X194270332Y-84645019D01*
X194466748Y-84544939D01*
X194645091Y-84415366D01*
X194800968Y-84259489D01*
X194930541Y-84081146D01*
X195030621Y-83884730D01*
X195098741Y-83675075D01*
X195133226Y-83457346D01*
X195133226Y-83236902D01*
X195098741Y-83019173D01*
X195030621Y-82809518D01*
X195030621Y-82809517D01*
X194974563Y-82699500D01*
X194930541Y-82613102D01*
X194864293Y-82521919D01*
X194800973Y-82434765D01*
X194800969Y-82434760D01*
X194645089Y-82278880D01*
X194645084Y-82278876D01*
X194466751Y-82149311D01*
X194466750Y-82149310D01*
X194466748Y-82149309D01*
X194349517Y-82089576D01*
X194270332Y-82049228D01*
X194270329Y-82049227D01*
X194060678Y-81981109D01*
X193951812Y-81963866D01*
X193842948Y-81946624D01*
X193622504Y-81946624D01*
X193555174Y-81957288D01*
X193404773Y-81981109D01*
X193195122Y-82049227D01*
X193195119Y-82049228D01*
X192998700Y-82149311D01*
X192820367Y-82278876D01*
X192820362Y-82278880D01*
X192770189Y-82329053D01*
X192708866Y-82362537D01*
X192639174Y-82357552D01*
X192583241Y-82315681D01*
X192566327Y-82284704D01*
X192536523Y-82204795D01*
X192536519Y-82204788D01*
X192450273Y-82089579D01*
X192450270Y-82089576D01*
X192335061Y-82003330D01*
X192335054Y-82003326D01*
X192200208Y-81953032D01*
X192200209Y-81953032D01*
X192140609Y-81946625D01*
X192140607Y-81946624D01*
X192140599Y-81946624D01*
X192140590Y-81946624D01*
X190244855Y-81946624D01*
X190244849Y-81946625D01*
X190185242Y-81953032D01*
X190050397Y-82003326D01*
X190050390Y-82003330D01*
X189935181Y-82089576D01*
X189935178Y-82089579D01*
X189848932Y-82204788D01*
X189848928Y-82204795D01*
X189798634Y-82339641D01*
X189792227Y-82399240D01*
X189792226Y-82399259D01*
X189792226Y-84294994D01*
X189792227Y-84295000D01*
X189798634Y-84354607D01*
X189848928Y-84489452D01*
X189848932Y-84489459D01*
X189935178Y-84604668D01*
X189935181Y-84604671D01*
X190050390Y-84690917D01*
X190050397Y-84690921D01*
X190060154Y-84694560D01*
X190185243Y-84741215D01*
X190244853Y-84747624D01*
X190468226Y-84747623D01*
X190535265Y-84767307D01*
X190581020Y-84820111D01*
X190592226Y-84871623D01*
X190592226Y-91406056D01*
X190592225Y-91406074D01*
X190592225Y-91571780D01*
X190592224Y-91571780D01*
X190633149Y-91724511D01*
X190662084Y-91774626D01*
X190662085Y-91774630D01*
X190662086Y-91774630D01*
X190683588Y-91811874D01*
X190712205Y-91861440D01*
X190712207Y-91861443D01*
X190831075Y-91980311D01*
X190831081Y-91980316D01*
X191615139Y-92764374D01*
X191615149Y-92764385D01*
X191619479Y-92768715D01*
X191619480Y-92768716D01*
X191731284Y-92880520D01*
X191785163Y-92911626D01*
X191818095Y-92930639D01*
X191818097Y-92930641D01*
X191868213Y-92959576D01*
X191868215Y-92959577D01*
X192020942Y-93000500D01*
X192020943Y-93000500D01*
X198875500Y-93000500D01*
X198942539Y-93020185D01*
X198988294Y-93072989D01*
X198999500Y-93124500D01*
X198999500Y-93278846D01*
X199030261Y-93433489D01*
X199030264Y-93433501D01*
X199090602Y-93579172D01*
X199090609Y-93579185D01*
X199178602Y-93710874D01*
X199199480Y-93777551D01*
X199199500Y-93779765D01*
X199199500Y-98899902D01*
X199179815Y-98966941D01*
X199163181Y-98987583D01*
X198287584Y-99863181D01*
X198226261Y-99896666D01*
X198199903Y-99899500D01*
X168400097Y-99899500D01*
X168333058Y-99879815D01*
X168312416Y-99863181D01*
X167459278Y-99010043D01*
X167425793Y-98948720D01*
X167422959Y-98922362D01*
X167422959Y-95975697D01*
X173645863Y-95975697D01*
X173645863Y-97871432D01*
X173645864Y-97871438D01*
X173652271Y-97931045D01*
X173702565Y-98065890D01*
X173702569Y-98065897D01*
X173788815Y-98181106D01*
X173788818Y-98181109D01*
X173904027Y-98267355D01*
X173904034Y-98267359D01*
X174038880Y-98317653D01*
X174038879Y-98317653D01*
X174045807Y-98318397D01*
X174098490Y-98324062D01*
X175994235Y-98324061D01*
X176053846Y-98317653D01*
X176188694Y-98267358D01*
X176303909Y-98181108D01*
X176390159Y-98065893D01*
X176417792Y-97991805D01*
X176419964Y-97985982D01*
X176461834Y-97930048D01*
X176527299Y-97905630D01*
X176595572Y-97920481D01*
X176623827Y-97941633D01*
X176673999Y-97991805D01*
X176674004Y-97991809D01*
X176775966Y-98065888D01*
X176852341Y-98121377D01*
X176980738Y-98186799D01*
X177048756Y-98221457D01*
X177048759Y-98221458D01*
X177153584Y-98255517D01*
X177258412Y-98289577D01*
X177476141Y-98324062D01*
X177476142Y-98324062D01*
X177696584Y-98324062D01*
X177696585Y-98324062D01*
X177914314Y-98289577D01*
X178123969Y-98221457D01*
X178320385Y-98121377D01*
X178498728Y-97991804D01*
X178654605Y-97835927D01*
X178784178Y-97657584D01*
X178884258Y-97461168D01*
X178952378Y-97251513D01*
X178986863Y-97033784D01*
X178986863Y-96813340D01*
X178952378Y-96595611D01*
X178884258Y-96385956D01*
X178884258Y-96385955D01*
X178849600Y-96317937D01*
X178784178Y-96189540D01*
X178767623Y-96166754D01*
X178654610Y-96011203D01*
X178654606Y-96011198D01*
X178498726Y-95855318D01*
X178498721Y-95855314D01*
X178320388Y-95725749D01*
X178320387Y-95725748D01*
X178320385Y-95725747D01*
X178203154Y-95666014D01*
X178123969Y-95625666D01*
X178123966Y-95625665D01*
X177914315Y-95557547D01*
X177745295Y-95530777D01*
X177696585Y-95523062D01*
X177476141Y-95523062D01*
X177427431Y-95530777D01*
X177258410Y-95557547D01*
X177048759Y-95625665D01*
X177048756Y-95625666D01*
X176852337Y-95725749D01*
X176674004Y-95855314D01*
X176673999Y-95855318D01*
X176623826Y-95905491D01*
X176562503Y-95938975D01*
X176492811Y-95933990D01*
X176436878Y-95892119D01*
X176419964Y-95861142D01*
X176390160Y-95781233D01*
X176390156Y-95781226D01*
X176303910Y-95666017D01*
X176303907Y-95666014D01*
X176188698Y-95579768D01*
X176188691Y-95579764D01*
X176053845Y-95529470D01*
X176053846Y-95529470D01*
X175994246Y-95523063D01*
X175994244Y-95523062D01*
X175994236Y-95523062D01*
X175994227Y-95523062D01*
X174098492Y-95523062D01*
X174098486Y-95523063D01*
X174038879Y-95529470D01*
X173904034Y-95579764D01*
X173904027Y-95579768D01*
X173788818Y-95666014D01*
X173788815Y-95666017D01*
X173702569Y-95781226D01*
X173702565Y-95781233D01*
X173652271Y-95916079D01*
X173645864Y-95975678D01*
X173645863Y-95975697D01*
X167422959Y-95975697D01*
X167422959Y-95593288D01*
X167442644Y-95526249D01*
X167490665Y-95482803D01*
X167491006Y-95482628D01*
X167556481Y-95449268D01*
X167734824Y-95319695D01*
X167890701Y-95163818D01*
X168020274Y-94985475D01*
X168120354Y-94789059D01*
X168188474Y-94579404D01*
X168222959Y-94361675D01*
X168222959Y-94141231D01*
X168188474Y-93923502D01*
X168141772Y-93779765D01*
X168120355Y-93713849D01*
X168120354Y-93713846D01*
X168059910Y-93595220D01*
X168020274Y-93517431D01*
X167959287Y-93433489D01*
X167890706Y-93339094D01*
X167890702Y-93339089D01*
X167734822Y-93183209D01*
X167734817Y-93183205D01*
X167556484Y-93053640D01*
X167556483Y-93053639D01*
X167556481Y-93053638D01*
X167493555Y-93021575D01*
X167360065Y-92953557D01*
X167360062Y-92953556D01*
X167150411Y-92885438D01*
X167041545Y-92868195D01*
X166932681Y-92850953D01*
X166712237Y-92850953D01*
X166639660Y-92862448D01*
X166494506Y-92885438D01*
X166284855Y-92953556D01*
X166284852Y-92953557D01*
X166088433Y-93053640D01*
X165910100Y-93183205D01*
X165910095Y-93183209D01*
X165859922Y-93233382D01*
X165798599Y-93266866D01*
X165728907Y-93261881D01*
X165672974Y-93220010D01*
X165656060Y-93189033D01*
X165626256Y-93109124D01*
X165626252Y-93109117D01*
X165540006Y-92993908D01*
X165540003Y-92993905D01*
X165424794Y-92907659D01*
X165424787Y-92907655D01*
X165289941Y-92857361D01*
X165289942Y-92857361D01*
X165230342Y-92850954D01*
X165230340Y-92850953D01*
X165230332Y-92850953D01*
X165230323Y-92850953D01*
X163334588Y-92850953D01*
X163334582Y-92850954D01*
X163274975Y-92857361D01*
X163140130Y-92907655D01*
X163140123Y-92907659D01*
X163024914Y-92993905D01*
X163024911Y-92993908D01*
X162938665Y-93109117D01*
X162938661Y-93109124D01*
X162888367Y-93243970D01*
X162881960Y-93303569D01*
X162881959Y-93303588D01*
X130500500Y-93303588D01*
X130500500Y-73752135D01*
X154959500Y-73752135D01*
X154959500Y-75647870D01*
X154959501Y-75647876D01*
X154965908Y-75707483D01*
X155016202Y-75842328D01*
X155016206Y-75842335D01*
X155102452Y-75957544D01*
X155102455Y-75957547D01*
X155217664Y-76043793D01*
X155217671Y-76043797D01*
X155352517Y-76094091D01*
X155352516Y-76094091D01*
X155359444Y-76094835D01*
X155412127Y-76100500D01*
X157307872Y-76100499D01*
X157367483Y-76094091D01*
X157502331Y-76043796D01*
X157617546Y-75957546D01*
X157703796Y-75842331D01*
X157731429Y-75768243D01*
X157733601Y-75762420D01*
X157775471Y-75706486D01*
X157840936Y-75682068D01*
X157909209Y-75696919D01*
X157937464Y-75718071D01*
X157987636Y-75768243D01*
X157987641Y-75768247D01*
X158143047Y-75881155D01*
X158165978Y-75897815D01*
X158294375Y-75963237D01*
X158362393Y-75997895D01*
X158362396Y-75997896D01*
X158467221Y-76031955D01*
X158572049Y-76066015D01*
X158789778Y-76100500D01*
X158789779Y-76100500D01*
X159010221Y-76100500D01*
X159010222Y-76100500D01*
X159227951Y-76066015D01*
X159437606Y-75997895D01*
X159634022Y-75897815D01*
X159678887Y-75865218D01*
X159702615Y-75847980D01*
X159768421Y-75824500D01*
X159836475Y-75840326D01*
X159885170Y-75890431D01*
X159899500Y-75948298D01*
X159899500Y-84238308D01*
X159879815Y-84305347D01*
X159827011Y-84351102D01*
X159775500Y-84362308D01*
X159574681Y-84362308D01*
X159502104Y-84373803D01*
X159356950Y-84396793D01*
X159147299Y-84464911D01*
X159147296Y-84464912D01*
X158950877Y-84564995D01*
X158772544Y-84694560D01*
X158772539Y-84694564D01*
X158722366Y-84744737D01*
X158661043Y-84778221D01*
X158591351Y-84773236D01*
X158535418Y-84731365D01*
X158518504Y-84700388D01*
X158488700Y-84620479D01*
X158488696Y-84620472D01*
X158402450Y-84505263D01*
X158402447Y-84505260D01*
X158287238Y-84419014D01*
X158287231Y-84419010D01*
X158152385Y-84368716D01*
X158152386Y-84368716D01*
X158092786Y-84362309D01*
X158092784Y-84362308D01*
X158092776Y-84362308D01*
X158092767Y-84362308D01*
X156197032Y-84362308D01*
X156197026Y-84362309D01*
X156137419Y-84368716D01*
X156002574Y-84419010D01*
X156002567Y-84419014D01*
X155887358Y-84505260D01*
X155887355Y-84505263D01*
X155801109Y-84620472D01*
X155801105Y-84620479D01*
X155750811Y-84755325D01*
X155744404Y-84814924D01*
X155744403Y-84814943D01*
X155744403Y-86710678D01*
X155744404Y-86710684D01*
X155750811Y-86770291D01*
X155801105Y-86905136D01*
X155801109Y-86905143D01*
X155887355Y-87020352D01*
X155887358Y-87020355D01*
X156002567Y-87106601D01*
X156002574Y-87106605D01*
X156137420Y-87156899D01*
X156137419Y-87156899D01*
X156144347Y-87157643D01*
X156197030Y-87163308D01*
X158092775Y-87163307D01*
X158152386Y-87156899D01*
X158287234Y-87106604D01*
X158402449Y-87020354D01*
X158488699Y-86905139D01*
X158516332Y-86831051D01*
X158518504Y-86825228D01*
X158560374Y-86769294D01*
X158625839Y-86744876D01*
X158694112Y-86759727D01*
X158722367Y-86780879D01*
X158772539Y-86831051D01*
X158772544Y-86831055D01*
X158874506Y-86905134D01*
X158950881Y-86960623D01*
X159079278Y-87026045D01*
X159147296Y-87060703D01*
X159147299Y-87060704D01*
X159252124Y-87094763D01*
X159356952Y-87128823D01*
X159574681Y-87163308D01*
X159574682Y-87163308D01*
X159795124Y-87163308D01*
X159795125Y-87163308D01*
X160012854Y-87128823D01*
X160222509Y-87060703D01*
X160418925Y-86960623D01*
X160597268Y-86831050D01*
X160753145Y-86675173D01*
X160882718Y-86496830D01*
X160982798Y-86300414D01*
X161050918Y-86090759D01*
X161085403Y-85873030D01*
X161085403Y-85652586D01*
X161050918Y-85434857D01*
X161018004Y-85333556D01*
X161017038Y-85299772D01*
X161015429Y-85266010D01*
X161016031Y-85264504D01*
X161016009Y-85263715D01*
X161028541Y-85233249D01*
X161033188Y-85225202D01*
X161059577Y-85179496D01*
X161100500Y-85026769D01*
X161100500Y-84868654D01*
X161100500Y-69100097D01*
X161120185Y-69033058D01*
X161136819Y-69012416D01*
X161412416Y-68736819D01*
X161473739Y-68703334D01*
X161500097Y-68700500D01*
X186813331Y-68700500D01*
X186813347Y-68700501D01*
X186820943Y-68700501D01*
X186979054Y-68700501D01*
X186979057Y-68700501D01*
X187108579Y-68665795D01*
X187178427Y-68667458D01*
X187236290Y-68706620D01*
X187263794Y-68770848D01*
X187264671Y-68785570D01*
X187264671Y-91416643D01*
X187244986Y-91483682D01*
X187196967Y-91527127D01*
X187131147Y-91560664D01*
X186952812Y-91690231D01*
X186952807Y-91690235D01*
X186902634Y-91740408D01*
X186841311Y-91773892D01*
X186771619Y-91768907D01*
X186715686Y-91727036D01*
X186698772Y-91696059D01*
X186668968Y-91616150D01*
X186668964Y-91616143D01*
X186582718Y-91500934D01*
X186582715Y-91500931D01*
X186467506Y-91414685D01*
X186467499Y-91414681D01*
X186332653Y-91364387D01*
X186332654Y-91364387D01*
X186273054Y-91357980D01*
X186273052Y-91357979D01*
X186273044Y-91357979D01*
X186273035Y-91357979D01*
X184377300Y-91357979D01*
X184377294Y-91357980D01*
X184317687Y-91364387D01*
X184182842Y-91414681D01*
X184182835Y-91414685D01*
X184067626Y-91500931D01*
X184067623Y-91500934D01*
X183981377Y-91616143D01*
X183981373Y-91616150D01*
X183931079Y-91750996D01*
X183924672Y-91810595D01*
X183924671Y-91810614D01*
X183924671Y-93706349D01*
X183924672Y-93706355D01*
X183931079Y-93765962D01*
X183981373Y-93900807D01*
X183981377Y-93900814D01*
X184067623Y-94016023D01*
X184067626Y-94016026D01*
X184182835Y-94102272D01*
X184182842Y-94102276D01*
X184317688Y-94152570D01*
X184317687Y-94152570D01*
X184324615Y-94153314D01*
X184377298Y-94158979D01*
X186273043Y-94158978D01*
X186332654Y-94152570D01*
X186467502Y-94102275D01*
X186582717Y-94016025D01*
X186668967Y-93900810D01*
X186696600Y-93826722D01*
X186698772Y-93820899D01*
X186740642Y-93764965D01*
X186806107Y-93740547D01*
X186874380Y-93755398D01*
X186902635Y-93776550D01*
X186952807Y-93826722D01*
X186952812Y-93826726D01*
X187054774Y-93900805D01*
X187131149Y-93956294D01*
X187259546Y-94021716D01*
X187327564Y-94056374D01*
X187327567Y-94056375D01*
X187399710Y-94079815D01*
X187537220Y-94124494D01*
X187754949Y-94158979D01*
X187754950Y-94158979D01*
X187975392Y-94158979D01*
X187975393Y-94158979D01*
X188193122Y-94124494D01*
X188402777Y-94056374D01*
X188599193Y-93956294D01*
X188777536Y-93826721D01*
X188933413Y-93670844D01*
X189062986Y-93492501D01*
X189163066Y-93296085D01*
X189231186Y-93086430D01*
X189265671Y-92868701D01*
X189265671Y-92648257D01*
X189231186Y-92430528D01*
X189163066Y-92220873D01*
X189163066Y-92220872D01*
X189097905Y-92092989D01*
X189062986Y-92024457D01*
X189008600Y-91949601D01*
X188933418Y-91846120D01*
X188933414Y-91846115D01*
X188777534Y-91690235D01*
X188777529Y-91690231D01*
X188599194Y-91560664D01*
X188533375Y-91527127D01*
X188482580Y-91479153D01*
X188465671Y-91416643D01*
X188465671Y-75921153D01*
X197699500Y-75921153D01*
X197699500Y-76078846D01*
X197730261Y-76233489D01*
X197730264Y-76233501D01*
X197790602Y-76379172D01*
X197790609Y-76379185D01*
X197878602Y-76510874D01*
X197899480Y-76577551D01*
X197899500Y-76579765D01*
X197899500Y-79220234D01*
X197879815Y-79287273D01*
X197878602Y-79289125D01*
X197790609Y-79420814D01*
X197790602Y-79420827D01*
X197730264Y-79566498D01*
X197730261Y-79566510D01*
X197699500Y-79721153D01*
X197699500Y-79878846D01*
X197730261Y-80033489D01*
X197730264Y-80033501D01*
X197790602Y-80179172D01*
X197790609Y-80179185D01*
X197878210Y-80310288D01*
X197878213Y-80310292D01*
X197989707Y-80421786D01*
X197989711Y-80421789D01*
X198120814Y-80509390D01*
X198120827Y-80509397D01*
X198266498Y-80569735D01*
X198266503Y-80569737D01*
X198421153Y-80600499D01*
X198421156Y-80600500D01*
X198421158Y-80600500D01*
X198578844Y-80600500D01*
X198578845Y-80600499D01*
X198733497Y-80569737D01*
X198879179Y-80509394D01*
X199010289Y-80421789D01*
X199121789Y-80310289D01*
X199209394Y-80179179D01*
X199269737Y-80033497D01*
X199300500Y-79878842D01*
X199300500Y-79721158D01*
X199300500Y-79721154D01*
X199300499Y-79721153D01*
X199269738Y-79566510D01*
X199269737Y-79566503D01*
X199258367Y-79539054D01*
X199209397Y-79420827D01*
X199209390Y-79420814D01*
X199121398Y-79289125D01*
X199100520Y-79222447D01*
X199100500Y-79220234D01*
X199100500Y-77327350D01*
X199120185Y-77260311D01*
X199172989Y-77214556D01*
X199242147Y-77204612D01*
X199293391Y-77224248D01*
X199420814Y-77309390D01*
X199420827Y-77309397D01*
X199566498Y-77369735D01*
X199566503Y-77369737D01*
X199721153Y-77400499D01*
X199721156Y-77400500D01*
X199721158Y-77400500D01*
X199878844Y-77400500D01*
X199878845Y-77400499D01*
X200033497Y-77369737D01*
X200179179Y-77309394D01*
X200224390Y-77279185D01*
X200310875Y-77221398D01*
X200328921Y-77215747D01*
X200344831Y-77205523D01*
X200375792Y-77201071D01*
X200377553Y-77200520D01*
X200379766Y-77200500D01*
X200575162Y-77200500D01*
X200642201Y-77220185D01*
X200687956Y-77272989D01*
X200689715Y-77277029D01*
X200690606Y-77279179D01*
X200690607Y-77279180D01*
X200690609Y-77279185D01*
X200778210Y-77410288D01*
X200778213Y-77410292D01*
X200889707Y-77521786D01*
X200889711Y-77521789D01*
X201020814Y-77609390D01*
X201020827Y-77609397D01*
X201166498Y-77669735D01*
X201166503Y-77669737D01*
X201321153Y-77700499D01*
X201321156Y-77700500D01*
X201321158Y-77700500D01*
X201478844Y-77700500D01*
X201478845Y-77700499D01*
X201633497Y-77669737D01*
X201779179Y-77609394D01*
X201910289Y-77521789D01*
X202021789Y-77410289D01*
X202109394Y-77279179D01*
X202110276Y-77277051D01*
X202123067Y-77246166D01*
X202169737Y-77133497D01*
X202200500Y-76978842D01*
X202200500Y-76821158D01*
X202200500Y-76821155D01*
X202200499Y-76821153D01*
X202172271Y-76679244D01*
X202169737Y-76666503D01*
X202169735Y-76666498D01*
X202109397Y-76520827D01*
X202109390Y-76520814D01*
X202021789Y-76389711D01*
X202021786Y-76389707D01*
X201910292Y-76278213D01*
X201910288Y-76278210D01*
X201779185Y-76190609D01*
X201779172Y-76190602D01*
X201633501Y-76130264D01*
X201633489Y-76130261D01*
X201478845Y-76099500D01*
X201478842Y-76099500D01*
X201467334Y-76099500D01*
X201451846Y-76095350D01*
X201438100Y-76096005D01*
X201405334Y-76082887D01*
X201376111Y-76066015D01*
X201331785Y-76040423D01*
X201179057Y-75999499D01*
X201020943Y-75999499D01*
X201013347Y-75999499D01*
X201013331Y-75999500D01*
X200379766Y-75999500D01*
X200312727Y-75979815D01*
X200310875Y-75978602D01*
X200179185Y-75890609D01*
X200179172Y-75890602D01*
X200033501Y-75830264D01*
X200033489Y-75830261D01*
X199878845Y-75799500D01*
X199878842Y-75799500D01*
X199721158Y-75799500D01*
X199721155Y-75799500D01*
X199566510Y-75830261D01*
X199566498Y-75830264D01*
X199443636Y-75881155D01*
X199374167Y-75888624D01*
X199311688Y-75857348D01*
X199276036Y-75797259D01*
X199274571Y-75790805D01*
X199269737Y-75766503D01*
X199249676Y-75718071D01*
X199209397Y-75620827D01*
X199209390Y-75620814D01*
X199121789Y-75489711D01*
X199121786Y-75489707D01*
X199010292Y-75378213D01*
X199010288Y-75378210D01*
X198879185Y-75290609D01*
X198879172Y-75290602D01*
X198733501Y-75230264D01*
X198733489Y-75230261D01*
X198578845Y-75199500D01*
X198578842Y-75199500D01*
X198421158Y-75199500D01*
X198421155Y-75199500D01*
X198266510Y-75230261D01*
X198266498Y-75230264D01*
X198120827Y-75290602D01*
X198120814Y-75290609D01*
X197989711Y-75378210D01*
X197989707Y-75378213D01*
X197878213Y-75489707D01*
X197878210Y-75489711D01*
X197790609Y-75620814D01*
X197790602Y-75620827D01*
X197730264Y-75766498D01*
X197730261Y-75766510D01*
X197699500Y-75921153D01*
X188465671Y-75921153D01*
X188465671Y-68334926D01*
X188485356Y-68267887D01*
X188501990Y-68247245D01*
X189639078Y-67110157D01*
X189639090Y-67110143D01*
X191212417Y-65536819D01*
X191273740Y-65503334D01*
X191300098Y-65500500D01*
X208320234Y-65500500D01*
X208387273Y-65520185D01*
X208389125Y-65521398D01*
X208520814Y-65609390D01*
X208520827Y-65609397D01*
X208666498Y-65669735D01*
X208666503Y-65669737D01*
X208821153Y-65700499D01*
X208821156Y-65700500D01*
X208821158Y-65700500D01*
X208978843Y-65700500D01*
X208994564Y-65697372D01*
X209051309Y-65686085D01*
X209120899Y-65692312D01*
X209176077Y-65735174D01*
X209199322Y-65801063D01*
X209199500Y-65807702D01*
X209199500Y-68482915D01*
X209179815Y-68549954D01*
X209148387Y-68583232D01*
X209091998Y-68624201D01*
X208964196Y-68752003D01*
X208857974Y-68898208D01*
X208775923Y-69059241D01*
X208720072Y-69231132D01*
X208694000Y-69395744D01*
X208691800Y-69409635D01*
X208691800Y-69590365D01*
X208694000Y-69604254D01*
X208719968Y-69768213D01*
X208720073Y-69768871D01*
X208775922Y-69940756D01*
X208851486Y-70089059D01*
X208857974Y-70101791D01*
X208964196Y-70247996D01*
X209092003Y-70375803D01*
X209228817Y-70475202D01*
X209238212Y-70482028D01*
X209399244Y-70564078D01*
X209571129Y-70619927D01*
X209749635Y-70648200D01*
X209749636Y-70648200D01*
X209930364Y-70648200D01*
X209930365Y-70648200D01*
X210108871Y-70619927D01*
X210280756Y-70564078D01*
X210441788Y-70482028D01*
X210523879Y-70422385D01*
X210587996Y-70375803D01*
X210587998Y-70375800D01*
X210588002Y-70375798D01*
X210715798Y-70248002D01*
X210715800Y-70247998D01*
X210715803Y-70247996D01*
X210762385Y-70183879D01*
X210822028Y-70101788D01*
X210904078Y-69940756D01*
X210959927Y-69768871D01*
X210988200Y-69590365D01*
X210988200Y-69409635D01*
X211231800Y-69409635D01*
X211231800Y-69590365D01*
X211234000Y-69604254D01*
X211259968Y-69768213D01*
X211260073Y-69768871D01*
X211315922Y-69940756D01*
X211391486Y-70089059D01*
X211397974Y-70101791D01*
X211504196Y-70247996D01*
X211632003Y-70375803D01*
X211768817Y-70475202D01*
X211778212Y-70482028D01*
X211939244Y-70564078D01*
X212111129Y-70619927D01*
X212289635Y-70648200D01*
X212289636Y-70648200D01*
X212470364Y-70648200D01*
X212470365Y-70648200D01*
X212648871Y-70619927D01*
X212820756Y-70564078D01*
X212981788Y-70482028D01*
X213063879Y-70422385D01*
X213127996Y-70375803D01*
X213127998Y-70375800D01*
X213128002Y-70375798D01*
X213255798Y-70248002D01*
X213255800Y-70247998D01*
X213255803Y-70247996D01*
X213302385Y-70183879D01*
X213362028Y-70101788D01*
X213444078Y-69940756D01*
X213499927Y-69768871D01*
X213528200Y-69590365D01*
X213528200Y-69409635D01*
X213525327Y-69391499D01*
X213499927Y-69231132D01*
X213499927Y-69231131D01*
X213499927Y-69231129D01*
X213444078Y-69059244D01*
X213362028Y-68898212D01*
X213324179Y-68846117D01*
X213255803Y-68752003D01*
X213127996Y-68624196D01*
X212981791Y-68517974D01*
X212981790Y-68517973D01*
X212981788Y-68517972D01*
X212820756Y-68435922D01*
X212648871Y-68380073D01*
X212648869Y-68380072D01*
X212648867Y-68380072D01*
X212510823Y-68358208D01*
X212470365Y-68351800D01*
X212289635Y-68351800D01*
X212249177Y-68358208D01*
X212111132Y-68380072D01*
X212025186Y-68407997D01*
X211985345Y-68420943D01*
X211939241Y-68435923D01*
X211778208Y-68517974D01*
X211632003Y-68624196D01*
X211504196Y-68752003D01*
X211397974Y-68898208D01*
X211315923Y-69059241D01*
X211260072Y-69231132D01*
X211234000Y-69395744D01*
X211231800Y-69409635D01*
X210988200Y-69409635D01*
X210985327Y-69391499D01*
X210959927Y-69231132D01*
X210959927Y-69231131D01*
X210959927Y-69231129D01*
X210904078Y-69059244D01*
X210822028Y-68898212D01*
X210784179Y-68846117D01*
X210715803Y-68752003D01*
X210588000Y-68624200D01*
X210587995Y-68624196D01*
X210451615Y-68525110D01*
X210408949Y-68469780D01*
X210400500Y-68424792D01*
X210400500Y-65924500D01*
X210420185Y-65857461D01*
X210472989Y-65811706D01*
X210524500Y-65800500D01*
X210578844Y-65800500D01*
X210578845Y-65800499D01*
X210733497Y-65769737D01*
X210879179Y-65709394D01*
X210904744Y-65692312D01*
X211010875Y-65621398D01*
X211077553Y-65600520D01*
X211079766Y-65600500D01*
X213799903Y-65600500D01*
X213866942Y-65620185D01*
X213887584Y-65636819D01*
X213963181Y-65712416D01*
X213996666Y-65773739D01*
X213999500Y-65800097D01*
X213999500Y-68773234D01*
X213979815Y-68840273D01*
X213975820Y-68846117D01*
X213937971Y-68898213D01*
X213855923Y-69059241D01*
X213800072Y-69231132D01*
X213774000Y-69395744D01*
X213771800Y-69409635D01*
X213771800Y-69590365D01*
X213774000Y-69604254D01*
X213799968Y-69768213D01*
X213800073Y-69768871D01*
X213855922Y-69940756D01*
X213931486Y-70089059D01*
X213937974Y-70101791D01*
X214044196Y-70247996D01*
X214172003Y-70375803D01*
X214308817Y-70475202D01*
X214318212Y-70482028D01*
X214479244Y-70564078D01*
X214651129Y-70619927D01*
X214829635Y-70648200D01*
X214829636Y-70648200D01*
X215010364Y-70648200D01*
X215010365Y-70648200D01*
X215188871Y-70619927D01*
X215360756Y-70564078D01*
X215521788Y-70482028D01*
X215603879Y-70422385D01*
X215667996Y-70375803D01*
X215667998Y-70375800D01*
X215668002Y-70375798D01*
X215795798Y-70248002D01*
X215795800Y-70247998D01*
X215795803Y-70247996D01*
X215842385Y-70183879D01*
X215902028Y-70101788D01*
X215984078Y-69940756D01*
X216039927Y-69768871D01*
X216068200Y-69590365D01*
X216068200Y-69409635D01*
X216065327Y-69391499D01*
X216039927Y-69231132D01*
X216039927Y-69231131D01*
X216039927Y-69231129D01*
X215984078Y-69059244D01*
X215902028Y-68898212D01*
X215864179Y-68846117D01*
X215795803Y-68752003D01*
X215667996Y-68624196D01*
X215521791Y-68517974D01*
X215521790Y-68517973D01*
X215521788Y-68517972D01*
X215452985Y-68482915D01*
X215360760Y-68435923D01*
X215314656Y-68420943D01*
X215286180Y-68411690D01*
X215228506Y-68372253D01*
X215201308Y-68307894D01*
X215200500Y-68293760D01*
X215200500Y-65589060D01*
X215200501Y-65589047D01*
X215200501Y-65420944D01*
X215159576Y-65268214D01*
X215159573Y-65268209D01*
X215080524Y-65131290D01*
X215080518Y-65131282D01*
X214468717Y-64519481D01*
X214468716Y-64519480D01*
X214381904Y-64469360D01*
X214381904Y-64469359D01*
X214381900Y-64469358D01*
X214331785Y-64440423D01*
X214179057Y-64399499D01*
X214020943Y-64399499D01*
X214013347Y-64399499D01*
X214013331Y-64399500D01*
X211079766Y-64399500D01*
X211012727Y-64379815D01*
X211010875Y-64378602D01*
X210879185Y-64290609D01*
X210879172Y-64290602D01*
X210733501Y-64230264D01*
X210733489Y-64230261D01*
X210578845Y-64199500D01*
X210578842Y-64199500D01*
X210421158Y-64199500D01*
X210421155Y-64199500D01*
X210266510Y-64230261D01*
X210266507Y-64230262D01*
X210266506Y-64230262D01*
X210266503Y-64230263D01*
X210205003Y-64255737D01*
X210140105Y-64282618D01*
X210070635Y-64290086D01*
X210008156Y-64258810D01*
X210004972Y-64255737D01*
X209687590Y-63938355D01*
X209687588Y-63938352D01*
X209568717Y-63819481D01*
X209568716Y-63819480D01*
X209481904Y-63769360D01*
X209481904Y-63769359D01*
X209481900Y-63769358D01*
X209431785Y-63740423D01*
X209279057Y-63699499D01*
X209120943Y-63699499D01*
X209113347Y-63699499D01*
X209113331Y-63699500D01*
X190786670Y-63699500D01*
X190786654Y-63699499D01*
X190779058Y-63699499D01*
X190620943Y-63699499D01*
X190544579Y-63719961D01*
X190468214Y-63740423D01*
X190468209Y-63740426D01*
X190331290Y-63819475D01*
X190331282Y-63819481D01*
X190112181Y-64038583D01*
X190050858Y-64072068D01*
X189981166Y-64067084D01*
X189925233Y-64025212D01*
X189900816Y-63959748D01*
X189900500Y-63950902D01*
X189900500Y-63124500D01*
X189920185Y-63057461D01*
X189972989Y-63011706D01*
X190024500Y-63000500D01*
X216099903Y-63000500D01*
X216166942Y-63020185D01*
X216187584Y-63036819D01*
X216823181Y-63672416D01*
X216856666Y-63733739D01*
X216859500Y-63760097D01*
X216859500Y-68453854D01*
X216839815Y-68520893D01*
X216808385Y-68554172D01*
X216712004Y-68624196D01*
X216711999Y-68624200D01*
X216584196Y-68752003D01*
X216477974Y-68898208D01*
X216395923Y-69059241D01*
X216340072Y-69231132D01*
X216314000Y-69395744D01*
X216311800Y-69409635D01*
X216311800Y-69590365D01*
X216314000Y-69604254D01*
X216339968Y-69768213D01*
X216340073Y-69768871D01*
X216395922Y-69940756D01*
X216471486Y-70089059D01*
X216477974Y-70101791D01*
X216584196Y-70247996D01*
X216712003Y-70375803D01*
X216848817Y-70475202D01*
X216858212Y-70482028D01*
X217019244Y-70564078D01*
X217191129Y-70619927D01*
X217369635Y-70648200D01*
X217369636Y-70648200D01*
X217550364Y-70648200D01*
X217550365Y-70648200D01*
X217728871Y-70619927D01*
X217900756Y-70564078D01*
X218061788Y-70482028D01*
X218143879Y-70422385D01*
X218207996Y-70375803D01*
X218207998Y-70375800D01*
X218208002Y-70375798D01*
X218335798Y-70248002D01*
X218335800Y-70247998D01*
X218335803Y-70247996D01*
X218382385Y-70183879D01*
X218442028Y-70101788D01*
X218524078Y-69940756D01*
X218579927Y-69768871D01*
X218608200Y-69590365D01*
X218608200Y-69409635D01*
X218605327Y-69391499D01*
X218579927Y-69231132D01*
X218579927Y-69231131D01*
X218579927Y-69231129D01*
X218524078Y-69059244D01*
X218442028Y-68898212D01*
X218404179Y-68846117D01*
X218335803Y-68752003D01*
X218208000Y-68624200D01*
X218207995Y-68624196D01*
X218111615Y-68554172D01*
X218068949Y-68498842D01*
X218060500Y-68453854D01*
X218060500Y-63380945D01*
X218060500Y-63380943D01*
X218019577Y-63228216D01*
X218019573Y-63228209D01*
X217940524Y-63091290D01*
X217940521Y-63091286D01*
X217940520Y-63091284D01*
X217828716Y-62979480D01*
X217828715Y-62979479D01*
X217824385Y-62975149D01*
X217824374Y-62975139D01*
X217619536Y-62770301D01*
X217586051Y-62708978D01*
X217591035Y-62639286D01*
X217632907Y-62583353D01*
X217698371Y-62558936D01*
X217766644Y-62573788D01*
X217776108Y-62579518D01*
X217820821Y-62609394D01*
X217820823Y-62609395D01*
X217820827Y-62609397D01*
X217937677Y-62657797D01*
X217966503Y-62669737D01*
X218121153Y-62700499D01*
X218121156Y-62700500D01*
X218121158Y-62700500D01*
X218278844Y-62700500D01*
X218278845Y-62700499D01*
X218433497Y-62669737D01*
X218579179Y-62609394D01*
X218710289Y-62521789D01*
X218753740Y-62478337D01*
X218815060Y-62444852D01*
X218884752Y-62449835D01*
X218929102Y-62478337D01*
X219363181Y-62912416D01*
X219396666Y-62973739D01*
X219399500Y-63000097D01*
X219399500Y-68453854D01*
X219379815Y-68520893D01*
X219348385Y-68554172D01*
X219252004Y-68624196D01*
X219251999Y-68624200D01*
X219124196Y-68752003D01*
X219017974Y-68898208D01*
X218935923Y-69059241D01*
X218880072Y-69231132D01*
X218854000Y-69395744D01*
X218851800Y-69409635D01*
X218851800Y-69590365D01*
X218854000Y-69604254D01*
X218879968Y-69768213D01*
X218880073Y-69768871D01*
X218935922Y-69940756D01*
X219011486Y-70089059D01*
X219017974Y-70101791D01*
X219124196Y-70247996D01*
X219252003Y-70375803D01*
X219388817Y-70475202D01*
X219398212Y-70482028D01*
X219559244Y-70564078D01*
X219731129Y-70619927D01*
X219909635Y-70648200D01*
X219909636Y-70648200D01*
X220090364Y-70648200D01*
X220090365Y-70648200D01*
X220268871Y-70619927D01*
X220440756Y-70564078D01*
X220601788Y-70482028D01*
X220683879Y-70422385D01*
X220747996Y-70375803D01*
X220747998Y-70375800D01*
X220748002Y-70375798D01*
X220875798Y-70248002D01*
X220875800Y-70247998D01*
X220875803Y-70247996D01*
X220922385Y-70183879D01*
X220982028Y-70101788D01*
X221064078Y-69940756D01*
X221119927Y-69768871D01*
X221148200Y-69590365D01*
X221148200Y-69409635D01*
X221145327Y-69391499D01*
X221119927Y-69231132D01*
X221119927Y-69231131D01*
X221119927Y-69231129D01*
X221064078Y-69059244D01*
X220982028Y-68898212D01*
X220944179Y-68846117D01*
X220875803Y-68752003D01*
X220748000Y-68624200D01*
X220747995Y-68624196D01*
X220651615Y-68554172D01*
X220608949Y-68498842D01*
X220600500Y-68453854D01*
X220600500Y-62789057D01*
X220600500Y-62779059D01*
X220600501Y-62779057D01*
X220600501Y-62724835D01*
X220617029Y-62668549D01*
X220620186Y-62657798D01*
X220620186Y-62657797D01*
X220620187Y-62657796D01*
X220672991Y-62612042D01*
X220672992Y-62612041D01*
X220676997Y-62610297D01*
X220679179Y-62609394D01*
X220769962Y-62548735D01*
X220810875Y-62521398D01*
X220877553Y-62500520D01*
X220879766Y-62500500D01*
X221875500Y-62500500D01*
X221942539Y-62520185D01*
X221988294Y-62572989D01*
X221999500Y-62624500D01*
X221999500Y-68410971D01*
X221979815Y-68478010D01*
X221942053Y-68514971D01*
X221942153Y-68515108D01*
X221941227Y-68515780D01*
X221940290Y-68516698D01*
X221938210Y-68517972D01*
X221792003Y-68624196D01*
X221664196Y-68752003D01*
X221557974Y-68898208D01*
X221475923Y-69059241D01*
X221420072Y-69231132D01*
X221394000Y-69395744D01*
X221391800Y-69409635D01*
X221391800Y-69590365D01*
X221394000Y-69604254D01*
X221419968Y-69768213D01*
X221420073Y-69768871D01*
X221475922Y-69940756D01*
X221551486Y-70089059D01*
X221557974Y-70101791D01*
X221664196Y-70247996D01*
X221792003Y-70375803D01*
X221928817Y-70475202D01*
X221938212Y-70482028D01*
X222099244Y-70564078D01*
X222271129Y-70619927D01*
X222449635Y-70648200D01*
X222449636Y-70648200D01*
X222630364Y-70648200D01*
X222630365Y-70648200D01*
X222808871Y-70619927D01*
X222980756Y-70564078D01*
X223141788Y-70482028D01*
X223223879Y-70422385D01*
X223287996Y-70375803D01*
X223287998Y-70375800D01*
X223288002Y-70375798D01*
X223415798Y-70248002D01*
X223415800Y-70247998D01*
X223415803Y-70247996D01*
X223462385Y-70183879D01*
X223522028Y-70101788D01*
X223604078Y-69940756D01*
X223659927Y-69768871D01*
X223685327Y-69608497D01*
X223715256Y-69545365D01*
X223774567Y-69508433D01*
X223844430Y-69509431D01*
X223902663Y-69548040D01*
X223930777Y-69612004D01*
X223931800Y-69627897D01*
X223931800Y-70195570D01*
X223931801Y-70195576D01*
X223938208Y-70255183D01*
X223988502Y-70390028D01*
X223988506Y-70390035D01*
X224074752Y-70505244D01*
X224074755Y-70505247D01*
X224189964Y-70591493D01*
X224189971Y-70591497D01*
X224324817Y-70641791D01*
X224324816Y-70641791D01*
X224331744Y-70642535D01*
X224384427Y-70648200D01*
X225775572Y-70648199D01*
X225835183Y-70641791D01*
X225970031Y-70591496D01*
X226085246Y-70505246D01*
X226171496Y-70390031D01*
X226221791Y-70255183D01*
X226228200Y-70195573D01*
X226228199Y-68804428D01*
X226222999Y-68756057D01*
X226221791Y-68744816D01*
X226171497Y-68609971D01*
X226171493Y-68609964D01*
X226085247Y-68494755D01*
X226085244Y-68494752D01*
X225970035Y-68408506D01*
X225970028Y-68408502D01*
X225835182Y-68358208D01*
X225835183Y-68358208D01*
X225775583Y-68351801D01*
X225775581Y-68351800D01*
X225775573Y-68351800D01*
X225775564Y-68351800D01*
X224384429Y-68351800D01*
X224384423Y-68351801D01*
X224324816Y-68358208D01*
X224189971Y-68408502D01*
X224189964Y-68408506D01*
X224074755Y-68494752D01*
X224074752Y-68494755D01*
X223988506Y-68609964D01*
X223988502Y-68609971D01*
X223938208Y-68744817D01*
X223931801Y-68804416D01*
X223931801Y-68804423D01*
X223931800Y-68804435D01*
X223931800Y-69372101D01*
X223912115Y-69439140D01*
X223859311Y-69484895D01*
X223790153Y-69494839D01*
X223726597Y-69465814D01*
X223688823Y-69407036D01*
X223685327Y-69391499D01*
X223659927Y-69231131D01*
X223659927Y-69231129D01*
X223604078Y-69059244D01*
X223522028Y-68898212D01*
X223484179Y-68846117D01*
X223415803Y-68752003D01*
X223288004Y-68624204D01*
X223288002Y-68624202D01*
X223251613Y-68597763D01*
X223208949Y-68542435D01*
X223200500Y-68497447D01*
X223200500Y-62220945D01*
X223200500Y-62220943D01*
X223159577Y-62068216D01*
X223084310Y-61937848D01*
X223080524Y-61931290D01*
X223080521Y-61931286D01*
X223080520Y-61931284D01*
X222968716Y-61819480D01*
X222968715Y-61819479D01*
X222964385Y-61815149D01*
X222964374Y-61815139D01*
X222687590Y-61538355D01*
X222687588Y-61538352D01*
X222568717Y-61419481D01*
X222568716Y-61419480D01*
X222481904Y-61369360D01*
X222481904Y-61369359D01*
X222481900Y-61369358D01*
X222431785Y-61340423D01*
X222279057Y-61299499D01*
X222120943Y-61299499D01*
X222113347Y-61299499D01*
X222113331Y-61299500D01*
X220879766Y-61299500D01*
X220812727Y-61279815D01*
X220810875Y-61278602D01*
X220679185Y-61190609D01*
X220679172Y-61190602D01*
X220533501Y-61130264D01*
X220533489Y-61130261D01*
X220378845Y-61099500D01*
X220378842Y-61099500D01*
X220221158Y-61099500D01*
X220221155Y-61099500D01*
X220066510Y-61130261D01*
X220066498Y-61130264D01*
X219920827Y-61190602D01*
X219920814Y-61190609D01*
X219789711Y-61278210D01*
X219789707Y-61278213D01*
X219696259Y-61371662D01*
X219634936Y-61405147D01*
X219565244Y-61400163D01*
X219520897Y-61371662D01*
X218911152Y-60761917D01*
X218911150Y-60761914D01*
X218792279Y-60643043D01*
X218792278Y-60643042D01*
X218693401Y-60585956D01*
X218693400Y-60585955D01*
X218655345Y-60563984D01*
X218599443Y-60549005D01*
X218502619Y-60523061D01*
X218344505Y-60523061D01*
X218336909Y-60523061D01*
X218336893Y-60523062D01*
X176388199Y-60523062D01*
X176321160Y-60503377D01*
X176277715Y-60455358D01*
X176244177Y-60389538D01*
X176114610Y-60211203D01*
X176114606Y-60211198D01*
X175958726Y-60055318D01*
X175958721Y-60055314D01*
X175780388Y-59925749D01*
X175780387Y-59925748D01*
X175780385Y-59925747D01*
X175663154Y-59866014D01*
X175583969Y-59825666D01*
X175583966Y-59825665D01*
X175374315Y-59757547D01*
X175265449Y-59740304D01*
X175156585Y-59723062D01*
X174936141Y-59723062D01*
X174863564Y-59734557D01*
X174718410Y-59757547D01*
X174508759Y-59825665D01*
X174508756Y-59825666D01*
X174312337Y-59925749D01*
X174134004Y-60055314D01*
X174133999Y-60055318D01*
X174083826Y-60105491D01*
X174022503Y-60138975D01*
X173952811Y-60133990D01*
X173896878Y-60092119D01*
X173879964Y-60061142D01*
X173850160Y-59981233D01*
X173850156Y-59981226D01*
X173763910Y-59866017D01*
X173763907Y-59866014D01*
X173648698Y-59779768D01*
X173648691Y-59779764D01*
X173513845Y-59729470D01*
X173513846Y-59729470D01*
X173454246Y-59723063D01*
X173454244Y-59723062D01*
X173454236Y-59723062D01*
X173454227Y-59723062D01*
X171558492Y-59723062D01*
X171558486Y-59723063D01*
X171498879Y-59729470D01*
X171364034Y-59779764D01*
X171364027Y-59779768D01*
X171248818Y-59866014D01*
X171248815Y-59866017D01*
X171162569Y-59981226D01*
X171162565Y-59981233D01*
X171112271Y-60116079D01*
X171105864Y-60175678D01*
X171105863Y-60175697D01*
X171105863Y-62071432D01*
X171105864Y-62071438D01*
X171112271Y-62131045D01*
X171162565Y-62265890D01*
X171162569Y-62265897D01*
X171248815Y-62381106D01*
X171248818Y-62381109D01*
X171364027Y-62467355D01*
X171364034Y-62467359D01*
X171498880Y-62517653D01*
X171498879Y-62517653D01*
X171505807Y-62518397D01*
X171558490Y-62524062D01*
X173454235Y-62524061D01*
X173513846Y-62517653D01*
X173648694Y-62467358D01*
X173763909Y-62381108D01*
X173850159Y-62265893D01*
X173877792Y-62191805D01*
X173879964Y-62185982D01*
X173921834Y-62130048D01*
X173987299Y-62105630D01*
X174055572Y-62120481D01*
X174083827Y-62141633D01*
X174133999Y-62191805D01*
X174134004Y-62191809D01*
X174174107Y-62220945D01*
X174312341Y-62321377D01*
X174440643Y-62386751D01*
X174508756Y-62421457D01*
X174508759Y-62421458D01*
X174613584Y-62455517D01*
X174718412Y-62489577D01*
X174936141Y-62524062D01*
X174936142Y-62524062D01*
X175156584Y-62524062D01*
X175156585Y-62524062D01*
X175374314Y-62489577D01*
X175583969Y-62421457D01*
X175780385Y-62321377D01*
X175958728Y-62191804D01*
X176114605Y-62035927D01*
X176244178Y-61857584D01*
X176265805Y-61815139D01*
X176277715Y-61791766D01*
X176325689Y-61740971D01*
X176388199Y-61724062D01*
X188427341Y-61724062D01*
X188494380Y-61743747D01*
X188540135Y-61796551D01*
X188550079Y-61865709D01*
X188521054Y-61929265D01*
X188515027Y-61935736D01*
X188345134Y-62105630D01*
X188231286Y-62219478D01*
X188119481Y-62331282D01*
X188119480Y-62331284D01*
X188082595Y-62395171D01*
X188078895Y-62401580D01*
X188040920Y-62467355D01*
X188040423Y-62468215D01*
X187999499Y-62620943D01*
X187999499Y-62620945D01*
X187999499Y-62789046D01*
X187999500Y-62789059D01*
X187999500Y-63899902D01*
X187979815Y-63966941D01*
X187963181Y-63987583D01*
X187298939Y-64651826D01*
X187272011Y-64666529D01*
X187246193Y-64683122D01*
X187239992Y-64684013D01*
X187237616Y-64685311D01*
X187211258Y-64688145D01*
X187129697Y-64688145D01*
X187062658Y-64668460D01*
X187016903Y-64615656D01*
X187006959Y-64546498D01*
X187019212Y-64507850D01*
X187108162Y-64333277D01*
X187108163Y-64333274D01*
X187110619Y-64325713D01*
X187176282Y-64123622D01*
X187210767Y-63905893D01*
X187210767Y-63685449D01*
X187176282Y-63467720D01*
X187108162Y-63258065D01*
X187108162Y-63258064D01*
X187073504Y-63190046D01*
X187008082Y-63061649D01*
X186948382Y-62979478D01*
X186878514Y-62883312D01*
X186878510Y-62883307D01*
X186722630Y-62727427D01*
X186722625Y-62727423D01*
X186544292Y-62597858D01*
X186544291Y-62597857D01*
X186544289Y-62597856D01*
X186427058Y-62538123D01*
X186347873Y-62497775D01*
X186347870Y-62497774D01*
X186138219Y-62429656D01*
X186015940Y-62410289D01*
X185920489Y-62395171D01*
X185700045Y-62395171D01*
X185627468Y-62406666D01*
X185482314Y-62429656D01*
X185272663Y-62497774D01*
X185272660Y-62497775D01*
X185076241Y-62597858D01*
X184897908Y-62727423D01*
X184897903Y-62727427D01*
X184847730Y-62777600D01*
X184786407Y-62811084D01*
X184716715Y-62806099D01*
X184660782Y-62764228D01*
X184643868Y-62733251D01*
X184614064Y-62653342D01*
X184614060Y-62653335D01*
X184527814Y-62538126D01*
X184527811Y-62538123D01*
X184412602Y-62451877D01*
X184412595Y-62451873D01*
X184277749Y-62401579D01*
X184277750Y-62401579D01*
X184218150Y-62395172D01*
X184218148Y-62395171D01*
X184218140Y-62395171D01*
X184218131Y-62395171D01*
X182322396Y-62395171D01*
X182322390Y-62395172D01*
X182262783Y-62401579D01*
X182127938Y-62451873D01*
X182127931Y-62451877D01*
X182012722Y-62538123D01*
X182012719Y-62538126D01*
X181926473Y-62653335D01*
X181926469Y-62653342D01*
X181876175Y-62788188D01*
X181874250Y-62806099D01*
X181869767Y-62847798D01*
X181869767Y-63760097D01*
X181869768Y-64564145D01*
X181850083Y-64631184D01*
X181797280Y-64676939D01*
X181745768Y-64688145D01*
X166109391Y-64688145D01*
X166042352Y-64668460D01*
X165998907Y-64620441D01*
X165965369Y-64554621D01*
X165835802Y-64376286D01*
X165835798Y-64376281D01*
X165679918Y-64220401D01*
X165679913Y-64220397D01*
X165501580Y-64090832D01*
X165501579Y-64090831D01*
X165501577Y-64090830D01*
X165384346Y-64031097D01*
X165305161Y-63990749D01*
X165305158Y-63990748D01*
X165095507Y-63922630D01*
X164986641Y-63905387D01*
X164877777Y-63888145D01*
X164657333Y-63888145D01*
X164584756Y-63899640D01*
X164439602Y-63922630D01*
X164229951Y-63990748D01*
X164229948Y-63990749D01*
X164033529Y-64090832D01*
X163855196Y-64220397D01*
X163855191Y-64220401D01*
X163805018Y-64270574D01*
X163743695Y-64304058D01*
X163674003Y-64299073D01*
X163618070Y-64257202D01*
X163601156Y-64226225D01*
X163571352Y-64146316D01*
X163571348Y-64146309D01*
X163485102Y-64031100D01*
X163485099Y-64031097D01*
X163369890Y-63944851D01*
X163369883Y-63944847D01*
X163235037Y-63894553D01*
X163235038Y-63894553D01*
X163175438Y-63888146D01*
X163175436Y-63888145D01*
X163175428Y-63888145D01*
X163175419Y-63888145D01*
X161279684Y-63888145D01*
X161279678Y-63888146D01*
X161220071Y-63894553D01*
X161085226Y-63944847D01*
X161085219Y-63944851D01*
X160970010Y-64031097D01*
X160970007Y-64031100D01*
X160883761Y-64146309D01*
X160883757Y-64146316D01*
X160833463Y-64281162D01*
X160827056Y-64340761D01*
X160827055Y-64340780D01*
X160827055Y-66236515D01*
X160827056Y-66236521D01*
X160833463Y-66296128D01*
X160883757Y-66430973D01*
X160883761Y-66430980D01*
X160970007Y-66546189D01*
X160970010Y-66546192D01*
X161085219Y-66632438D01*
X161085226Y-66632442D01*
X161220072Y-66682736D01*
X161220071Y-66682736D01*
X161226999Y-66683480D01*
X161279682Y-66689145D01*
X163175427Y-66689144D01*
X163235038Y-66682736D01*
X163369886Y-66632441D01*
X163485101Y-66546191D01*
X163571351Y-66430976D01*
X163598984Y-66356888D01*
X163601156Y-66351065D01*
X163643026Y-66295131D01*
X163708491Y-66270713D01*
X163776764Y-66285564D01*
X163805019Y-66306716D01*
X163855191Y-66356888D01*
X163855196Y-66356892D01*
X163957158Y-66430971D01*
X164033533Y-66486460D01*
X164161930Y-66551882D01*
X164229948Y-66586540D01*
X164229951Y-66586541D01*
X164334776Y-66620600D01*
X164439604Y-66654660D01*
X164657333Y-66689145D01*
X164657334Y-66689145D01*
X164877776Y-66689145D01*
X164877777Y-66689145D01*
X165095506Y-66654660D01*
X165305161Y-66586540D01*
X165501577Y-66486460D01*
X165679920Y-66356887D01*
X165835797Y-66201010D01*
X165965370Y-66022667D01*
X165982136Y-65989762D01*
X165998907Y-65956849D01*
X166046881Y-65906054D01*
X166109391Y-65889145D01*
X186562258Y-65889145D01*
X186629297Y-65908830D01*
X186675052Y-65961634D01*
X186684996Y-66030792D01*
X186655971Y-66094348D01*
X186649939Y-66100826D01*
X185787584Y-66963181D01*
X185726261Y-66996666D01*
X185699903Y-66999500D01*
X159879057Y-66999500D01*
X159720942Y-66999500D01*
X159568215Y-67040423D01*
X159568214Y-67040423D01*
X159568212Y-67040424D01*
X159568209Y-67040425D01*
X159518096Y-67069359D01*
X159518095Y-67069360D01*
X159474689Y-67094420D01*
X159431285Y-67119479D01*
X159431282Y-67119481D01*
X158419481Y-68131282D01*
X158419480Y-68131284D01*
X158379518Y-68200501D01*
X158340423Y-68268215D01*
X158299499Y-68420943D01*
X158299499Y-68420945D01*
X158299499Y-68589046D01*
X158299500Y-68589059D01*
X158299500Y-73358164D01*
X158279815Y-73425203D01*
X158231796Y-73468648D01*
X158165976Y-73502185D01*
X157987641Y-73631752D01*
X157987636Y-73631756D01*
X157937463Y-73681929D01*
X157876140Y-73715413D01*
X157806448Y-73710428D01*
X157750515Y-73668557D01*
X157733601Y-73637580D01*
X157703797Y-73557671D01*
X157703793Y-73557664D01*
X157617547Y-73442455D01*
X157617544Y-73442452D01*
X157502335Y-73356206D01*
X157502328Y-73356202D01*
X157367482Y-73305908D01*
X157367483Y-73305908D01*
X157307883Y-73299501D01*
X157307881Y-73299500D01*
X157307873Y-73299500D01*
X157307864Y-73299500D01*
X155412129Y-73299500D01*
X155412123Y-73299501D01*
X155352516Y-73305908D01*
X155217671Y-73356202D01*
X155217664Y-73356206D01*
X155102455Y-73442452D01*
X155102452Y-73442455D01*
X155016206Y-73557664D01*
X155016202Y-73557671D01*
X154965908Y-73692517D01*
X154959501Y-73752116D01*
X154959500Y-73752135D01*
X130500500Y-73752135D01*
X130500500Y-49624500D01*
X130520185Y-49557461D01*
X130572989Y-49511706D01*
X130624500Y-49500500D01*
X229375500Y-49500500D01*
X229442539Y-49520185D01*
G37*
%TD.AperFunction*%
%TA.AperFunction,NonConductor*%
G36*
X159839154Y-68512593D02*
G01*
X159895088Y-68554464D01*
X159919505Y-68619929D01*
X159915596Y-68660868D01*
X159899499Y-68720943D01*
X159899499Y-68889046D01*
X159899500Y-68889059D01*
X159899500Y-73451701D01*
X159897241Y-73459392D01*
X159898514Y-73467308D01*
X159887538Y-73492436D01*
X159879815Y-73518740D01*
X159873757Y-73523988D01*
X159870548Y-73531337D01*
X159847727Y-73546543D01*
X159827011Y-73564495D01*
X159819077Y-73565635D01*
X159812405Y-73570082D01*
X159784988Y-73570537D01*
X159757853Y-73574439D01*
X159748774Y-73571138D01*
X159742545Y-73571242D01*
X159722449Y-73561568D01*
X159710201Y-73557115D01*
X159706307Y-73554703D01*
X159634022Y-73502185D01*
X159563596Y-73466300D01*
X159559201Y-73463578D01*
X159539196Y-73441251D01*
X159517409Y-73420674D01*
X159515960Y-73415318D01*
X159512576Y-73411541D01*
X159509115Y-73390012D01*
X159500500Y-73358164D01*
X159500500Y-68800097D01*
X159520185Y-68733058D01*
X159536819Y-68712416D01*
X159589658Y-68659577D01*
X159708142Y-68541092D01*
X159769463Y-68507609D01*
X159839154Y-68512593D01*
G37*
%TD.AperFunction*%
M02*
